<mxfile host="app.diagrams.net" modified="2022-11-23T11:38:29.262Z" agent="5.0 (Windows NT 10.0; Win64; x64) AppleWebKit/537.36 (KHTML, like Gecko) Chrome/107.0.0.0 Safari/537.36 Edg/107.0.1418.35" etag="XGLcLCoFVKhgU_efPoGo" version="20.4.0" type="github">
  <diagram id="KyIBKFyuBe1oRPsiNU8R" name="Page-1">
    <mxGraphModel dx="1119" dy="1568" grid="1" gridSize="10" guides="1" tooltips="1" connect="1" arrows="1" fold="1" page="1" pageScale="1" pageWidth="1169" pageHeight="827" math="0" shadow="0">
      <root>
        <mxCell id="0" />
        <mxCell id="1" parent="0" />
        <object label="Name :GL-P-AP-01&#xa;IP: 192.168.40.4/24" Name="GL-P-AP-01" Brand="ASUS" Model="RT-AX58U" Ports="1 + 4" OS="AsusWRT Merlin" Location="Livingroom" HWVersion="1" OSVersion="386.5_2" id="YRLlY--aoW11vG_20f-W-3">
          <mxCell style="shape=image;verticalLabelPosition=bottom;labelBackgroundColor=default;verticalAlign=top;aspect=fixed;imageAspect=0;image=data:image/svg+xml,PHN2ZyB4bWxuczpzdmc9Imh0dHA6Ly93d3cudzMub3JnLzIwMDAvc3ZnIiB4bWxucz0iaHR0cDovL3d3dy53My5vcmcvMjAwMC9zdmciIHhtbG5zOnhsaW5rPSJodHRwOi8vd3d3LnczLm9yZy8xOTk5L3hsaW5rIiB2ZXJzaW9uPSIxLjAiIHdpZHRoPSIxMjgiIGhlaWdodD0iMTI4IiBpZD0ic3ZnMjEwOCIgdmlld0JveD0iMCAwIDEyOCAxMjgiPiYjeGE7ICA8ZGVmcyBpZD0iZGVmczMiPiYjeGE7ICAgIDxsaW5lYXJHcmFkaWVudCBpZD0ibGluZWFyR3JhZGllbnQ1MDQ4Ij4mI3hhOyAgICAgIDxzdG9wIGlkPSJzdG9wNTA1MCIgc3R5bGU9InN0b3AtY29sb3I6IzAwMDAwMDtzdG9wLW9wYWNpdHk6MCIgb2Zmc2V0PSIwIi8+JiN4YTsgICAgICA8c3RvcCBpZD0ic3RvcDUwNTYiIHN0eWxlPSJzdG9wLWNvbG9yOiMwMDAwMDA7c3RvcC1vcGFjaXR5OjEiIG9mZnNldD0iMC41Ii8+JiN4YTsgICAgICA8c3RvcCBpZD0ic3RvcDUwNTIiIHN0eWxlPSJzdG9wLWNvbG9yOiMwMDAwMDA7c3RvcC1vcGFjaXR5OjAiIG9mZnNldD0iMSIvPiYjeGE7ICAgIDwvbGluZWFyR3JhZGllbnQ+JiN4YTsgICAgPGxpbmVhckdyYWRpZW50IGlkPSJsaW5lYXJHcmFkaWVudDUwNjAiPiYjeGE7ICAgICAgPHN0b3AgaWQ9InN0b3A1MDYyIiBzdHlsZT0ic3RvcC1jb2xvcjojMDAwMDAwO3N0b3Atb3BhY2l0eToxIiBvZmZzZXQ9IjAiLz4mI3hhOyAgICAgIDxzdG9wIGlkPSJzdG9wNTA2NCIgc3R5bGU9InN0b3AtY29sb3I6IzAwMDAwMDtzdG9wLW9wYWNpdHk6MCIgb2Zmc2V0PSIxIi8+JiN4YTsgICAgPC9saW5lYXJHcmFkaWVudD4mI3hhOyAgICA8bGluZWFyR3JhZGllbnQgaWQ9ImxpbmVhckdyYWRpZW50NDI1NCI+JiN4YTsgICAgICA8c3RvcCBpZD0ic3RvcDQyNTYiIHN0eWxlPSJzdG9wLWNvbG9yOiM2MTYxNjE7c3RvcC1vcGFjaXR5OjEiIG9mZnNldD0iMCIvPiYjeGE7ICAgICAgPHN0b3AgaWQ9InN0b3A0MjU4IiBzdHlsZT0ic3RvcC1jb2xvcjojYTBhMGEwO3N0b3Atb3BhY2l0eToxIiBvZmZzZXQ9IjEiLz4mI3hhOyAgICA8L2xpbmVhckdyYWRpZW50PiYjeGE7ICAgIDxsaW5lYXJHcmFkaWVudCBpZD0ibGluZWFyR3JhZGllbnQ0MjI4Ij4mI3hhOyAgICAgIDxzdG9wIGlkPSJzdG9wNDIzMCIgc3R5bGU9InN0b3AtY29sb3I6I2JiYmJiYjtzdG9wLW9wYWNpdHk6MSIgb2Zmc2V0PSIwIi8+JiN4YTsgICAgICA8c3RvcCBpZD0ic3RvcDQyMzIiIHN0eWxlPSJzdG9wLWNvbG9yOiM5ZjlmOWY7c3RvcC1vcGFjaXR5OjEiIG9mZnNldD0iMSIvPiYjeGE7ICAgIDwvbGluZWFyR3JhZGllbnQ+JiN4YTsgICAgPGxpbmVhckdyYWRpZW50IGlkPSJsaW5lYXJHcmFkaWVudDQyNDQiPiYjeGE7ICAgICAgPHN0b3AgaWQ9InN0b3A0MjQ2IiBzdHlsZT0ic3RvcC1jb2xvcjojZTRlNGU0O3N0b3Atb3BhY2l0eToxIiBvZmZzZXQ9IjAiLz4mI3hhOyAgICAgIDxzdG9wIGlkPSJzdG9wNDI0OCIgc3R5bGU9InN0b3AtY29sb3I6I2QzZDNkMztzdG9wLW9wYWNpdHk6MSIgb2Zmc2V0PSIxIi8+JiN4YTsgICAgPC9saW5lYXJHcmFkaWVudD4mI3hhOyAgICA8bGluZWFyR3JhZGllbnQgeDE9IjMwMi44NTcxNSIgeTE9IjM2Ni42NDc4OSIgeDI9IjMwMi44NTcxNSIgeTI9IjYwOS41MDUwNyIgaWQ9ImxpbmVhckdyYWRpZW50NjcxNSIgeGxpbms6aHJlZj0iI2xpbmVhckdyYWRpZW50NTA0OCIgZ3JhZGllbnRVbml0cz0idXNlclNwYWNlT25Vc2UiIGdyYWRpZW50VHJhbnNmb3JtPSJtYXRyaXgoMi43NzQzODksMCwwLDEuOTY5NzA2LC0xODkyLjE3OSwtODcyLjg4NTQpIi8+JiN4YTsgICAgPHJhZGlhbEdyYWRpZW50IGN4PSI2MDUuNzE0MjkiIGN5PSI0ODYuNjQ3ODkiIHI9IjExNy4xNDI4NiIgZng9IjYwNS43MTQyOSIgZnk9IjQ4Ni42NDc4OSIgaWQ9InJhZGlhbEdyYWRpZW50NjcxNyIgeGxpbms6aHJlZj0iI2xpbmVhckdyYWRpZW50NTA2MCIgZ3JhZGllbnRVbml0cz0idXNlclNwYWNlT25Vc2UiIGdyYWRpZW50VHJhbnNmb3JtPSJtYXRyaXgoMi43NzQzODksMCwwLDEuOTY5NzA2LC0xODkxLjYzMywtODcyLjg4NTQpIi8+JiN4YTsgICAgPHJhZGlhbEdyYWRpZW50IGN4PSI2MDUuNzE0MjkiIGN5PSI0ODYuNjQ3ODkiIHI9IjExNy4xNDI4NiIgZng9IjYwNS43MTQyOSIgZnk9IjQ4Ni42NDc4OSIgaWQ9InJhZGlhbEdyYWRpZW50NjcxOSIgeGxpbms6aHJlZj0iI2xpbmVhckdyYWRpZW50NTA2MCIgZ3JhZGllbnRVbml0cz0idXNlclNwYWNlT25Vc2UiIGdyYWRpZW50VHJhbnNmb3JtPSJtYXRyaXgoLTIuNzc0Mzg5LDAsMCwxLjk2OTcwNiwxMTIuNzYyMywtODcyLjg4NTQpIi8+JiN4YTsgICAgPGxpbmVhckdyYWRpZW50IHgxPSIxMi4zNzgzNTciIHkxPSI0LjQzMzEzNiIgeDI9IjQ0LjA5NjEiIHkyPSI0Ny42MjA2MzYiIGlkPSJsaW5lYXJHcmFkaWVudDE4OTg1IiB4bGluazpocmVmPSIjbGluZWFyR3JhZGllbnQ0MjU0IiBncmFkaWVudFVuaXRzPSJ1c2VyU3BhY2VPblVzZSIgZ3JhZGllbnRUcmFuc2Zvcm09Im1hdHJpeCgyLjU2NDY0ODQsMCwwLDEuODI4NDk1OCwzLjAwNDY2NzYsMjYuMzcyNjg4KSIvPiYjeGE7ICAgIDxyYWRpYWxHcmFkaWVudCBjeD0iMTUuNTcxNDkxIiBjeT0iMi45NTg1MTkiIHI9IjIwLjkzNTgxOCIgZng9IjE1LjU3MTQ5MSIgZnk9IjIuOTU4NTE5IiBpZD0icmFkaWFsR3JhZGllbnQxOTAwMCIgeGxpbms6aHJlZj0iI2xpbmVhckdyYWRpZW50NDI0NCIgZ3JhZGllbnRVbml0cz0idXNlclNwYWNlT25Vc2UiIGdyYWRpZW50VHJhbnNmb3JtPSJtYXRyaXgoMy4xNzU4MzU1LDEuMjAxODQzOSwtMS43NTQ5NzgyLDEuNzk4MTYxLC0wLjY0NjMwNiwyMi44NDk0NDcpIi8+JiN4YTsgICAgPGxpbmVhckdyYWRpZW50IHgxPSI3LjYwNDYyMDUiIHkxPSIyOC40ODExNzYiIHgyPSIzNi4xODMwNjciIHkyPSI0MC45NDM5MzUiIGlkPSJsaW5lYXJHcmFkaWVudDE5MDAzIiB4bGluazpocmVmPSIjbGluZWFyR3JhZGllbnQ0MjI4IiBncmFkaWVudFVuaXRzPSJ1c2VyU3BhY2VPblVzZSIgZ3JhZGllbnRUcmFuc2Zvcm09Im1hdHJpeCgyLjU1NTEwOTQsMCwwLDIuMDIxNjg0MiwzLjIzNTI2ODYsMTkuMDI0Nzc1KSIvPiYjeGE7ICA8L2RlZnM+JiN4YTsgIDxnIGlkPSJsYXllcjEiIHN0eWxlPSJkaXNwbGF5OmlubGluZSIvPiYjeGE7ICA8ZyBpZD0ibGF5ZXIyIiBzdHlsZT0iZGlzcGxheTppbmxpbmUiPiYjeGE7ICAgIDxwYXRoIGQ9Im0gMTEuNTk5NjUzLDczLjYwMzgwNSAxLjk1MzY0MiwtMS4zOTk0NCA5Ni4wOTY4NzUsMC4xMjYzNTYgOC44NDY4MiwwLjY0MTQ3NyAwLDIxLjEwMzQxNSBjIDAsMi4yNzU1NDUgLTEuNTUwOTksMy43MjY2MzQgLTQuMDY3NCwzLjcyNjYzNCBsIC05OC41ODM3NTQsMCBjIC0yLjU1MTE4NywwIC00LjI0NjE4MywtMS4wOTU4NTUgLTQuMjQ2MTgzLC0zLjI4NDU1OCBsIDAsLTIwLjkxMzg4NCB6IiBpZD0icGF0aDQxNzAiIHN0eWxlPSJmaWxsOnVybCgjbGluZWFyR3JhZGllbnQxOTAwMyk7ZmlsbC1vcGFjaXR5OjE7ZmlsbC1ydWxlOmV2ZW5vZGQ7c3Ryb2tlOm5vbmUiLz4mI3hhOyAgICA8cGF0aCBkPSJtIDMxLjg0ODUzMyw0MC4xMzY3ODMgYyAtMS42MDc3MjYsMCAtMi42NTI3NDcsMC41NDMxIC0zLjI5NTgzNCwxLjU3OTE2NSAtMmUtNiwwIC0xNi42Mzk5NjgsMzIuMDEwOTggLTE2LjYzOTk2OCwzMi4wMTA5OCAwLDAgLTAuNjQzMDkxLDEuMjU2ODg4IC0wLjY0MzA5MSwzLjMzMzc4NCAwLDAgMCwxOC4wNjA4NTggMCwxOC4wNjA4NTggMCwyLjAyNjIxNiAxLjY5MjA2MywzLjA0MTM1IDQuMjYwNDc1LDMuMDQxMzQ3IGwgOTkuMTk2NzA1LDAgYyAyLjUzMzQxLDAgNC4wOTk3LC0xLjM0NDE0NiA0LjA5OTcsLTMuNDUwNzU5IGwgMCwtMTguMDYwODU4IGMgMCwwIDAuMjcyNTgsLTEuNDQxOTIyIC0wLjI0MTE2LC0yLjQ1NjQ3MiBMIDEwMS4zMDIzMSw0Mi4wMDgzODcgYyAtMC40NzQ2NywtMC45NTgwODMgLTEuNjM4MzU0LC0xLjg0OTMyMSAtMi44OTM5MTEsLTEuODcxNjA0IGwgLTY2LjU1OTg2NiwwIHoiIGlkPSJwYXRoNDE5NiIgc3R5bGU9ImZpbGw6bm9uZTtzdHJva2U6IzUzNTM1MztzdHJva2Utd2lkdGg6NC4zODgzNjA5ODtzdHJva2UtbGluZWNhcDpyb3VuZDtzdHJva2UtbGluZWpvaW46cm91bmQ7c3Ryb2tlLW1pdGVybGltaXQ6NDtzdHJva2Utb3BhY2l0eToxO3N0cm9rZS1kYXNoYXJyYXk6bm9uZSIvPiYjeGE7ICAgIDxnIHRyYW5zZm9ybT0ibWF0cml4KDAuMDYyNjcwMTksMCwwLDAuMDUzMzE4OTUsMTE5Ljk3OTYsOTAuNjE1NTk4KSIgaWQ9Imc2NzA3Ij4mI3hhOyAgICAgIDxyZWN0IHdpZHRoPSIxMzM5LjYzMzUiIGhlaWdodD0iNDc4LjM1NzE4IiB4PSItMTU1OS4yNTIzIiB5PSItMTUwLjY5Njg1IiBpZD0icmVjdDY3MDkiIHN0eWxlPSJvcGFjaXR5OjAuNDAyMDYxODU7ZmlsbDp1cmwoI2xpbmVhckdyYWRpZW50NjcxNSk7ZmlsbC1vcGFjaXR5OjE7ZmlsbC1ydWxlOm5vbnplcm87c3Ryb2tlOm5vbmU7c3Ryb2tlLXdpZHRoOjE7bWFya2VyOm5vbmU7dmlzaWJpbGl0eTp2aXNpYmxlO2Rpc3BsYXk6aW5saW5lO292ZXJmbG93OnZpc2libGUiLz4mI3hhOyAgICAgIDxwYXRoIGQ9Im0gLTIxOS42MTg3NiwtMTUwLjY4MDM4IGMgMCwwIDAsNDc4LjMzMDc5IDAsNDc4LjMzMDc5IDE0Mi44NzQxNjYsMC45MDA0NSAzNDUuNDAwMjIsLTEwNy4xNjk2NiAzNDUuNDAwMTQsLTIzOS4xOTYxNzUgMCwtMTMyLjAyNjUzNyAtMTU5LjQzNjgxNiwtMjM5LjEzNDU5NSAtMzQ1LjQwMDE0LC0yMzkuMTM0NjE1IHoiIGlkPSJwYXRoNjcxMSIgc3R5bGU9Im9wYWNpdHk6MC40MDIwNjE4NTtmaWxsOnVybCgjcmFkaWFsR3JhZGllbnQ2NzE3KTtmaWxsLW9wYWNpdHk6MTtmaWxsLXJ1bGU6bm9uemVybztzdHJva2U6bm9uZTtzdHJva2Utd2lkdGg6MTttYXJrZXI6bm9uZTt2aXNpYmlsaXR5OnZpc2libGU7ZGlzcGxheTppbmxpbmU7b3ZlcmZsb3c6dmlzaWJsZSIvPiYjeGE7ICAgICAgPHBhdGggZD0ibSAtMTU1OS4yNTIzLC0xNTAuNjgwMzggYyAwLDAgMCw0NzguMzMwNzkgMCw0NzguMzMwNzkgLTE0Mi44NzQyLDAuOTAwNDUgLTM0NS40MDAyLC0xMDcuMTY5NjYgLTM0NS40MDAyLC0yMzkuMTk2MTc1IDAsLTEzMi4wMjY1MzcgMTU5LjQzNjgsLTIzOS4xMzQ1OTUgMzQ1LjQwMDIsLTIzOS4xMzQ2MTUgeiIgaWQ9InBhdGg2NzEzIiBzdHlsZT0ib3BhY2l0eTowLjQwMjA2MTg1O2ZpbGw6dXJsKCNyYWRpYWxHcmFkaWVudDY3MTkpO2ZpbGwtb3BhY2l0eToxO2ZpbGwtcnVsZTpub256ZXJvO3N0cm9rZTpub25lO3N0cm9rZS13aWR0aDoxO21hcmtlcjpub25lO3Zpc2liaWxpdHk6dmlzaWJsZTtkaXNwbGF5OmlubGluZTtvdmVyZmxvdzp2aXNpYmxlIi8+JiN4YTsgICAgPC9nPiYjeGE7ICAgIDxwYXRoIGQ9Im0gMTMuOTI5NzQ2LDcwLjE5MDM1NyBjIC0xLjc2MzYyOSwyLjI1MTMwNiAtMC4wMDE1LDMuNjc4OTY1IDIuNTU3MjYxLDMuNjc4OTY1IDAsMCA5Ni4yOTQxNTMsMCA5Ni4yOTQxNTMsMCAyLjc2MzAxLC0wLjAzNjYxIDQuNTU2MDMsLTEuNTU1NzgxIDMuNTI3MjUsLTMuMjk0NTk4IEwgOTkuNzMwMjksNDQuMTEzNjQ3IGMgLTAuNDU1NiwtMC43ODcwNDUgLTEuNjE2NjUzLC0xLjUxOTE4MSAtMi44MjE4LC0xLjUzNzQ4NSBsIC02My44NDMzNzEsMCBjIC0xLjU0MzE3NywwIC0yLjU1NzI2MywwLjQ2NjczOCAtMy4xNzQ1MzEsMS4zMTc4NDQgMCwwIC0xNS45NjA4NDIsMjYuMjk2MzUxIC0xNS45NjA4NDIsMjYuMjk2MzUxIHoiIGlkPSJwYXRoMzA5MyIgc3R5bGU9ImZpbGw6dXJsKCNyYWRpYWxHcmFkaWVudDE5MDAwKTtmaWxsLW9wYWNpdHk6MTtmaWxsLXJ1bGU6ZXZlbm9kZDtzdHJva2U6bm9uZSIvPiYjeGE7ICAgIDxwYXRoIGQ9Im0gOC41NzM2Njk5LDI1LjU5MzU1NCBhIDEuMzcwMDE5NSwxLjAxNjQ2NiAwIDEgMSAtMi43NDAwMzg5LDAgMS4zNzAwMTk1LDEuMDE2NDY2IDAgMSAxIDIuNzQwMDM4OSwwIHoiIHRyYW5zZm9ybT0ibWF0cml4KDIuNTU1MTA5NCwwLDAsMi41NTUxMDk0LDcuNDYxMTEwNywtMS4zMDkxMjI5KSIgaWQ9InBhdGg0MjI0IiBzdHlsZT0iZmlsbDojZmZmZmZmO2ZpbGwtb3BhY2l0eTowLjQ1NzYyNzA2O2ZpbGwtcnVsZTpldmVub2RkO3N0cm9rZTpub25lO3N0cm9rZS13aWR0aDoyO21hcmtlcjpub25lO3Zpc2liaWxpdHk6dmlzaWJsZTtkaXNwbGF5OmlubGluZTtvdmVyZmxvdzp2aXNpYmxlIi8+JiN4YTsgICAgPHBhdGggZD0ibSA4LjU3MzY2OTksMjUuNTkzNTU0IGEgMS4zNzAwMTk1LDEuMDE2NDY2IDAgMSAxIC0yLjc0MDAzODksMCAxLjM3MDAxOTUsMS4wMTY0NjYgMCAxIDEgMi43NDAwMzg5LDAgeiIgdHJhbnNmb3JtPSJtYXRyaXgoMi41NTUxMDk0LDAsMCwyLjU1NTEwOTQsODYuMDI0Nzk3LC0xLjUzNDk2MzgpIiBpZD0icGF0aDQyMjYiIHN0eWxlPSJmaWxsOiNmZmZmZmY7ZmlsbC1vcGFjaXR5OjAuNDU3NjI3MDY7ZmlsbC1ydWxlOmV2ZW5vZGQ7c3Ryb2tlOm5vbmU7c3Ryb2tlLXdpZHRoOjI7bWFya2VyOm5vbmU7dmlzaWJpbGl0eTp2aXNpYmxlO2Rpc3BsYXk6aW5saW5lO292ZXJmbG93OnZpc2libGUiLz4mI3hhOyAgICA8cGF0aCBkPSJtIDMyLjg2MzYyNCw0MS43NjA4MDEgYyAtMS41NDMxMjgsMCAtMi41NDYxNiwwLjUxMDgwNiAtMy4xNjM0MDYsMS40ODUyNjQgLTNlLTYsMCAtMTYuNDUyMjU3LDMwLjMzNjA2NSAtMTYuNDUyMjU3LDMwLjMzNjA2NSAwLDAgLTAuNjE3MjUyLDEuMTgyMTQ5IC0wLjYxNzI1MiwzLjEzNTU0NiAwLDAgMCwxNi45ODY5MDEgMCwxNi45ODY5MDEgMCwyLjQ3NzEzNiAxLjEzODg0OCwyLjk3NDc3OCA0LjA4OTI5MSwyLjk3NDc3OCBsIDk2LjY1MzY1LDAgYyAzLjM5MzM2LDAgMy45MzQ5OSwtMC41Nzg1MzEgMy45MzQ5OSwtMy4zNTk4NDYgbCAwLC0xNi45ODY5MDEgYyAwLDAgMC4yNjE2MSwtMS4zNTYxNzkgLTAuMjMxNDcsLTIuMzEwNDAyIEwgMTAwLjE2Nzk1LDQzLjI5MjU1MiBjIC0wLjQ1NTU5MiwtMC45MDExMTMgLTEuNDEyMjI5LC0xLjUxMDc5NCAtMi42MTczNCwtMS41MzE3NTEgbCAtNjQuNjg2OTg2LDAgeiIgaWQ9InBhdGg0MjUyIiBzdHlsZT0iZmlsbDpub25lO3N0cm9rZTp1cmwoI2xpbmVhckdyYWRpZW50MTg5ODUpO3N0cm9rZS13aWR0aDoyLjE2NTUxMzk5O3N0cm9rZS1saW5lY2FwOnJvdW5kO3N0cm9rZS1saW5lam9pbjpyb3VuZDtzdHJva2UtbWl0ZXJsaW1pdDo0O3N0cm9rZS1vcGFjaXR5OjE7c3Ryb2tlLWRhc2hhcnJheTpub25lIi8+JiN4YTsgICAgPHBhdGggZD0ibSAxMDYuNzE3Miw3Ni41NDQxNTMgMCwxMi44MjkwMzgiIGlkPSJwYXRoNDI4MiIgc3R5bGU9ImZpbGw6bm9uZTtzdHJva2U6I2ZmZmZmZjtzdHJva2Utd2lkdGg6Mi41NTUxMTA2OXB4O3N0cm9rZS1saW5lY2FwOnNxdWFyZTtzdHJva2UtbGluZWpvaW46bWl0ZXI7c3Ryb2tlLW9wYWNpdHk6MC40MjM3Mjg4NSIvPiYjeGE7ICAgIDxwYXRoIGQ9Im0gMTAxLjYwNjk4LDc2LjY5Njg4OSAwLDEyLjgyOTAzOSIgaWQ9InBhdGg0Mjg0IiBzdHlsZT0iZmlsbDpub25lO3N0cm9rZTojZmZmZmZmO3N0cm9rZS13aWR0aDoyLjU1NTExMDY5cHg7c3Ryb2tlLWxpbmVjYXA6c3F1YXJlO3N0cm9rZS1saW5lam9pbjptaXRlcjtzdHJva2Utb3BhY2l0eTowLjQyMzcyODg1Ii8+JiN4YTsgICAgPHBhdGggZD0ibSA5Ni40OTY3NjIsNzYuNjk2ODg5IDAsMTIuODI5MDM5IiBpZD0icGF0aDQyODYiIHN0eWxlPSJmaWxsOm5vbmU7c3Ryb2tlOiNmZmZmZmY7c3Ryb2tlLXdpZHRoOjIuNTU1MTEwNjlweDtzdHJva2UtbGluZWNhcDpzcXVhcmU7c3Ryb2tlLWxpbmVqb2luOm1pdGVyO3N0cm9rZS1vcGFjaXR5OjAuNDIzNzI4ODUiLz4mI3hhOyAgICA8cGF0aCBkPSJtIDkxLjM4NjU0Myw3Ni42OTY4ODkgMCwxMi44MjkwMzkiIGlkPSJwYXRoNDI4OCIgc3R5bGU9ImZpbGw6bm9uZTtzdHJva2U6I2ZmZmZmZjtzdHJva2Utd2lkdGg6Mi41NTUxMTA2OXB4O3N0cm9rZS1saW5lY2FwOnNxdWFyZTtzdHJva2UtbGluZWpvaW46bWl0ZXI7c3Ryb2tlLW9wYWNpdHk6MC40MjM3Mjg4NSIvPiYjeGE7ICAgIDxwYXRoIGQ9Im0gODYuMjc2MzI0LDc2LjY5Njg4OSAwLDEyLjgyOTAzOSIgaWQ9InBhdGg0MjkwIiBzdHlsZT0iZmlsbDpub25lO3N0cm9rZTojZmZmZmZmO3N0cm9rZS13aWR0aDoyLjU1NTExMDY5cHg7c3Ryb2tlLWxpbmVjYXA6c3F1YXJlO3N0cm9rZS1saW5lam9pbjptaXRlcjtzdHJva2Utb3BhY2l0eTowLjQyMzcyODg1Ii8+JiN4YTsgICAgPHBhdGggZD0ibSA4MS4xNjYxMDUsNzYuNjk2ODg5IDAsMTIuODI5MDM5IiBpZD0icGF0aDQyOTIiIHN0eWxlPSJmaWxsOm5vbmU7c3Ryb2tlOiNmZmZmZmY7c3Ryb2tlLXdpZHRoOjIuNTU1MTEwNjlweDtzdHJva2UtbGluZWNhcDpzcXVhcmU7c3Ryb2tlLWxpbmVqb2luOm1pdGVyO3N0cm9rZS1vcGFjaXR5OjAuNDIzNzI4ODUiLz4mI3hhOyAgICA8cGF0aCBkPSJtIDEwNC4xNjIwOSw3Ni42NzE2NSAwLDEyLjgyOTAzOCIgaWQ9InBhdGg0Mjk0IiBzdHlsZT0ib3BhY2l0eTowLjA5NzE0Mjg0O2ZpbGw6bm9uZTtzdHJva2U6IzAwMDAwMDtzdHJva2Utd2lkdGg6Mi41NTUxMTA2OXB4O3N0cm9rZS1saW5lY2FwOnNxdWFyZTtzdHJva2UtbGluZWpvaW46bWl0ZXI7c3Ryb2tlLW9wYWNpdHk6MSIvPiYjeGE7ICAgIDxwYXRoIGQ9Im0gOTkuMDUxODcxLDc2LjgyNDM4NyAwLDEyLjgyOTAzOCIgaWQ9InBhdGg0Mjk2IiBzdHlsZT0ib3BhY2l0eTowLjA5NzE0Mjg0O2ZpbGw6bm9uZTtzdHJva2U6IzAwMDAwMDtzdHJva2Utd2lkdGg6Mi41NTUxMTA2OXB4O3N0cm9rZS1saW5lY2FwOnNxdWFyZTtzdHJva2UtbGluZWpvaW46bWl0ZXI7c3Ryb2tlLW9wYWNpdHk6MSIvPiYjeGE7ICAgIDxwYXRoIGQ9Im0gOTMuOTQxNjUyLDc2LjgyNDM4NyAwLDEyLjgyOTAzOCIgaWQ9InBhdGg0Mjk4IiBzdHlsZT0ib3BhY2l0eTowLjA5NzE0Mjg0O2ZpbGw6bm9uZTtzdHJva2U6IzAwMDAwMDtzdHJva2Utd2lkdGg6Mi41NTUxMTA2OXB4O3N0cm9rZS1saW5lY2FwOnNxdWFyZTtzdHJva2UtbGluZWpvaW46bWl0ZXI7c3Ryb2tlLW9wYWNpdHk6MSIvPiYjeGE7ICAgIDxwYXRoIGQ9Im0gODguODMxNDM0LDc2LjgyNDM4NyAwLDEyLjgyOTAzOCIgaWQ9InBhdGg0MzAwIiBzdHlsZT0ib3BhY2l0eTowLjA5NzE0Mjg0O2ZpbGw6bm9uZTtzdHJva2U6IzAwMDAwMDtzdHJva2Utd2lkdGg6Mi41NTUxMTA2OXB4O3N0cm9rZS1saW5lY2FwOnNxdWFyZTtzdHJva2UtbGluZWpvaW46bWl0ZXI7c3Ryb2tlLW9wYWNpdHk6MSIvPiYjeGE7ICAgIDxwYXRoIGQ9Im0gODMuNzIxMjE1LDc2LjgyNDM4NyAwLDEyLjgyOTAzOCIgaWQ9InBhdGg0MzAyIiBzdHlsZT0ib3BhY2l0eTowLjA5NzE0Mjg0O2ZpbGw6bm9uZTtzdHJva2U6IzAwMDAwMDtzdHJva2Utd2lkdGg6Mi41NTUxMTA2OXB4O3N0cm9rZS1saW5lY2FwOnNxdWFyZTtzdHJva2UtbGluZWpvaW46bWl0ZXI7c3Ryb2tlLW9wYWNpdHk6MSIvPiYjeGE7ICAgIDxnIHRyYW5zZm9ybT0idHJhbnNsYXRlKDY3Ljg0MDY1Niw4LjA2NzMzNjkpIiBpZD0iZzIyMDMxIiBzdHlsZT0iZGlzcGxheTppbmxpbmUiPiYjeGE7ICAgICAgPHJlY3Qgd2lkdGg9IjUuMDQyMzI3OSIgaGVpZ2h0PSIzLjU0MTQyODMiIHg9Ii00LjYyMjQyMzYiIHk9IjY5Ljk0NTU1NyIgaWQ9InJlY3QyMjAzMyIgc3R5bGU9ImZpbGw6IzJlMzQzNjtmaWxsLW9wYWNpdHk6MTtmaWxsLXJ1bGU6bm9uemVybztzdHJva2U6IzM2MzMzMztzdHJva2Utd2lkdGg6My43NjIzNDk2MTtzdHJva2UtbWl0ZXJsaW1pdDo0O3N0cm9rZS1vcGFjaXR5OjE7c3Ryb2tlLWRhc2hhcnJheTpub25lIi8+JiN4YTsgICAgICA8cmVjdCB3aWR0aD0iNS4wNDIzMjc5IiBoZWlnaHQ9IjMuNTQxNDI4MyIgeD0iLTQuNjIyNDIzNiIgeT0iNjkuOTQ1NTU3IiBpZD0icmVjdDIyMDM1IiBzdHlsZT0iZmlsbDojMmUzNDM2O2ZpbGwtb3BhY2l0eToxO2ZpbGwtcnVsZTpub256ZXJvO3N0cm9rZTojMzYzMzMzO3N0cm9rZS13aWR0aDozLjc2MjM0OTYxO3N0cm9rZS1taXRlcmxpbWl0OjQ7c3Ryb2tlLW9wYWNpdHk6MTtzdHJva2UtZGFzaGFycmF5Om5vbmUiLz4mI3hhOyAgICAgIDxyZWN0IHdpZHRoPSI3LjE4Mjg2NzEiIGhlaWdodD0iNS42ODE5Njc3IiB4PSItNS42OTI2OTI4IiB5PSI2OC44NzUyOSIgaWQ9InJlY3QyMjAzNyIgc3R5bGU9ImZpbGw6IzJlMzQzNjtmaWxsLW9wYWNpdHk6MTtmaWxsLXJ1bGU6bm9uemVybztzdHJva2U6I2ZmZmZmZjtzdHJva2Utd2lkdGg6MC40MjE0NTA1MztzdHJva2UtbWl0ZXJsaW1pdDo0O3N0cm9rZS1vcGFjaXR5OjE7c3Ryb2tlLWRhc2hhcnJheTpub25lIi8+JiN4YTsgICAgICA8cmVjdCB3aWR0aD0iNS4wNDIzMjc5IiBoZWlnaHQ9IjMuNTQxNDI4MyIgeD0iLTQuNjIyNDIzMiIgeT0iNzguMjAwNDkzIiBpZD0icmVjdDIyMDM5IiBzdHlsZT0iZmlsbDojMmUzNDM2O2ZpbGwtb3BhY2l0eToxO2ZpbGwtcnVsZTpub256ZXJvO3N0cm9rZTojMzYzMzMzO3N0cm9rZS13aWR0aDozLjc2MjM0OTYxO3N0cm9rZS1taXRlcmxpbWl0OjQ7c3Ryb2tlLW9wYWNpdHk6MTtzdHJva2UtZGFzaGFycmF5Om5vbmU7ZGlzcGxheTppbmxpbmUiLz4mI3hhOyAgICAgIDxyZWN0IHdpZHRoPSI1LjA0MjMyNzkiIGhlaWdodD0iMy41NDE0MjgzIiB4PSItNC42MjI0MjMyIiB5PSI3OC4yMDA0OTMiIGlkPSJyZWN0MjIwNDEiIHN0eWxlPSJmaWxsOiMyZTM0MzY7ZmlsbC1vcGFjaXR5OjE7ZmlsbC1ydWxlOm5vbnplcm87c3Ryb2tlOiMzNjMzMzM7c3Ryb2tlLXdpZHRoOjMuNzYyMzQ5NjE7c3Ryb2tlLW1pdGVybGltaXQ6NDtzdHJva2Utb3BhY2l0eToxO3N0cm9rZS1kYXNoYXJyYXk6bm9uZTtkaXNwbGF5OmlubGluZSIvPiYjeGE7ICAgICAgPHJlY3Qgd2lkdGg9IjcuMTgyODY3MSIgaGVpZ2h0PSI1LjY4MTk2NzciIHg9Ii01LjY5MjY5MjMiIHk9Ijc3LjEzMDIzNCIgaWQ9InJlY3QyMjA0MyIgc3R5bGU9ImZpbGw6IzJlMzQzNjtmaWxsLW9wYWNpdHk6MTtmaWxsLXJ1bGU6bm9uemVybztzdHJva2U6I2ZmZmZmZjtzdHJva2Utd2lkdGg6MC40MjE0NTA1MztzdHJva2UtbWl0ZXJsaW1pdDo0O3N0cm9rZS1vcGFjaXR5OjE7c3Ryb2tlLWRhc2hhcnJheTpub25lO2Rpc3BsYXk6aW5saW5lIi8+JiN4YTsgICAgPC9nPiYjeGE7ICAgIDxwYXRoIGQ9Im0gLTI1LjIxNTExMiw4Ni43MjUyNjYgYSAyLjI1MTM0OTIsMi4yNTEzNDkyIDAgMSAxIC00LjUwMjY5OCwwIDIuMjUxMzQ5MiwyLjI1MTM0OTIgMCAxIDEgNC41MDI2OTgsMCB6IiB0cmFuc2Zvcm09InRyYW5zbGF0ZSgxMDIuODg2NjUsLTguNDA1MDM3KSIgaWQ9InBhdGgyMjA0NSIgc3R5bGU9ImZpbGw6IzRlOWEwNjtmaWxsLW9wYWNpdHk6MTtmaWxsLXJ1bGU6bm9uemVybztzdHJva2U6I2ZmZmZmZjtzdHJva2Utd2lkdGg6MC40MDAwMDAwMTtzdHJva2UtbWl0ZXJsaW1pdDo0O3N0cm9rZS1vcGFjaXR5OjE7c3Ryb2tlLWRhc2hhcnJheTpub25lIi8+JiN4YTsgICAgPHBhdGggZD0ibSAtMjUuMjE1MTEyLDg2LjcyNTI2NiBhIDIuMjUxMzQ5MiwyLjI1MTM0OTIgMCAxIDEgLTQuNTAyNjk4LDAgMi4yNTEzNDkyLDIuMjUxMzQ5MiAwIDEgMSA0LjUwMjY5OCwwIHoiIHRyYW5zZm9ybT0idHJhbnNsYXRlKDEwMi44ODY2NSwtMy40NTIwNjkyKSIgaWQ9InBhdGgyMjA0OSIgc3R5bGU9ImZpbGw6I2E0MDAwMDtmaWxsLW9wYWNpdHk6MTtmaWxsLXJ1bGU6bm9uemVybztzdHJva2U6I2ZmZmZmZjtzdHJva2Utd2lkdGg6MC40MDAwMDAwMTtzdHJva2UtbWl0ZXJsaW1pdDo0O3N0cm9rZS1vcGFjaXR5OjE7c3Ryb2tlLWRhc2hhcnJheTpub25lO2Rpc3BsYXk6aW5saW5lIi8+JiN4YTsgICAgPHBhdGggZD0ibSAtMjUuMjE1MTEyLDg2LjcyNTI2NiBhIDIuMjUxMzQ5MiwyLjI1MTM0OTIgMCAxIDEgLTQuNTAyNjk4LDAgMi4yNTEzNDkyLDIuMjUxMzQ5MiAwIDEgMSA0LjUwMjY5OCwwIHoiIHRyYW5zZm9ybT0idHJhbnNsYXRlKDEwMi44ODY2NSwxLjY1MDk4ODEpIiBpZD0icGF0aDIyMDUxIiBzdHlsZT0iZmlsbDojNGU5YTA2O2ZpbGwtb3BhY2l0eToxO2ZpbGwtcnVsZTpub256ZXJvO3N0cm9rZTojZmZmZmZmO3N0cm9rZS13aWR0aDowLjQwMDAwMDAxO3N0cm9rZS1taXRlcmxpbWl0OjQ7c3Ryb2tlLW9wYWNpdHk6MTtzdHJva2UtZGFzaGFycmF5Om5vbmU7ZGlzcGxheTppbmxpbmUiLz4mI3hhOyAgPC9nPiYjeGE7PC9zdmc+;noLabel=0;imageBorder=none;imageBackground=none;sketch=0;" parent="1" vertex="1">
            <mxGeometry x="270" y="-610" width="80" height="80" as="geometry" />
          </mxCell>
        </object>
        <object label="Name: GL-P-AP-02&#xa;IP:192.168.99.4/24" Name="GL-P-AP-02" Brand="TP-Link" Model="TL-WDR3600" Ports="1 + 4" OS="OpenWRT" Location="Livingroom" OSVersion="19.07" id="YRLlY--aoW11vG_20f-W-5">
          <mxCell style="shape=image;verticalLabelPosition=bottom;labelBackgroundColor=default;verticalAlign=top;aspect=fixed;imageAspect=0;image=data:image/svg+xml,PHN2ZyB4bWxuczpzdmc9Imh0dHA6Ly93d3cudzMub3JnLzIwMDAvc3ZnIiB4bWxucz0iaHR0cDovL3d3dy53My5vcmcvMjAwMC9zdmciIHhtbG5zOnhsaW5rPSJodHRwOi8vd3d3LnczLm9yZy8xOTk5L3hsaW5rIiB2ZXJzaW9uPSIxLjAiIHdpZHRoPSIxMjgiIGhlaWdodD0iMTI4IiBpZD0ic3ZnMiIgdmlld0JveD0iMCAwIDEyOCAxMjgiPiYjeGE7ICA8ZGVmcyBpZD0iZGVmczMiPiYjeGE7ICAgIDxsaW5lYXJHcmFkaWVudCBpZD0ibGluZWFyR3JhZGllbnQ0NDY5Ij4mI3hhOyAgICAgIDxzdG9wIGlkPSJzdG9wNDQ3MSIgc3R5bGU9InN0b3AtY29sb3I6IzdhN2Q3NztzdG9wLW9wYWNpdHk6MSIgb2Zmc2V0PSIwIi8+JiN4YTsgICAgICA8c3RvcCBpZD0ic3RvcDQ0NzMiIHN0eWxlPSJzdG9wLWNvbG9yOiMzYzNkM2E7c3RvcC1vcGFjaXR5OjEiIG9mZnNldD0iMSIvPiYjeGE7ICAgIDwvbGluZWFyR3JhZGllbnQ+JiN4YTsgICAgPGxpbmVhckdyYWRpZW50IGlkPSJsaW5lYXJHcmFkaWVudDQ0NjAiPiYjeGE7ICAgICAgPHN0b3AgaWQ9InN0b3A0NDYyIiBzdHlsZT0ic3RvcC1jb2xvcjojMjA0YTg3O3N0b3Atb3BhY2l0eToxIiBvZmZzZXQ9IjAiLz4mI3hhOyAgICAgIDxzdG9wIGlkPSJzdG9wNDQ2NCIgc3R5bGU9InN0b3AtY29sb3I6IzIwNGE4NztzdG9wLW9wYWNpdHk6MCIgb2Zmc2V0PSIxIi8+JiN4YTsgICAgPC9saW5lYXJHcmFkaWVudD4mI3hhOyAgICA8bGluZWFyR3JhZGllbnQgaWQ9ImxpbmVhckdyYWRpZW50NDQ1NCI+JiN4YTsgICAgICA8c3RvcCBpZD0ic3RvcDQ0NTYiIHN0eWxlPSJzdG9wLWNvbG9yOiM2OTk2ZDA7c3RvcC1vcGFjaXR5OjEiIG9mZnNldD0iMCIvPiYjeGE7ICAgICAgPHN0b3AgaWQ9InN0b3A0NDU4IiBzdHlsZT0ic3RvcC1jb2xvcjojMzQ2NWE0O3N0b3Atb3BhY2l0eToxIiBvZmZzZXQ9IjEiLz4mI3hhOyAgICA8L2xpbmVhckdyYWRpZW50PiYjeGE7ICAgIDxsaW5lYXJHcmFkaWVudCBpZD0ibGluZWFyR3JhZGllbnQ0OTAyIj4mI3hhOyAgICAgIDxzdG9wIGlkPSJzdG9wMzU1MiIgc3R5bGU9InN0b3AtY29sb3I6I2VlZWVlYztzdG9wLW9wYWNpdHk6MSIgb2Zmc2V0PSIwIi8+JiN4YTsgICAgICA8c3RvcCBpZD0ic3RvcDQ5MDYiIHN0eWxlPSJzdG9wLWNvbG9yOiNlZWVlZWM7c3RvcC1vcGFjaXR5OjAiIG9mZnNldD0iMSIvPiYjeGE7ICAgIDwvbGluZWFyR3JhZGllbnQ+JiN4YTsgICAgPGZpbHRlciB4PSItMC4wNDE3OTQ1MjciIHk9Ii0wLjY3MTEwMDc0IiB3aWR0aD0iMS4wODM1ODkxIiBoZWlnaHQ9IjIuMzQyMjAxNSIgY29sb3ItaW50ZXJwb2xhdGlvbi1maWx0ZXJzPSJzUkdCIiBpZD0iZmlsdGVyNDUwNCI+JiN4YTsgICAgICA8ZmVHYXVzc2lhbkJsdXIgc3RkRGV2aWF0aW9uPSIwLjc3NDU1OTc1IiBpZD0iZmVHYXVzc2lhbkJsdXI0NTA2Ii8+JiN4YTsgICAgPC9maWx0ZXI+JiN4YTsgICAgPGxpbmVhckdyYWRpZW50IHgxPSIzIiB5MT0iMTcuNzI0NDI2IiB4Mj0iNCIgeTI9IjE3LjcyNDQyNiIgaWQ9ImxpbmVhckdyYWRpZW50Mzg3OSIgeGxpbms6aHJlZj0iI2xpbmVhckdyYWRpZW50NDkwMiIgZ3JhZGllbnRVbml0cz0idXNlclNwYWNlT25Vc2UiIGdyYWRpZW50VHJhbnNmb3JtPSJtYXRyaXgoMC42NTc0ODMxLDAsMCwwLjg1MTkxMiw4LjM4NzM2MzEsLTMuMTU4MjM2KSIvPiYjeGE7ICAgIDxsaW5lYXJHcmFkaWVudCB4MT0iMyIgeTE9IjE3LjcyNDQyNiIgeDI9IjQiIHkyPSIxNy43MjQ0MjYiIGlkPSJsaW5lYXJHcmFkaWVudDM5MDMiIHhsaW5rOmhyZWY9IiNsaW5lYXJHcmFkaWVudDQ5MDIiIGdyYWRpZW50VW5pdHM9InVzZXJTcGFjZU9uVXNlIiBncmFkaWVudFRyYW5zZm9ybT0ibWF0cml4KDAuNjU3NDgzMSwwLDAsMC44NTE5MTIsOC4zODczNjMxLC0zLjE1ODIzNikiLz4mI3hhOyAgICA8bGluZWFyR3JhZGllbnQgeDE9IjI4LjY1MDUzIiB5MT0iMzUuMzY3NjY4IiB4Mj0iMC4zODk0NDc5NiIgeTI9IjM1LjI4ODUyOCIgaWQ9ImxpbmVhckdyYWRpZW50MzkxNSIgeGxpbms6aHJlZj0iI2xpbmVhckdyYWRpZW50NDQ2MCIgZ3JhZGllbnRVbml0cz0idXNlclNwYWNlT25Vc2UiIGdyYWRpZW50VHJhbnNmb3JtPSJtYXRyaXgoMi4zNjU2MDk2LDAsMCwyLjg4MjE3NTMsNy43Njc3MDg1LC0xNS4wNDY0MjIpIi8+JiN4YTsgICAgPGxpbmVhckdyYWRpZW50IHgxPSI4LjE1OTAwNTIiIHkxPSIzMy4yOTI3NDQiIHgyPSIyNi4yOTM0ODgiIHkyPSIzMy4wNTUzMTciIGlkPSJsaW5lYXJHcmFkaWVudDM5MzciIHhsaW5rOmhyZWY9IiNsaW5lYXJHcmFkaWVudDQ0NTQiIGdyYWRpZW50VW5pdHM9InVzZXJTcGFjZU9uVXNlIiBncmFkaWVudFRyYW5zZm9ybT0ibWF0cml4KDIuMzY1NjA5NiwwLDAsMi44ODIxNzUzLDcuNzY3NzA4NSwtMTUuMDQ2NDIyKSIvPiYjeGE7ICAgIDxsaW5lYXJHcmFkaWVudCB4MT0iLTEwLjU5Nzc5NSIgeTE9IjIxLjg3NjM3NSIgeDI9IjI2LjczNTI1NCIgeTI9IjI4Ljc2MTc4NCIgaWQ9ImxpbmVhckdyYWRpZW50Mzk1MiIgeGxpbms6aHJlZj0iI2xpbmVhckdyYWRpZW50NDQ2OSIgZ3JhZGllbnRVbml0cz0idXNlclNwYWNlT25Vc2UiIGdyYWRpZW50VHJhbnNmb3JtPSJtYXRyaXgoMi4zNjU2MDk2LDAsMCwyLjg4MjE3NTMsNy43Njc3MDg1LC05LjI5MTMyMDMpIi8+JiN4YTsgIDwvZGVmcz4mI3hhOyAgPGcgaWQ9ImxheWVyMSI+JiN4YTsgICAgPHBhdGggZD0iIiB0cmFuc2Zvcm09InRyYW5zbGF0ZSgtMjc3Ljg1NzEsLTMzLjA3ODk3KSIgaWQ9InBhdGg1NDczIiBzdHlsZT0iZmlsbDojZDNkM2QzO2ZpbGwtb3BhY2l0eToxO2ZpbGwtcnVsZTpldmVub2RkO3N0cm9rZTojYmFiYWJhO3N0cm9rZS13aWR0aDowLjk5OTk5OTk0O3N0cm9rZS1saW5lY2FwOmJ1dHQ7c3Ryb2tlLWxpbmVqb2luOm1pdGVyO3N0cm9rZS1taXRlcmxpbWl0OjQ7c3Ryb2tlLW9wYWNpdHk6MTtzdHJva2UtZGFzaGFycmF5Om5vbmU7c3Ryb2tlLWRhc2hvZmZzZXQ6MDttYXJrZXI6bm9uZTt2aXNpYmlsaXR5OnZpc2libGU7ZGlzcGxheTppbmxpbmU7b3ZlcmZsb3c6dmlzaWJsZSIvPiYjeGE7ICAgIDxwYXRoIGQ9IiIgdHJhbnNmb3JtPSJ0cmFuc2xhdGUoLTMyOS45NTQyNSwtMzkuODM2MzYxKSIgaWQ9InBhdGg1NTg5IiBzdHlsZT0iZmlsbDojZDNkM2QzO2ZpbGwtb3BhY2l0eToxO2ZpbGwtcnVsZTpldmVub2RkO3N0cm9rZTojYmFiYWJhO3N0cm9rZS13aWR0aDowLjk5OTk5OTk0O3N0cm9rZS1saW5lY2FwOmJ1dHQ7c3Ryb2tlLWxpbmVqb2luOm1pdGVyO3N0cm9rZS1taXRlcmxpbWl0OjQ7c3Ryb2tlLW9wYWNpdHk6MTtzdHJva2UtZGFzaGFycmF5Om5vbmU7c3Ryb2tlLWRhc2hvZmZzZXQ6MDttYXJrZXI6bm9uZTt2aXNpYmlsaXR5OnZpc2libGU7ZGlzcGxheTppbmxpbmU7b3ZlcmZsb3c6dmlzaWJsZSIvPiYjeGE7ICAgIDxwYXRoIGQ9IiIgdHJhbnNmb3JtPSJ0cmFuc2xhdGUoLTM0MC42MzUxNSwtOTEuNjgzNjA3KSIgaWQ9InBhdGg0MTIyIiBzdHlsZT0iZmlsbDojZDNkM2QzO2ZpbGwtb3BhY2l0eToxO2ZpbGwtcnVsZTpldmVub2RkO3N0cm9rZTojYmFiYWJhO3N0cm9rZS13aWR0aDowLjk5OTk5OTk0O3N0cm9rZS1saW5lY2FwOmJ1dHQ7c3Ryb2tlLWxpbmVqb2luOm1pdGVyO3N0cm9rZS1taXRlcmxpbWl0OjQ7c3Ryb2tlLW9wYWNpdHk6MTtzdHJva2UtZGFzaGFycmF5Om5vbmU7c3Ryb2tlLWRhc2hvZmZzZXQ6MDttYXJrZXI6bm9uZTt2aXNpYmlsaXR5OnZpc2libGU7ZGlzcGxheTppbmxpbmU7b3ZlcmZsb3c6dmlzaWJsZSIvPiYjeGE7ICAgIDxwYXRoIGQ9IiIgdHJhbnNmb3JtPSJ0cmFuc2xhdGUoLTM5NS4xNzAzNywtMTAzLjcwNDU1KSIgaWQ9InBhdGgzNjI2IiBzdHlsZT0iZmlsbDojZDNkM2QzO2ZpbGwtb3BhY2l0eToxO2ZpbGwtcnVsZTpldmVub2RkO3N0cm9rZTojYmFiYWJhO3N0cm9rZS13aWR0aDowLjk5OTk5OTk0O3N0cm9rZS1saW5lY2FwOmJ1dHQ7c3Ryb2tlLWxpbmVqb2luOm1pdGVyO3N0cm9rZS1taXRlcmxpbWl0OjQ7c3Ryb2tlLW9wYWNpdHk6MTtzdHJva2UtZGFzaGFycmF5Om5vbmU7c3Ryb2tlLWRhc2hvZmZzZXQ6MDttYXJrZXI6bm9uZTt2aXNpYmlsaXR5OnZpc2libGU7ZGlzcGxheTppbmxpbmU7b3ZlcmZsb3c6dmlzaWJsZSIvPiYjeGE7ICAgIDxwYXRoIGQ9IiIgdHJhbnNmb3JtPSJ0cmFuc2xhdGUoLTI4NC4zMTgzNSwyNS45MjA5MzcpIiBpZD0icGF0aDQwMDkiIHN0eWxlPSJmaWxsOiNkM2QzZDM7ZmlsbC1vcGFjaXR5OjE7ZmlsbC1ydWxlOmV2ZW5vZGQ7c3Ryb2tlOiNiYWJhYmE7c3Ryb2tlLXdpZHRoOjAuOTk5OTk5OTQ7c3Ryb2tlLWxpbmVjYXA6YnV0dDtzdHJva2UtbGluZWpvaW46bWl0ZXI7c3Ryb2tlLW1pdGVybGltaXQ6NDtzdHJva2Utb3BhY2l0eToxO3N0cm9rZS1kYXNoYXJyYXk6bm9uZTtzdHJva2UtZGFzaG9mZnNldDowO21hcmtlcjpub25lO3Zpc2liaWxpdHk6dmlzaWJsZTtkaXNwbGF5OmlubGluZTtvdmVyZmxvdzp2aXNpYmxlIi8+JiN4YTsgICAgPHBhdGggZD0iIiB0cmFuc2Zvcm09InRyYW5zbGF0ZSgtMjg0LjY4MzE1LDMuNjAyMzY4KSIgaWQ9InBhdGg1NzY0IiBzdHlsZT0iZmlsbDojZDNkM2QzO2ZpbGwtb3BhY2l0eToxO2ZpbGwtcnVsZTpldmVub2RkO3N0cm9rZTojYmFiYWJhO3N0cm9rZS13aWR0aDowLjk5OTk5OTk0O3N0cm9rZS1saW5lY2FwOmJ1dHQ7c3Ryb2tlLWxpbmVqb2luOm1pdGVyO3N0cm9rZS1taXRlcmxpbWl0OjQ7c3Ryb2tlLW9wYWNpdHk6MTtzdHJva2UtZGFzaGFycmF5Om5vbmU7c3Ryb2tlLWRhc2hvZmZzZXQ6MDttYXJrZXI6bm9uZTt2aXNpYmlsaXR5OnZpc2libGU7ZGlzcGxheTppbmxpbmU7b3ZlcmZsb3c6dmlzaWJsZSIvPiYjeGE7ICAgIDxwYXRoIGQ9IiIgdHJhbnNmb3JtPSJ0cmFuc2xhdGUoLTMzNi43ODAzLC0zLjE1NTAyMykiIGlkPSJwYXRoNTc3NCIgc3R5bGU9ImZpbGw6I2QzZDNkMztmaWxsLW9wYWNpdHk6MTtmaWxsLXJ1bGU6ZXZlbm9kZDtzdHJva2U6I2JhYmFiYTtzdHJva2Utd2lkdGg6MC45OTk5OTk5NDtzdHJva2UtbGluZWNhcDpidXR0O3N0cm9rZS1saW5lam9pbjptaXRlcjtzdHJva2UtbWl0ZXJsaW1pdDo0O3N0cm9rZS1vcGFjaXR5OjE7c3Ryb2tlLWRhc2hhcnJheTpub25lO3N0cm9rZS1kYXNob2Zmc2V0OjA7bWFya2VyOm5vbmU7dmlzaWJpbGl0eTp2aXNpYmxlO2Rpc3BsYXk6aW5saW5lO292ZXJmbG93OnZpc2libGUiLz4mI3hhOyAgICA8cGF0aCBkPSIiIHRyYW5zZm9ybT0idHJhbnNsYXRlKC0zNDcuNDYxMiwtNTUuMDAyMjY5KSIgaWQ9InBhdGg1Nzc2IiBzdHlsZT0iZmlsbDojZDNkM2QzO2ZpbGwtb3BhY2l0eToxO2ZpbGwtcnVsZTpldmVub2RkO3N0cm9rZTojYmFiYWJhO3N0cm9rZS13aWR0aDowLjk5OTk5OTk0O3N0cm9rZS1saW5lY2FwOmJ1dHQ7c3Ryb2tlLWxpbmVqb2luOm1pdGVyO3N0cm9rZS1taXRlcmxpbWl0OjQ7c3Ryb2tlLW9wYWNpdHk6MTtzdHJva2UtZGFzaGFycmF5Om5vbmU7c3Ryb2tlLWRhc2hvZmZzZXQ6MDttYXJrZXI6bm9uZTt2aXNpYmlsaXR5OnZpc2libGU7ZGlzcGxheTppbmxpbmU7b3ZlcmZsb3c6dmlzaWJsZSIvPiYjeGE7ICAgIDxwYXRoIGQ9IiIgdHJhbnNmb3JtPSJ0cmFuc2xhdGUoLTQwMS45OTY0MiwtNjcuMDIzMjEyKSIgaWQ9InBhdGg1Nzc4IiBzdHlsZT0iZmlsbDojZDNkM2QzO2ZpbGwtb3BhY2l0eToxO2ZpbGwtcnVsZTpldmVub2RkO3N0cm9rZTojYmFiYWJhO3N0cm9rZS13aWR0aDowLjk5OTk5OTk0O3N0cm9rZS1saW5lY2FwOmJ1dHQ7c3Ryb2tlLWxpbmVqb2luOm1pdGVyO3N0cm9rZS1taXRlcmxpbWl0OjQ7c3Ryb2tlLW9wYWNpdHk6MTtzdHJva2UtZGFzaGFycmF5Om5vbmU7c3Ryb2tlLWRhc2hvZmZzZXQ6MDttYXJrZXI6bm9uZTt2aXNpYmlsaXR5OnZpc2libGU7ZGlzcGxheTppbmxpbmU7b3ZlcmZsb3c6dmlzaWJsZSIvPiYjeGE7ICAgIDxwYXRoIGQ9IiIgdHJhbnNmb3JtPSJ0cmFuc2xhdGUoLTI5MS4xNDQ0LDYyLjYwMjI3NSkiIGlkPSJwYXRoNTc4MCIgc3R5bGU9ImZpbGw6I2QzZDNkMztmaWxsLW9wYWNpdHk6MTtmaWxsLXJ1bGU6ZXZlbm9kZDtzdHJva2U6I2JhYmFiYTtzdHJva2Utd2lkdGg6MC45OTk5OTk5NDtzdHJva2UtbGluZWNhcDpidXR0O3N0cm9rZS1saW5lam9pbjptaXRlcjtzdHJva2UtbWl0ZXJsaW1pdDo0O3N0cm9rZS1vcGFjaXR5OjE7c3Ryb2tlLWRhc2hhcnJheTpub25lO3N0cm9rZS1kYXNob2Zmc2V0OjA7bWFya2VyOm5vbmU7dmlzaWJpbGl0eTp2aXNpYmxlO2Rpc3BsYXk6aW5saW5lO292ZXJmbG93OnZpc2libGUiLz4mI3hhOyAgICA8ZyBpZD0iZzM5NjMiPiYjeGE7ICAgICAgPHBhdGggZD0ibSA0Ni40NTY3MTgsNDAuMjgzNTk2IGMgMC4wMDI5LDAuNzY1MDM4IC05Ljk1NDc1NiwxLjM4NTMxOCAtMjIuMjM5MDc2LDEuMzg1MzE4IC0xMi4yODQzMjEsMCAtMjIuMjQxOTMwMywtMC42MjAyOCAtMjIuMjM5MDc2OCwtMS4zODUzMTggLTAuMDAyODUsLTAuNzY1MDM4IDkuOTU0NzU1OCwtMS4zODUzMTggMjIuMjM5MDc2OCwtMS4zODUzMTggMTIuMjg0MzIsMCAyMi4yNDE5MywwLjYyMDI4IDIyLjIzOTA3NiwxLjM4NTMxOCB6IiB0cmFuc2Zvcm09Im1hdHJpeCgyLjM0MTMxODYsMCwwLDYuMjQyOTk1NSw3LjgxNTc3MDYsLTE1MS4yNDk3MSkiIGlkPSJwYXRoNDQ3MCIgc3R5bGU9Im9wYWNpdHk6MC4zODkzNDQyMjtmaWxsOiMwMDAwMDA7ZmlsbC1vcGFjaXR5OjE7ZmlsbC1ydWxlOmV2ZW5vZGQ7c3Ryb2tlOm5vbmU7ZmlsdGVyOnVybCgjZmlsdGVyNDUwNCkiLz4mI3hhOyAgICAgIDxyZWN0IHdpZHRoPSIxOC45NzUyMzMiIGhlaWdodD0iNy41MjUzNTkyIiB4PSI5MS42NjIzNjEiIHk9Ijk0LjM3MzMwNiIgaWQ9InJlY3Q0NDY4IiBzdHlsZT0iZmlsbDojMzQ2NWE0O2ZpbGwtb3BhY2l0eToxO2ZpbGwtcnVsZTpldmVub2RkO3N0cm9rZTojMTczNjYzO3N0cm9rZS13aWR0aDoyLjQyNDYzODc1cHg7c3Ryb2tlLWxpbmVjYXA6YnV0dDtzdHJva2UtbGluZWpvaW46cm91bmQ7c3Ryb2tlLW9wYWNpdHk6MSIvPiYjeGE7ICAgICAgPHJlY3Qgd2lkdGg9IjE4Ljk3NTIzMyIgaGVpZ2h0PSI3LjUyNTM1OTIiIHg9IjE4LjMyODQ2NiIgeT0iOTQuMjU5MjQ3IiBpZD0icmVjdDM1MjIiIHN0eWxlPSJmaWxsOiMzNDY1YTQ7ZmlsbC1vcGFjaXR5OjE7ZmlsbC1ydWxlOmV2ZW5vZGQ7c3Ryb2tlOiMxNzM2NjM7c3Ryb2tlLXdpZHRoOjIuNDI0NjM4NzVweDtzdHJva2UtbGluZWNhcDpidXR0O3N0cm9rZS1saW5lam9pbjpyb3VuZDtzdHJva2Utb3BhY2l0eToxIi8+JiN4YTsgICAgICA8ZyB0cmFuc2Zvcm09Im1hdHJpeCgyLjQwNTYzODgsMCwwLDIuODQ1MzY2NSw2OC45MTMyOTUsMy4yNzc0MzEyKSIgaWQ9ImczNTEyIj4mI3hhOyAgICAgICAgPHBhdGggZD0ibSAxMC40NjA0NCwzLjk2NTgwMDkgMCw5LjA0ODI1MzEgLTAuOTYwNDI4OSwzLjA3OTE0MiAwLDkuODk3OTE3IGMgMCwwIC0wLjAwODI2LDEuNDkxMzU2IDAuNDI2Nzg5LDEuNDkxMzU2IDAuNTYyMTc4OSwwLjAwNTcgMS40NjAxMzE5LDAuMDExMzkgMi4wMjIzMDk5LDAuMDE3MDggMC4zNzYwNSwwLjAyMDI0IDAuNDk2MjkyLC0wLjY0NDY0NSAwLjQ4MDYwNSwtMS41MTk4MDIgbCAwLjAwMzcsLTkuOTI2MTIzIC0wLjk2MDQyOSwtMyBjIDAsLTUuNjgwNTUzIDAsLTEyLjIwMzg4Nzc1IDAsLTkuMDQ4MjUyOCAtMC4yODkxNjUsLTAuNjI3NjcyIC0wLjczODAxOSwtMC42MjU2MDQgLTEuMDEyNTcyLC0wLjAzOTU3MSB6IiBpZD0icGF0aDM1MTQiIHN0eWxlPSJmaWxsOiMwMDAwMDA7ZmlsbC1vcGFjaXR5OjE7ZmlsbC1ydWxlOmV2ZW5vZGQ7c3Ryb2tlOiMwMDAwMDA7c3Ryb2tlLXdpZHRoOjFweDtzdHJva2UtbGluZWNhcDpidXR0O3N0cm9rZS1saW5lam9pbjpyb3VuZDtzdHJva2Utb3BhY2l0eToxIi8+JiN4YTsgICAgICAgIDxwYXRoIGQ9Im0gMTAuNDY3OTkyLDQuMjE2ODk0NSBjIC0wLjAzNTcsLTAuNTgwNjc2IDAuNTE5Mzg2LC0wLjg4OTkyNSAwLjU0OTMwNCwwIDAuMDA2Nyw2LjgzMjc5NDUgLTAuMDU1OTYsMjIuNzIyNDY4NSAtMC4wNTU5NiwyMi43MjI0Njg1IC0wLjI2ODQyNywwIC0wLjQzMDc4NCwwIC0wLjY5OTIxMSwwIC0wLjQ2OTI5NDksLTAuMjA4MDk5IC0wLjMwMjkyODksLTAuNDQ1MTAxIC0wLjMxNjM5NjksLTEuMjI5ODI0IC0wLjAzNTQyOSwtMi4wNjQxNjYgMCwtOS42MjU2MTEgMCwtOS42MjU2MTEgbCAwLjU1MDI0NjksLTIuMTc2OTk5IGMgMCwwIC0wLjA5MzE2LC01LjU3MzMwNTUgLTAuMDI3OTgsLTkuNjkwMDM0NSB6IiBpZD0icGF0aDM1MTYiIHN0eWxlPSJvcGFjaXR5OjAuNTtmaWxsOnVybCgjbGluZWFyR3JhZGllbnQzODc5KTtmaWxsLW9wYWNpdHk6MTtmaWxsLXJ1bGU6ZXZlbm9kZDtzdHJva2U6bm9uZTtzdHJva2Utd2lkdGg6MC45OTkwMDAwMTttYXJrZXI6bm9uZTt2aXNpYmlsaXR5OnZpc2libGU7ZGlzcGxheTppbmxpbmU7b3ZlcmZsb3c6dmlzaWJsZTtlbmFibGUtYmFja2dyb3VuZDphY2N1bXVsYXRlIi8+JiN4YTsgICAgICA8L2c+JiN4YTsgICAgICA8ZyB0cmFuc2Zvcm09Im1hdHJpeCgyLjQwNTYzODgsMCwwLDIuODQ1MzY2NSw3LjQwNzQ0NzUsMy4yNzc0MzEyKSIgaWQ9ImczNTA4Ij4mI3hhOyAgICAgICAgPHBhdGggZD0ibSAxMC40NjA0NCwzLjk2NTgwMDkgMCw5LjA0ODI1MzEgLTAuOTYwNDI4OSwzLjA3OTE0MiAwLDkuODk3OTE3IGMgMCwwIC0wLjAwODI2LDEuNDkxMzU2IDAuNDI2Nzg5LDEuNDkxMzU2IDAuNTYyMTc4OSwwLjAwNTcgMS40NjAxMzE5LDAuMDExMzkgMi4wMjIzMDk5LDAuMDE3MDggMC4zNzYwNSwwLjAyMDI0IDAuNDk2MjkyLC0wLjY0NDY0NSAwLjQ4MDYwNSwtMS41MTk4MDIgbCAwLjAwMzcsLTkuOTI2MTIzIC0wLjk2MDQyOSwtMyBjIDAsLTUuNjgwNTUzIDAsLTEyLjIwMzg4Nzc1IDAsLTkuMDQ4MjUyOCAtMC4yODkxNjUsLTAuNjI3NjcyIC0wLjczODAxOSwtMC42MjU2MDQgLTEuMDEyNTcyLC0wLjAzOTU3MSB6IiBpZD0icGF0aDM0ODQiIHN0eWxlPSJmaWxsOiMwMDAwMDA7ZmlsbC1vcGFjaXR5OjE7ZmlsbC1ydWxlOmV2ZW5vZGQ7c3Ryb2tlOiMwMDAwMDA7c3Ryb2tlLXdpZHRoOjFweDtzdHJva2UtbGluZWNhcDpidXR0O3N0cm9rZS1saW5lam9pbjpyb3VuZDtzdHJva2Utb3BhY2l0eToxIi8+JiN4YTsgICAgICAgIDxwYXRoIGQ9Im0gMTAuNDY3OTkyLDQuMjE2ODk0NSBjIC0wLjAzNTcsLTAuNTgwNjc2IDAuNTE5Mzg2LC0wLjg4OTkyNSAwLjU0OTMwNCwwIDAuMDA2Nyw2LjgzMjc5NDUgLTAuMDU1OTYsMjIuNzIyNDY4NSAtMC4wNTU5NiwyMi43MjI0Njg1IC0wLjI2ODQyNywwIC0wLjQzMDc4NCwwIC0wLjY5OTIxMSwwIC0wLjQ2OTI5NDksLTAuMjA4MDk5IC0wLjMwMjkyODksLTAuNDQ1MTAxIC0wLjMxNjM5NjksLTEuMjI5ODI0IC0wLjAzNTQyOSwtMi4wNjQxNjYgMCwtOS42MjU2MTEgMCwtOS42MjU2MTEgbCAwLjU1MDI0NjksLTIuMTc2OTk5IGMgMCwwIC0wLjA5MzE2LC01LjU3MzMwNTUgLTAuMDI3OTgsLTkuNjkwMDM0NSB6IiBpZD0icGF0aDM0ODYiIHN0eWxlPSJvcGFjaXR5OjAuNTtmaWxsOnVybCgjbGluZWFyR3JhZGllbnQzOTAzKTtmaWxsLW9wYWNpdHk6MTtmaWxsLXJ1bGU6ZXZlbm9kZDtzdHJva2U6bm9uZTtzdHJva2Utd2lkdGg6MC45OTkwMDAwMTttYXJrZXI6bm9uZTt2aXNpYmlsaXR5OnZpc2libGU7ZGlzcGxheTppbmxpbmU7b3ZlcmZsb3c6dmlzaWJsZTtlbmFibGUtYmFja2dyb3VuZDphY2N1bXVsYXRlIi8+JiN4YTsgICAgICA8L2c+JiN4YTsgICAgICA8cGF0aCBkPSJtIDY0LjU4OTE0Myw1Mi41ODQyMzEgYyAxMS40MzA5NDQsMC4xNjQ3MSAyOC42ODUxODgsMS45NTk4ODggNDEuNzQxNjg3LDUuNDQxMDE5IGwgOC44MDY2MiwxNC44NDk3OTUgMCwyMC4xODI5MDggYyAwLDEuNDg2OTg5IC0xLjAzMDQ5LDIuNjg0MDk1IC0yLjMxMDUyLDIuNjg0MDk1IDAsMCAtMjQuMDc2Mzc0LDMuMzA2NTEyIC00OC4yNjk5OTEsMy4yMjU4NjYgLTI0LjE5MzYxNiwtMC4wODA2NSAtNDguNTA0NDc4LC0zLjU0ODQ1MSAtNDguNTA0NDc4LC0zLjU0ODQ1MSAtMS4yODAwMjYsMCAtMi4zMTA1MTcsLTEuMTk3MTA2IC0yLjMxMDUxNywtMi42ODQwOTUgbCAwLC0xOS44NjAzMjMgOS4xNDE2ODgsLTE0LjM5MzU5IGMgMTMuMzAyNjMsLTQuMDMzNTI5IDMwLjE4MDk1NiwtNi4wNjE5MzIgNDEuNzA1NTExLC01Ljg5NzIyNCB6IiBpZD0icmVjdDI5MTkiIHN0eWxlPSJmaWxsOnVybCgjbGluZWFyR3JhZGllbnQzOTUyKTtmaWxsLW9wYWNpdHk6MTtmaWxsLXJ1bGU6bm9uemVybztzdHJva2U6IzJlMzQzNjtzdHJva2Utd2lkdGg6Mi42MTExNDk1NTtzdHJva2UtbGluZWNhcDpyb3VuZDtzdHJva2UtbGluZWpvaW46bWl0ZXI7c3Ryb2tlLW1pdGVybGltaXQ6NDtzdHJva2Utb3BhY2l0eToxO3N0cm9rZS1kYXNoYXJyYXk6bm9uZTtzdHJva2UtZGFzaG9mZnNldDowO21hcmtlcjpub25lO3Zpc2liaWxpdHk6dmlzaWJsZTtkaXNwbGF5OmlubGluZTtvdmVyZmxvdzp2aXNpYmxlIi8+JiN4YTsgICAgICA8cGF0aCBkPSJtIDY0LjU4OTE0Myw1NS40MzU1MTggYyAxMS40MzA5NDQsMC4xNjQ3MSAyNy40NjgyNTQsMS43MzE3ODQgNDAuNDMxMTM3LDUuMjEyOTE1IGwgOC4xNTEzNSwxMy4zNjcxMjYgLTk3LjI3NjY1LDAuMTE0MDUgOC4yOTkxOTUsLTEzLjEzOTAyMSBjIDEzLjMwMjYzLC00LjAzMzUzIDI4Ljg3MDQxMywtNS43MTk3ODEgNDAuMzk0OTY4LC01LjU1NTA3IHoiIGlkPSJwYXRoNDQ0NCIgc3R5bGU9Im9wYWNpdHk6MC4xNjgwMzI3ODtmaWxsOm5vbmU7c3Ryb2tlOiNlZWVlZWM7c3Ryb2tlLXdpZHRoOjIuNjExMTQ5NTU7c3Ryb2tlLWxpbmVjYXA6cm91bmQ7c3Ryb2tlLWxpbmVqb2luOm1pdGVyO3N0cm9rZS1taXRlcmxpbWl0OjQ7c3Ryb2tlLW9wYWNpdHk6MTtzdHJva2UtZGFzaGFycmF5Om5vbmU7c3Ryb2tlLWRhc2hvZmZzZXQ6MDttYXJrZXI6bm9uZTt2aXNpYmlsaXR5OnZpc2libGU7ZGlzcGxheTppbmxpbmU7b3ZlcmZsb3c6dmlzaWJsZSIvPiYjeGE7ICAgICAgPHBhdGggZD0ibSA2NC43MjIyNzksNjEuNDgyMDM2IGMgMy42NzQyNTMsMC4wMDQ1IDIwLjI0NDYyLDAuODQyMDc0IDI4LjM1MjE3NCwxLjQ2MTYxOCAwLjcwNzIzNSwwLjA1NDA1IDEuNjA3ODEsNC4xMDIzNyAyLjMyNTQxNiw0LjE2MTgzMiA5Ljg0OTc2MSwwLjgxNjIgMTYuNTY4MTkxLDEuNjkyMzg0IDE3LjY0ODAxMSwyLjMyNTk5MyBsIDIuMzUzNTksMy40NDQzMTUgMCwyMC4xODA5MzkgYyAwLDEuNDg2ODQ2IC0xLjAzMzE1LDIuNjgzODM2IC0yLjMxNjUsMi42ODM4MzYgMCwwIC0yNC4xMzg3MTQsMy4zMDYxODkgLTQ4LjM5NDk3OSwzLjIyNTU1MiAtMjQuMjU2MjYzLC0wLjA4MDY0IC00OC42MzAwNzYsLTMuNTQ4MTA1IC00OC42MzAwNzYsLTMuNTQ4MTA1IC0xLjI4MzM0MSwwIC0yLjMxNjQ5OSwtMS4xOTY5OSAtMi4zMTY0OTksLTIuNjgzODM1IGwgMCwtMTkuODU4Mzg3IDIuNDA4MjEyLC0zLjY3MjQxOSBjIDEuNDg0NjU0LC0wLjQyMDYwMSA3LjE3Nzg0MywtMS4xMjM5ODUgMTcuNTM3NjA1LC0xLjkyNzUwMSAwLjc4Mjg2NSwtMC4wNjA3MiAxLjc0NDg0OCwtNC40NTE4NiAyLjUwOTA1MSwtNC41MDU5NzggNy4wNjk3NjYsLTAuNTAwNjQ2IDI1LjIxNzMxOCwtMS4yOTE5MzggMjguNTIzOTk1LC0xLjI4Nzg2IHoiIGlkPSJwYXRoMzQ2MyIgc3R5bGU9ImZpbGw6dXJsKCNsaW5lYXJHcmFkaWVudDM5MzcpO2ZpbGwtb3BhY2l0eToxO2ZpbGwtcnVsZTpub256ZXJvO3N0cm9rZTojMjA0YTg3O3N0cm9rZS13aWR0aDoyLjYxNDQwMDM5O3N0cm9rZS1saW5lY2FwOnJvdW5kO3N0cm9rZS1saW5lam9pbjptaXRlcjtzdHJva2UtbWl0ZXJsaW1pdDo0O3N0cm9rZS1vcGFjaXR5OjE7c3Ryb2tlLWRhc2hhcnJheTpub25lO3N0cm9rZS1kYXNob2Zmc2V0OjA7bWFya2VyOm5vbmU7dmlzaWJpbGl0eTp2aXNpYmxlO2Rpc3BsYXk6aW5saW5lO292ZXJmbG93OnZpc2libGUiLz4mI3hhOyAgICAgIDxwYXRoIGQ9Im0gMTUuOTczNDE5LDc1Ljc0MjEgYyAwLDAgMjQuMjA4NjIyLC0yLjg1MTI4NyA0OC40ODk5MTMsLTIuODUxMjg3IDI0LjI4MTI4OSwwIDQ4LjYzNTIzOCwyLjg1MTI4NyA0OC42MzUyMzgsMi44NTEyODcgbCAwLDE3LjM1Nzk3IGMgMCwwIC0yNC4yNjAzMzksMi43Njk2NTggLTQ4LjU0MTYyOCwyLjc2OTY1OCAtMjQuMjgxMjkxLDAgLTQ4LjU4MzUyMywtMi43Njk2NTggLTQ4LjU4MzUyMywtMi43Njk2NTggbCAwLC0xNy4zNTc5NyB6IiBpZD0icmVjdDM1MTMiIHN0eWxlPSJmaWxsOnVybCgjbGluZWFyR3JhZGllbnQzOTE1KTtmaWxsLW9wYWNpdHk6MTtmaWxsLXJ1bGU6ZXZlbm9kZDtzdHJva2U6IzNiNzJhZDtzdHJva2Utd2lkdGg6Mi42MTExNDkzMTtzdHJva2UtbGluZWNhcDpyb3VuZDtzdHJva2UtbGluZWpvaW46cm91bmQ7c3Ryb2tlLW1pdGVybGltaXQ6NDtzdHJva2Utb3BhY2l0eToxO3N0cm9rZS1kYXNob2Zmc2V0OjA7bWFya2VyOm5vbmU7dmlzaWJpbGl0eTp2aXNpYmxlO2Rpc3BsYXk6aW5saW5lO292ZXJmbG93OnZpc2libGU7ZW5hYmxlLWJhY2tncm91bmQ6YWNjdW11bGF0ZSIvPiYjeGE7ICAgICAgPHBhdGggZD0iTSAxNy4yMjg1OTUsODEuNjcxMTA2IDExMS43MDI5OSw4MS4zNDg5MjUiIGlkPSJwYXRoNDYzNiIgc3R5bGU9Im9wYWNpdHk6MC4xNjM5MzQ0NTtmaWxsOm5vbmU7c3Ryb2tlOiMwMDAwMDA7c3Ryb2tlLXdpZHRoOjIuNjA4NTQ0MzU7c3Ryb2tlLWxpbmVjYXA6YnV0dDtzdHJva2UtbGluZWpvaW46bWl0ZXI7c3Ryb2tlLW1pdGVybGltaXQ6NDtzdHJva2Utb3BhY2l0eToxO3N0cm9rZS1kYXNoYXJyYXk6bm9uZSIvPiYjeGE7ICAgICAgPHBhdGggZD0ibSAxNy4yMzAxNDcsODAuMDk2MjUxIDU3LjAzNTM1NCwwIDAsMTQuMTIwOTk2IGMgMCwwIC0xNi40NzQ4NDYsMC40OTI1NDQgLTMwLjczMzY4NiwtMC4xNjMyNTIgQyAyOS4yNzI5NzgsOTMuMzk4MTk5IDE3LjIzMDE0Nyw5MS41OTQwNjQgMTcuMjMwMTQ3LDkxLjU5NDA2NCBsIDAsLTExLjQ5NzgxMyB6IiBpZD0icmVjdDQ0MzkiIHN0eWxlPSJmaWxsOiMyZTM0MzY7ZmlsbC1vcGFjaXR5OjE7ZmlsbC1ydWxlOmV2ZW5vZGQ7c3Ryb2tlOm5vbmUiLz4mI3hhOyAgICAgIDxwYXRoIGQ9Im0gNTUuMTQyMzA4LDgwLjA5NjI1MSAxOS4xMjMxOTMsMCAwLDE0LjEyMDk5NiBjIDAsMCAtNS41MjI4NCwwLjI2NDQzNCAtMTEuMDc1NTI5LDAuMTc4OTAzIC01LjU1MzA4MiwtMC4wODU1NCAtNy45NTQwNTUsMC4wNDkyIC03Ljk1NDA1NSwwLjA0OTIgbCAtMC4wOTM2MSwtMTQuMzQ5MSB6IiBpZD0icGF0aDQ0NDIiIHN0eWxlPSJvcGFjaXR5OjAuNjMxMTQ3NTY7ZmlsbDojNTU1NzUzO2ZpbGwtb3BhY2l0eToxO2ZpbGwtcnVsZTpldmVub2RkO3N0cm9rZTpub25lIi8+JiN4YTsgICAgICA8cmVjdCB3aWR0aD0iNy42MTM3MTI4IiBoZWlnaHQ9IjMuNTExOTMyNCIgeD0iMjIuODg1NzI5IiB5PSI4NC4wNzM3NDYiIGlkPSJyZWN0NDUwOCIgc3R5bGU9Im9wYWNpdHk6MC4xNDM0NDI2MTtmaWxsOiNmZmZmZmY7ZmlsbC1vcGFjaXR5OjE7ZmlsbC1ydWxlOmV2ZW5vZGQ7c3Ryb2tlOiNmZmZmZmY7c3Ryb2tlLXdpZHRoOjIuMDQwNjE2NTFweDtzdHJva2UtbGluZWNhcDpidXR0O3N0cm9rZS1saW5lam9pbjpyb3VuZDtzdHJva2Utb3BhY2l0eToxIi8+JiN4YTsgICAgICA8cmVjdCB3aWR0aD0iMS42OTYyMjY4IiBoZWlnaHQ9IjIuMDY2NjI1NCIgeD0iNDEuMjIwOTM2IiB5PSI4Ni4yMzc0OCIgaWQ9InJlY3Q0NTEwIiBzdHlsZT0ib3BhY2l0eTowLjUzNjg4NTI4O2ZpbGw6IzhhZTIzNDtmaWxsLW9wYWNpdHk6MTtmaWxsLXJ1bGU6ZXZlbm9kZDtzdHJva2U6IzczZDIxNjtzdHJva2Utd2lkdGg6MC43Mzg4NjEzOHB4O3N0cm9rZS1saW5lY2FwOmJ1dHQ7c3Ryb2tlLWxpbmVqb2luOnJvdW5kO3N0cm9rZS1vcGFjaXR5OjEiLz4mI3hhOyAgICAgIDxyZWN0IHdpZHRoPSIxLjY5NjIyNjgiIGhlaWdodD0iMi4wNjY2MjU0IiB4PSI0NS45NTIxNTIiIHk9Ijg2LjIzNzQ4IiBpZD0icmVjdDQ1ODQiIHN0eWxlPSJvcGFjaXR5OjAuNTM2ODg1Mjg7ZmlsbDojOGFlMjM0O2ZpbGwtb3BhY2l0eToxO2ZpbGwtcnVsZTpldmVub2RkO3N0cm9rZTojNzNkMjE2O3N0cm9rZS13aWR0aDowLjczODg2MTM4cHg7c3Ryb2tlLWxpbmVjYXA6YnV0dDtzdHJva2UtbGluZWpvaW46cm91bmQ7c3Ryb2tlLW9wYWNpdHk6MSIvPiYjeGE7ICAgICAgPHJlY3Qgd2lkdGg9IjEuNjk2MjI2OCIgaGVpZ2h0PSIyLjA2NjYyNTQiIHg9IjUwLjY4MzM3NiIgeT0iODYuMjM3NDgiIGlkPSJyZWN0NDU4NiIgc3R5bGU9Im9wYWNpdHk6MC41MzY4ODUyODtmaWxsOiM4YWUyMzQ7ZmlsbC1vcGFjaXR5OjE7ZmlsbC1ydWxlOmV2ZW5vZGQ7c3Ryb2tlOiM3M2QyMTY7c3Ryb2tlLXdpZHRoOjAuNzM4ODYxMzhweDtzdHJva2UtbGluZWNhcDpidXR0O3N0cm9rZS1saW5lam9pbjpyb3VuZDtzdHJva2Utb3BhY2l0eToxIi8+JiN4YTsgICAgPC9nPiYjeGE7ICA8L2c+JiN4YTs8L3N2Zz4=;snapToPoint=1;" parent="1" vertex="1">
            <mxGeometry x="750" y="-610" width="80" height="80" as="geometry" />
          </mxCell>
        </object>
        <object label="Gurulandia" IS5GHZ="Yes" IS2.4GHZ="Yes" VLANID="40" SSID="Gurulandia" Network="192.168.40.0/24" id="YRLlY--aoW11vG_20f-W-7">
          <mxCell style="shape=image;verticalLabelPosition=bottom;labelBackgroundColor=default;verticalAlign=top;aspect=fixed;imageAspect=0;image=data:image/svg+xml,PHN2ZyB4bWxuczpzdmc9Imh0dHA6Ly93d3cudzMub3JnLzIwMDAvc3ZnIiB4bWxucz0iaHR0cDovL3d3dy53My5vcmcvMjAwMC9zdmciIHhtbG5zOnhsaW5rPSJodHRwOi8vd3d3LnczLm9yZy8xOTk5L3hsaW5rIiB2ZXJzaW9uPSIxLjAiIHdpZHRoPSIxMjgiIGhlaWdodD0iMTI4IiBpZD0ic3ZnMjEwOCIgdmlld0JveD0iMCAwIDEyOCAxMjgiPiYjeGE7ICA8ZGVmcyBpZD0iZGVmczMiPiYjeGE7ICAgIDxsaW5lYXJHcmFkaWVudCBpZD0ibGluZWFyR3JhZGllbnQ1MDQ4Ij4mI3hhOyAgICAgIDxzdG9wIGlkPSJzdG9wNTA1MCIgc3R5bGU9InN0b3AtY29sb3I6IzAwMDAwMDtzdG9wLW9wYWNpdHk6MCIgb2Zmc2V0PSIwIi8+JiN4YTsgICAgICA8c3RvcCBpZD0ic3RvcDUwNTYiIHN0eWxlPSJzdG9wLWNvbG9yOiMwMDAwMDA7c3RvcC1vcGFjaXR5OjEiIG9mZnNldD0iMC41Ii8+JiN4YTsgICAgICA8c3RvcCBpZD0ic3RvcDUwNTIiIHN0eWxlPSJzdG9wLWNvbG9yOiMwMDAwMDA7c3RvcC1vcGFjaXR5OjAiIG9mZnNldD0iMSIvPiYjeGE7ICAgIDwvbGluZWFyR3JhZGllbnQ+JiN4YTsgICAgPGxpbmVhckdyYWRpZW50IGlkPSJsaW5lYXJHcmFkaWVudDUwNjAiPiYjeGE7ICAgICAgPHN0b3AgaWQ9InN0b3A1MDYyIiBzdHlsZT0ic3RvcC1jb2xvcjojMDAwMDAwO3N0b3Atb3BhY2l0eToxIiBvZmZzZXQ9IjAiLz4mI3hhOyAgICAgIDxzdG9wIGlkPSJzdG9wNTA2NCIgc3R5bGU9InN0b3AtY29sb3I6IzAwMDAwMDtzdG9wLW9wYWNpdHk6MCIgb2Zmc2V0PSIxIi8+JiN4YTsgICAgPC9saW5lYXJHcmFkaWVudD4mI3hhOyAgICA8cmFkaWFsR3JhZGllbnQgY3g9IjI0LjQ0NTY5IiBjeT0iMzUuODc4MTciIHI9IjIwLjUzMDk2MiIgZng9IjI0LjQ0NTY5IiBmeT0iMzUuODc4MTciIGlkPSJyYWRpYWxHcmFkaWVudDEzNjYiIHhsaW5rOmhyZWY9IiNsaW5lYXJHcmFkaWVudDExNTIwIiBncmFkaWVudFVuaXRzPSJ1c2VyU3BhY2VPblVzZSIgZ3JhZGllbnRUcmFuc2Zvcm09Im1hdHJpeCgxLjk5NTA1OCwwLDAsMS45OTUwNTgsLTI0LjMyNDg4LC0zNS43MDA4NykiLz4mI3hhOyAgICA8cmFkaWFsR3JhZGllbnQgY3g9IjMwLjIwMzU2MiIgY3k9IjQ0LjU2NTQ4MyIgcj0iNi41NjU5OTE0IiBmeD0iMzAuMjAzNTYyIiBmeT0iNDQuNTY1NDgzIiBpZD0icmFkaWFsR3JhZGllbnQxMzU2IiB4bGluazpocmVmPSIjbGluZWFyR3JhZGllbnQxMTUwOCIgZ3JhZGllbnRVbml0cz0idXNlclNwYWNlT25Vc2UiIGdyYWRpZW50VHJhbnNmb3JtPSJtYXRyaXgoMSwwLDAsMC4zMzg0NjIsMCwyOS40ODE3OCkiLz4mI3hhOyAgICA8cmFkaWFsR3JhZGllbnQgY3g9IjI3LjU3NzE3MyIgY3k9IjE1LjA0ODI1OCIgcj0iMy44MzM1MDM1IiBmeD0iMjcuNTc3MTczIiBmeT0iMTUuMDQ4MjU4IiBpZD0icmFkaWFsR3JhZGllbnQxMzU0IiB4bGluazpocmVmPSIjbGluZWFyR3JhZGllbnQxMTQ5NCIgZ3JhZGllbnRVbml0cz0idXNlclNwYWNlT25Vc2UiIGdyYWRpZW50VHJhbnNmb3JtPSJtYXRyaXgoMS4yNDM0NTMsMCwwLDEuMjQzNDUzLC02LjcxMzc1NCwtMy43NDI4NDcpIi8+JiN4YTsgICAgPHJhZGlhbEdyYWRpZW50IGN4PSIyNy41NzcxNzMiIGN5PSIxNi4wNDkxMzMiIHI9IjMuODMzNTAzNSIgZng9IjI3LjU3NzE3MyIgZnk9IjE2LjA0OTEzMyIgaWQ9InJhZGlhbEdyYWRpZW50MTM1MiIgeGxpbms6aHJlZj0iI2xpbmVhckdyYWRpZW50MTE0OTQiIGdyYWRpZW50VW5pdHM9InVzZXJTcGFjZU9uVXNlIiBncmFkaWVudFRyYW5zZm9ybT0ibWF0cml4KDEuMjQzNDUzLDAsMCwxLjI0MzQ1MywtNi43MTM3NTQsLTMuNzQyODQ3KSIvPiYjeGE7ICAgIDxsaW5lYXJHcmFkaWVudCBpZD0ibGluZWFyR3JhZGllbnQxMTQ5NCI+JiN4YTsgICAgICA8c3RvcCBpZD0ic3RvcDExNDk2IiBzdHlsZT0ic3RvcC1jb2xvcjojZWYyOTI5O3N0b3Atb3BhY2l0eToxIiBvZmZzZXQ9IjAiLz4mI3hhOyAgICAgIDxzdG9wIGlkPSJzdG9wMTE0OTgiIHN0eWxlPSJzdG9wLWNvbG9yOiNlZjI5Mjk7c3RvcC1vcGFjaXR5OjAiIG9mZnNldD0iMSIvPiYjeGE7ICAgIDwvbGluZWFyR3JhZGllbnQ+JiN4YTsgICAgPGxpbmVhckdyYWRpZW50IGlkPSJsaW5lYXJHcmFkaWVudDExNTA4Ij4mI3hhOyAgICAgIDxzdG9wIGlkPSJzdG9wMTE1MTAiIHN0eWxlPSJzdG9wLWNvbG9yOiMwMDAwMDA7c3RvcC1vcGFjaXR5OjEiIG9mZnNldD0iMCIvPiYjeGE7ICAgICAgPHN0b3AgaWQ9InN0b3AxMTUxMiIgc3R5bGU9InN0b3AtY29sb3I6IzAwMDAwMDtzdG9wLW9wYWNpdHk6MCIgb2Zmc2V0PSIxIi8+JiN4YTsgICAgPC9saW5lYXJHcmFkaWVudD4mI3hhOyAgICA8bGluZWFyR3JhZGllbnQgaWQ9ImxpbmVhckdyYWRpZW50MTE1MjAiPiYjeGE7ICAgICAgPHN0b3AgaWQ9InN0b3AxMTUyMiIgc3R5bGU9InN0b3AtY29sb3I6I2ZmZmZmZjtzdG9wLW9wYWNpdHk6MSIgb2Zmc2V0PSIwIi8+JiN4YTsgICAgICA8c3RvcCBpZD0ic3RvcDExNTI0IiBzdHlsZT0ic3RvcC1jb2xvcjojZGNkY2RjO3N0b3Atb3BhY2l0eToxIiBvZmZzZXQ9IjEiLz4mI3hhOyAgICA8L2xpbmVhckdyYWRpZW50PiYjeGE7ICAgIDxsaW5lYXJHcmFkaWVudCB4MT0iMzAyLjg1NzE1IiB5MT0iMzY2LjY0Nzg5IiB4Mj0iMzAyLjg1NzE1IiB5Mj0iNjA5LjUwNTA3IiBpZD0ibGluZWFyR3JhZGllbnQ2NzE1IiB4bGluazpocmVmPSIjbGluZWFyR3JhZGllbnQ1MDQ4IiBncmFkaWVudFVuaXRzPSJ1c2VyU3BhY2VPblVzZSIgZ3JhZGllbnRUcmFuc2Zvcm09Im1hdHJpeCgyLjc3NDM4OSwwLDAsMS45Njk3MDYsLTE4OTIuMTc5LC04NzIuODg1NCkiLz4mI3hhOyAgICA8cmFkaWFsR3JhZGllbnQgY3g9IjYwNS43MTQyOSIgY3k9IjQ4Ni42NDc4OSIgcj0iMTE3LjE0Mjg2IiBmeD0iNjA1LjcxNDI5IiBmeT0iNDg2LjY0Nzg5IiBpZD0icmFkaWFsR3JhZGllbnQ2NzE3IiB4bGluazpocmVmPSIjbGluZWFyR3JhZGllbnQ1MDYwIiBncmFkaWVudFVuaXRzPSJ1c2VyU3BhY2VPblVzZSIgZ3JhZGllbnRUcmFuc2Zvcm09Im1hdHJpeCgyLjc3NDM4OSwwLDAsMS45Njk3MDYsLTE4OTEuNjMzLC04NzIuODg1NCkiLz4mI3hhOyAgICA8cmFkaWFsR3JhZGllbnQgY3g9IjYwNS43MTQyOSIgY3k9IjQ4Ni42NDc4OSIgcj0iMTE3LjE0Mjg2IiBmeD0iNjA1LjcxNDI5IiBmeT0iNDg2LjY0Nzg5IiBpZD0icmFkaWFsR3JhZGllbnQ2NzE5IiB4bGluazpocmVmPSIjbGluZWFyR3JhZGllbnQ1MDYwIiBncmFkaWVudFVuaXRzPSJ1c2VyU3BhY2VPblVzZSIgZ3JhZGllbnRUcmFuc2Zvcm09Im1hdHJpeCgtMi43NzQzODksMCwwLDEuOTY5NzA2LDExMi43NjIzLC04NzIuODg1NCkiLz4mI3hhOyAgPC9kZWZzPiYjeGE7ICA8ZyBpZD0ibGF5ZXIxIiBzdHlsZT0iZGlzcGxheTppbmxpbmUiLz4mI3hhOyAgPGcgaWQ9ImxheWVyMiIgc3R5bGU9ImRpc3BsYXk6aW5saW5lIj4mI3hhOyAgICA8ZyB0cmFuc2Zvcm09Im1hdHJpeCgyLjQ4NTM3MjMsMCwwLDIuNDg1MzcyMywzLjMyMDYzODYsMi4wNTg4MTU4KSIgaWQ9ImczNDA0MSI+JiN4YTsgICAgICA8ZyB0cmFuc2Zvcm09Im1hdHJpeCgwLjAyMjQzNDI1LDAsMCwwLjAyMDg2NzU4LDQ0LjMxMDk1LDQwLjg2Nzg5KSIgaWQ9Imc2NzA3Ij4mI3hhOyAgICAgICAgPHJlY3Qgd2lkdGg9IjEzMzkuNjMzNSIgaGVpZ2h0PSI0NzguMzU3MTgiIHg9Ii0xNTU5LjI1MjMiIHk9Ii0xNTAuNjk2ODUiIGlkPSJyZWN0NjcwOSIgc3R5bGU9Im9wYWNpdHk6MC40MDIwNjE4NTtmaWxsOnVybCgjbGluZWFyR3JhZGllbnQ2NzE1KTtmaWxsLW9wYWNpdHk6MTtmaWxsLXJ1bGU6bm9uemVybztzdHJva2U6bm9uZTtzdHJva2Utd2lkdGg6MTttYXJrZXI6bm9uZTt2aXNpYmlsaXR5OnZpc2libGU7ZGlzcGxheTppbmxpbmU7b3ZlcmZsb3c6dmlzaWJsZSIvPiYjeGE7ICAgICAgICA8cGF0aCBkPSJtIC0yMTkuNjE4NzYsLTE1MC42ODAzOCBjIDAsMCAwLDQ3OC4zMzA3OSAwLDQ3OC4zMzA3OSAxNDIuODc0MTY2LDAuOTAwNDUgMzQ1LjQwMDIyLC0xMDcuMTY5NjYgMzQ1LjQwMDE0LC0yMzkuMTk2MTc1IDAsLTEzMi4wMjY1MzcgLTE1OS40MzY4MTYsLTIzOS4xMzQ1OTUgLTM0NS40MDAxNCwtMjM5LjEzNDYxNSB6IiBpZD0icGF0aDY3MTEiIHN0eWxlPSJvcGFjaXR5OjAuNDAyMDYxODU7ZmlsbDp1cmwoI3JhZGlhbEdyYWRpZW50NjcxNyk7ZmlsbC1vcGFjaXR5OjE7ZmlsbC1ydWxlOm5vbnplcm87c3Ryb2tlOm5vbmU7c3Ryb2tlLXdpZHRoOjE7bWFya2VyOm5vbmU7dmlzaWJpbGl0eTp2aXNpYmxlO2Rpc3BsYXk6aW5saW5lO292ZXJmbG93OnZpc2libGUiLz4mI3hhOyAgICAgICAgPHBhdGggZD0ibSAtMTU1OS4yNTIzLC0xNTAuNjgwMzggYyAwLDAgMCw0NzguMzMwNzkgMCw0NzguMzMwNzkgLTE0Mi44NzQyLDAuOTAwNDUgLTM0NS40MDAyLC0xMDcuMTY5NjYgLTM0NS40MDAyLC0yMzkuMTk2MTc1IDAsLTEzMi4wMjY1MzcgMTU5LjQzNjgsLTIzOS4xMzQ1OTUgMzQ1LjQwMDIsLTIzOS4xMzQ2MTUgeiIgaWQ9InBhdGg2NzEzIiBzdHlsZT0ib3BhY2l0eTowLjQwMjA2MTg1O2ZpbGw6dXJsKCNyYWRpYWxHcmFkaWVudDY3MTkpO2ZpbGwtb3BhY2l0eToxO2ZpbGwtcnVsZTpub256ZXJvO3N0cm9rZTpub25lO3N0cm9rZS13aWR0aDoxO21hcmtlcjpub25lO3Zpc2liaWxpdHk6dmlzaWJsZTtkaXNwbGF5OmlubGluZTtvdmVyZmxvdzp2aXNpYmxlIi8+JiN4YTsgICAgICA8L2c+JiN4YTsgICAgICA8cmVjdCB3aWR0aD0iNDAuMDYxOTI0IiBoZWlnaHQ9IjQwLjA2MTkyNCIgcng9IjUuNDU0ODI0IiByeT0iNS40NTQ4MjQiIHg9IjQuNDE0NzI4MiIgeT0iMy41MjMzNDUyIiBpZD0icmVjdDExNTE4IiBzdHlsZT0iZmlsbDp1cmwoI3JhZGlhbEdyYWRpZW50MTM2Nik7ZmlsbC1vcGFjaXR5OjE7ZmlsbC1ydWxlOmV2ZW5vZGQ7c3Ryb2tlOiM5YjliOWI7c3Ryb2tlLXdpZHRoOjE7c3Ryb2tlLWxpbmVjYXA6YnV0dDtzdHJva2UtbGluZWpvaW46YmV2ZWw7c3Ryb2tlLW1pdGVybGltaXQ6MTA7c3Ryb2tlLW9wYWNpdHk6MTtzdHJva2UtZGFzaGFycmF5Om5vbmU7c3Ryb2tlLWRhc2hvZmZzZXQ6MDttYXJrZXI6bm9uZTt2aXNpYmlsaXR5OnZpc2libGU7ZGlzcGxheTppbmxpbmU7b3ZlcmZsb3c6dmlzaWJsZSIvPiYjeGE7ICAgICAgPHBhdGggZD0ibSAyMC4yMjQ5MDMsMzguOTU1NjY4IDQuNTk1MDM1LC0xNC41OTU5OTQgNS4zMTU4MjUsMTQuNTk1OTk0IiBpZD0icGF0aDExNDg2IiBzdHlsZT0iZmlsbDpub25lO3N0cm9rZTojMDAwMDAwO3N0cm9rZS13aWR0aDoxLjAwMDAwMDM2O3N0cm9rZS1saW5lY2FwOmJ1dHQ7c3Ryb2tlLWxpbmVqb2luOm1pdGVyO3N0cm9rZS1taXRlcmxpbWl0OjEwO3N0cm9rZS1vcGFjaXR5OjE7c3Ryb2tlLWRhc2hhcnJheTpub25lO3N0cm9rZS1kYXNob2Zmc2V0OjA7bWFya2VyOm5vbmU7dmlzaWJpbGl0eTp2aXNpYmxlO2Rpc3BsYXk6aW5saW5lO292ZXJmbG93OnZpc2libGUiLz4mI3hhOyAgICAgIDxwYXRoIGQ9Im0gMzAuOTEwNjY3LDE4LjYwNDU2MSBhIDMuMzMzNTAzNSwzLjMzMzUwMzUgMCAxIDEgLTYuNjY3MDA3LDAgMy4zMzM1MDM1LDMuMzMzNTAzNSAwIDEgMSA2LjY2NzAwNywwIHoiIHRyYW5zZm9ybT0ibWF0cml4KDAuNjg5MjIsMCwwLDAuNjg5MjIsNS43NjgxNTUsMTEuMDY5KSIgaWQ9InBhdGgxMTQ4MiIgc3R5bGU9ImZpbGw6I2VmMjkyOTtmaWxsLW9wYWNpdHk6MTtmaWxsLXJ1bGU6ZXZlbm9kZDtzdHJva2U6bm9uZTtzdHJva2Utd2lkdGg6MC45OTk5OTk4MjttYXJrZXI6bm9uZTt2aXNpYmlsaXR5OnZpc2libGU7ZGlzcGxheTppbmxpbmU7b3ZlcmZsb3c6dmlzaWJsZSIvPiYjeGE7ICAgICAgPHBhdGggZD0ibSAzMC45MTA2NjcsMTguNjA0NTYxIGEgMy4zMzM1MDM1LDMuMzMzNTAzNSAwIDEgMSAtNi42NjcwMDcsMCAzLjMzMzUwMzUsMy4zMzM1MDM1IDAgMSAxIDYuNjY3MDA3LDAgeiIgdHJhbnNmb3JtPSJtYXRyaXgoMi4zODIzMDMsMCwwLDIuMzgyMzAzLC00MC45MjIyOSwtMjAuNDMwMDcpIiBpZD0icGF0aDExNDg4IiBzdHlsZT0iZmlsbDpub25lO3N0cm9rZTp1cmwoI3JhZGlhbEdyYWRpZW50MTM1Mik7c3Ryb2tlLXdpZHRoOjEuMTgxMjc2NDQ7c3Ryb2tlLWxpbmVjYXA6YnV0dDtzdHJva2UtbGluZWpvaW46bWl0ZXI7c3Ryb2tlLW1pdGVybGltaXQ6MTA7c3Ryb2tlLW9wYWNpdHk6MTtzdHJva2UtZGFzaGFycmF5Om5vbmU7c3Ryb2tlLWRhc2hvZmZzZXQ6MDttYXJrZXI6bm9uZTt2aXNpYmlsaXR5OnZpc2libGU7ZGlzcGxheTppbmxpbmU7b3ZlcmZsb3c6dmlzaWJsZSIvPiYjeGE7ICAgICAgPHBhdGggZD0ibSAzMC45MTA2NjcsMTguNjA0NTYxIGEgMy4zMzM1MDM1LDMuMzMzNTAzNSAwIDEgMSAtNi42NjcwMDcsMCAzLjMzMzUwMzUsMy4zMzM1MDM1IDAgMSAxIDYuNjY3MDA3LDAgeiIgdHJhbnNmb3JtPSJtYXRyaXgoNC42NTc2MDgsMCwwLDQuNjU3NjA4LC0xMDMuNjY5LC02Mi43NjExMykiIGlkPSJwYXRoMTE0OTAiIHN0eWxlPSJmaWxsOm5vbmU7c3Ryb2tlOnVybCgjcmFkaWFsR3JhZGllbnQxMzU0KTtzdHJva2Utd2lkdGg6MC42MDQyMDY3NDtzdHJva2UtbGluZWNhcDpidXR0O3N0cm9rZS1saW5lam9pbjptaXRlcjtzdHJva2UtbWl0ZXJsaW1pdDoxMDtzdHJva2Utb3BhY2l0eToxO3N0cm9rZS1kYXNoYXJyYXk6bm9uZTtzdHJva2UtZGFzaG9mZnNldDowO21hcmtlcjpub25lO3Zpc2liaWxpdHk6dmlzaWJsZTtkaXNwbGF5OmlubGluZTtvdmVyZmxvdzp2aXNpYmxlIi8+JiN4YTsgICAgICA8cGF0aCBkPSJtIDM2Ljc2OTU1Myw0NC41NjU0ODMgYSA2LjU2NTk5MTUsMi4yMjIzMzU2IDAgMSAxIC0xMy4xMzE5ODMsMCA2LjU2NTk5MTUsMi4yMjIzMzU2IDAgMSAxIDEzLjEzMTk4MywwIHoiIHRyYW5zZm9ybT0ibWF0cml4KDEuNTY3NzQxLDAsMCwxLjU2Nzc0MSwtMjIuMjU2NTYsLTMxLjk5NTU5KSIgaWQ9InBhdGgxMTUwNiIgc3R5bGU9Im9wYWNpdHk6MC4xNzY0NzA1OTtmaWxsOnVybCgjcmFkaWFsR3JhZGllbnQxMzU2KTtmaWxsLW9wYWNpdHk6MTtmaWxsLXJ1bGU6ZXZlbm9kZDtzdHJva2U6bm9uZTtzdHJva2Utd2lkdGg6Mi44MTQxNTg0NDttYXJrZXI6bm9uZTt2aXNpYmlsaXR5OnZpc2libGU7ZGlzcGxheTppbmxpbmU7b3ZlcmZsb3c6dmlzaWJsZSIvPiYjeGE7ICAgICAgPHBhdGggZD0ibSAyMy44MTIxMDgsMjguNTcxODU2IDIuOTA3NDY1LDAuODU1MTM2IC00LjI3NTY4MywyLjkwNzQ2NSA1LjgxNDkyOCwxLjUzOTI0NSAtNy4xODMxNDcsMi45MDc0NjUgOC41NTEzNjYsMC44NTUxMzciIGlkPSJwYXRoMTE1MTYiIHN0eWxlPSJmaWxsOm5vbmU7c3Ryb2tlOiMwMDAwMDA7c3Ryb2tlLXdpZHRoOjEuMDAwMDAwMzY7c3Ryb2tlLWxpbmVjYXA6YnV0dDtzdHJva2UtbGluZWpvaW46YmV2ZWw7c3Ryb2tlLW1pdGVybGltaXQ6MTA7c3Ryb2tlLW9wYWNpdHk6MTtzdHJva2UtZGFzaGFycmF5Om5vbmU7c3Ryb2tlLWRhc2hvZmZzZXQ6MDttYXJrZXI6bm9uZTt2aXNpYmlsaXR5OnZpc2libGU7ZGlzcGxheTppbmxpbmU7b3ZlcmZsb3c6dmlzaWJsZSIvPiYjeGE7ICAgICAgPHJlY3Qgd2lkdGg9IjM3LjY5NjU4NyIgaGVpZ2h0PSIzNy42OTY1ODciIHJ4PSI0LjI0MjYzOTEiIHJ5PSI0LjI0MjYzOTEiIHg9IjUuNTk3Mzg4NyIgeT0iNC43MDYwMDciIGlkPSJyZWN0MTE1MjgiIHN0eWxlPSJmaWxsOm5vbmU7c3Ryb2tlOiNmZmZmZmY7c3Ryb2tlLXdpZHRoOjAuOTk5OTk5NzY7c3Ryb2tlLWxpbmVjYXA6YnV0dDtzdHJva2UtbGluZWpvaW46YmV2ZWw7c3Ryb2tlLW1pdGVybGltaXQ6MTA7c3Ryb2tlLW9wYWNpdHk6MTtzdHJva2UtZGFzaGFycmF5Om5vbmU7c3Ryb2tlLWRhc2hvZmZzZXQ6MDttYXJrZXI6bm9uZTt2aXNpYmlsaXR5OnZpc2libGU7ZGlzcGxheTppbmxpbmU7b3ZlcmZsb3c6dmlzaWJsZSIvPiYjeGE7ICAgIDwvZz4mI3hhOyAgPC9nPiYjeGE7PC9zdmc+;noLabel=0;strokeOpacity=100;labelPadding=0;movableLabel=1;connectable=1;html=1;snapToPoint=1;" parent="1" vertex="1">
            <mxGeometry x="270" y="-770" width="80" height="80" as="geometry">
              <mxPoint y="-101" as="offset" />
            </mxGeometry>
          </mxCell>
        </object>
        <object label="GL-Guest" IS5GHZ="Yes" IS2.4GHZ="Yes" SSID="GL-Guest" Network="192.168.44.0/24" VLANID="44" id="YRLlY--aoW11vG_20f-W-10">
          <mxCell style="shape=image;verticalLabelPosition=bottom;labelBackgroundColor=default;verticalAlign=top;aspect=fixed;imageAspect=0;image=data:image/svg+xml,PHN2ZyB4bWxuczpzdmc9Imh0dHA6Ly93d3cudzMub3JnLzIwMDAvc3ZnIiB4bWxucz0iaHR0cDovL3d3dy53My5vcmcvMjAwMC9zdmciIHhtbG5zOnhsaW5rPSJodHRwOi8vd3d3LnczLm9yZy8xOTk5L3hsaW5rIiB2ZXJzaW9uPSIxLjAiIHdpZHRoPSIxMjgiIGhlaWdodD0iMTI4IiBpZD0ic3ZnMjEwOCIgdmlld0JveD0iMCAwIDEyOCAxMjgiPiYjeGE7ICA8ZGVmcyBpZD0iZGVmczMiPiYjeGE7ICAgIDxsaW5lYXJHcmFkaWVudCBpZD0ibGluZWFyR3JhZGllbnQ1MDQ4Ij4mI3hhOyAgICAgIDxzdG9wIGlkPSJzdG9wNTA1MCIgc3R5bGU9InN0b3AtY29sb3I6IzAwMDAwMDtzdG9wLW9wYWNpdHk6MCIgb2Zmc2V0PSIwIi8+JiN4YTsgICAgICA8c3RvcCBpZD0ic3RvcDUwNTYiIHN0eWxlPSJzdG9wLWNvbG9yOiMwMDAwMDA7c3RvcC1vcGFjaXR5OjEiIG9mZnNldD0iMC41Ii8+JiN4YTsgICAgICA8c3RvcCBpZD0ic3RvcDUwNTIiIHN0eWxlPSJzdG9wLWNvbG9yOiMwMDAwMDA7c3RvcC1vcGFjaXR5OjAiIG9mZnNldD0iMSIvPiYjeGE7ICAgIDwvbGluZWFyR3JhZGllbnQ+JiN4YTsgICAgPGxpbmVhckdyYWRpZW50IGlkPSJsaW5lYXJHcmFkaWVudDUwNjAiPiYjeGE7ICAgICAgPHN0b3AgaWQ9InN0b3A1MDYyIiBzdHlsZT0ic3RvcC1jb2xvcjojMDAwMDAwO3N0b3Atb3BhY2l0eToxIiBvZmZzZXQ9IjAiLz4mI3hhOyAgICAgIDxzdG9wIGlkPSJzdG9wNTA2NCIgc3R5bGU9InN0b3AtY29sb3I6IzAwMDAwMDtzdG9wLW9wYWNpdHk6MCIgb2Zmc2V0PSIxIi8+JiN4YTsgICAgPC9saW5lYXJHcmFkaWVudD4mI3hhOyAgICA8cmFkaWFsR3JhZGllbnQgY3g9IjI0LjQ0NTY5IiBjeT0iMzUuODc4MTciIHI9IjIwLjUzMDk2MiIgZng9IjI0LjQ0NTY5IiBmeT0iMzUuODc4MTciIGlkPSJyYWRpYWxHcmFkaWVudDEzNjYiIHhsaW5rOmhyZWY9IiNsaW5lYXJHcmFkaWVudDExNTIwIiBncmFkaWVudFVuaXRzPSJ1c2VyU3BhY2VPblVzZSIgZ3JhZGllbnRUcmFuc2Zvcm09Im1hdHJpeCgxLjk5NTA1OCwwLDAsMS45OTUwNTgsLTI0LjMyNDg4LC0zNS43MDA4NykiLz4mI3hhOyAgICA8cmFkaWFsR3JhZGllbnQgY3g9IjMwLjIwMzU2MiIgY3k9IjQ0LjU2NTQ4MyIgcj0iNi41NjU5OTE0IiBmeD0iMzAuMjAzNTYyIiBmeT0iNDQuNTY1NDgzIiBpZD0icmFkaWFsR3JhZGllbnQxMzU2IiB4bGluazpocmVmPSIjbGluZWFyR3JhZGllbnQxMTUwOCIgZ3JhZGllbnRVbml0cz0idXNlclNwYWNlT25Vc2UiIGdyYWRpZW50VHJhbnNmb3JtPSJtYXRyaXgoMSwwLDAsMC4zMzg0NjIsMCwyOS40ODE3OCkiLz4mI3hhOyAgICA8cmFkaWFsR3JhZGllbnQgY3g9IjI3LjU3NzE3MyIgY3k9IjE1LjA0ODI1OCIgcj0iMy44MzM1MDM1IiBmeD0iMjcuNTc3MTczIiBmeT0iMTUuMDQ4MjU4IiBpZD0icmFkaWFsR3JhZGllbnQxMzU0IiB4bGluazpocmVmPSIjbGluZWFyR3JhZGllbnQxMTQ5NCIgZ3JhZGllbnRVbml0cz0idXNlclNwYWNlT25Vc2UiIGdyYWRpZW50VHJhbnNmb3JtPSJtYXRyaXgoMS4yNDM0NTMsMCwwLDEuMjQzNDUzLC02LjcxMzc1NCwtMy43NDI4NDcpIi8+JiN4YTsgICAgPHJhZGlhbEdyYWRpZW50IGN4PSIyNy41NzcxNzMiIGN5PSIxNi4wNDkxMzMiIHI9IjMuODMzNTAzNSIgZng9IjI3LjU3NzE3MyIgZnk9IjE2LjA0OTEzMyIgaWQ9InJhZGlhbEdyYWRpZW50MTM1MiIgeGxpbms6aHJlZj0iI2xpbmVhckdyYWRpZW50MTE0OTQiIGdyYWRpZW50VW5pdHM9InVzZXJTcGFjZU9uVXNlIiBncmFkaWVudFRyYW5zZm9ybT0ibWF0cml4KDEuMjQzNDUzLDAsMCwxLjI0MzQ1MywtNi43MTM3NTQsLTMuNzQyODQ3KSIvPiYjeGE7ICAgIDxsaW5lYXJHcmFkaWVudCBpZD0ibGluZWFyR3JhZGllbnQxMTQ5NCI+JiN4YTsgICAgICA8c3RvcCBpZD0ic3RvcDExNDk2IiBzdHlsZT0ic3RvcC1jb2xvcjojZWYyOTI5O3N0b3Atb3BhY2l0eToxIiBvZmZzZXQ9IjAiLz4mI3hhOyAgICAgIDxzdG9wIGlkPSJzdG9wMTE0OTgiIHN0eWxlPSJzdG9wLWNvbG9yOiNlZjI5Mjk7c3RvcC1vcGFjaXR5OjAiIG9mZnNldD0iMSIvPiYjeGE7ICAgIDwvbGluZWFyR3JhZGllbnQ+JiN4YTsgICAgPGxpbmVhckdyYWRpZW50IGlkPSJsaW5lYXJHcmFkaWVudDExNTA4Ij4mI3hhOyAgICAgIDxzdG9wIGlkPSJzdG9wMTE1MTAiIHN0eWxlPSJzdG9wLWNvbG9yOiMwMDAwMDA7c3RvcC1vcGFjaXR5OjEiIG9mZnNldD0iMCIvPiYjeGE7ICAgICAgPHN0b3AgaWQ9InN0b3AxMTUxMiIgc3R5bGU9InN0b3AtY29sb3I6IzAwMDAwMDtzdG9wLW9wYWNpdHk6MCIgb2Zmc2V0PSIxIi8+JiN4YTsgICAgPC9saW5lYXJHcmFkaWVudD4mI3hhOyAgICA8bGluZWFyR3JhZGllbnQgaWQ9ImxpbmVhckdyYWRpZW50MTE1MjAiPiYjeGE7ICAgICAgPHN0b3AgaWQ9InN0b3AxMTUyMiIgc3R5bGU9InN0b3AtY29sb3I6I2ZmZmZmZjtzdG9wLW9wYWNpdHk6MSIgb2Zmc2V0PSIwIi8+JiN4YTsgICAgICA8c3RvcCBpZD0ic3RvcDExNTI0IiBzdHlsZT0ic3RvcC1jb2xvcjojZGNkY2RjO3N0b3Atb3BhY2l0eToxIiBvZmZzZXQ9IjEiLz4mI3hhOyAgICA8L2xpbmVhckdyYWRpZW50PiYjeGE7ICAgIDxsaW5lYXJHcmFkaWVudCB4MT0iMzAyLjg1NzE1IiB5MT0iMzY2LjY0Nzg5IiB4Mj0iMzAyLjg1NzE1IiB5Mj0iNjA5LjUwNTA3IiBpZD0ibGluZWFyR3JhZGllbnQ2NzE1IiB4bGluazpocmVmPSIjbGluZWFyR3JhZGllbnQ1MDQ4IiBncmFkaWVudFVuaXRzPSJ1c2VyU3BhY2VPblVzZSIgZ3JhZGllbnRUcmFuc2Zvcm09Im1hdHJpeCgyLjc3NDM4OSwwLDAsMS45Njk3MDYsLTE4OTIuMTc5LC04NzIuODg1NCkiLz4mI3hhOyAgICA8cmFkaWFsR3JhZGllbnQgY3g9IjYwNS43MTQyOSIgY3k9IjQ4Ni42NDc4OSIgcj0iMTE3LjE0Mjg2IiBmeD0iNjA1LjcxNDI5IiBmeT0iNDg2LjY0Nzg5IiBpZD0icmFkaWFsR3JhZGllbnQ2NzE3IiB4bGluazpocmVmPSIjbGluZWFyR3JhZGllbnQ1MDYwIiBncmFkaWVudFVuaXRzPSJ1c2VyU3BhY2VPblVzZSIgZ3JhZGllbnRUcmFuc2Zvcm09Im1hdHJpeCgyLjc3NDM4OSwwLDAsMS45Njk3MDYsLTE4OTEuNjMzLC04NzIuODg1NCkiLz4mI3hhOyAgICA8cmFkaWFsR3JhZGllbnQgY3g9IjYwNS43MTQyOSIgY3k9IjQ4Ni42NDc4OSIgcj0iMTE3LjE0Mjg2IiBmeD0iNjA1LjcxNDI5IiBmeT0iNDg2LjY0Nzg5IiBpZD0icmFkaWFsR3JhZGllbnQ2NzE5IiB4bGluazpocmVmPSIjbGluZWFyR3JhZGllbnQ1MDYwIiBncmFkaWVudFVuaXRzPSJ1c2VyU3BhY2VPblVzZSIgZ3JhZGllbnRUcmFuc2Zvcm09Im1hdHJpeCgtMi43NzQzODksMCwwLDEuOTY5NzA2LDExMi43NjIzLC04NzIuODg1NCkiLz4mI3hhOyAgPC9kZWZzPiYjeGE7ICA8ZyBpZD0ibGF5ZXIxIiBzdHlsZT0iZGlzcGxheTppbmxpbmUiLz4mI3hhOyAgPGcgaWQ9ImxheWVyMiIgc3R5bGU9ImRpc3BsYXk6aW5saW5lIj4mI3hhOyAgICA8ZyB0cmFuc2Zvcm09Im1hdHJpeCgyLjQ4NTM3MjMsMCwwLDIuNDg1MzcyMywzLjMyMDYzODYsMi4wNTg4MTU4KSIgaWQ9ImczNDA0MSI+JiN4YTsgICAgICA8ZyB0cmFuc2Zvcm09Im1hdHJpeCgwLjAyMjQzNDI1LDAsMCwwLjAyMDg2NzU4LDQ0LjMxMDk1LDQwLjg2Nzg5KSIgaWQ9Imc2NzA3Ij4mI3hhOyAgICAgICAgPHJlY3Qgd2lkdGg9IjEzMzkuNjMzNSIgaGVpZ2h0PSI0NzguMzU3MTgiIHg9Ii0xNTU5LjI1MjMiIHk9Ii0xNTAuNjk2ODUiIGlkPSJyZWN0NjcwOSIgc3R5bGU9Im9wYWNpdHk6MC40MDIwNjE4NTtmaWxsOnVybCgjbGluZWFyR3JhZGllbnQ2NzE1KTtmaWxsLW9wYWNpdHk6MTtmaWxsLXJ1bGU6bm9uemVybztzdHJva2U6bm9uZTtzdHJva2Utd2lkdGg6MTttYXJrZXI6bm9uZTt2aXNpYmlsaXR5OnZpc2libGU7ZGlzcGxheTppbmxpbmU7b3ZlcmZsb3c6dmlzaWJsZSIvPiYjeGE7ICAgICAgICA8cGF0aCBkPSJtIC0yMTkuNjE4NzYsLTE1MC42ODAzOCBjIDAsMCAwLDQ3OC4zMzA3OSAwLDQ3OC4zMzA3OSAxNDIuODc0MTY2LDAuOTAwNDUgMzQ1LjQwMDIyLC0xMDcuMTY5NjYgMzQ1LjQwMDE0LC0yMzkuMTk2MTc1IDAsLTEzMi4wMjY1MzcgLTE1OS40MzY4MTYsLTIzOS4xMzQ1OTUgLTM0NS40MDAxNCwtMjM5LjEzNDYxNSB6IiBpZD0icGF0aDY3MTEiIHN0eWxlPSJvcGFjaXR5OjAuNDAyMDYxODU7ZmlsbDp1cmwoI3JhZGlhbEdyYWRpZW50NjcxNyk7ZmlsbC1vcGFjaXR5OjE7ZmlsbC1ydWxlOm5vbnplcm87c3Ryb2tlOm5vbmU7c3Ryb2tlLXdpZHRoOjE7bWFya2VyOm5vbmU7dmlzaWJpbGl0eTp2aXNpYmxlO2Rpc3BsYXk6aW5saW5lO292ZXJmbG93OnZpc2libGUiLz4mI3hhOyAgICAgICAgPHBhdGggZD0ibSAtMTU1OS4yNTIzLC0xNTAuNjgwMzggYyAwLDAgMCw0NzguMzMwNzkgMCw0NzguMzMwNzkgLTE0Mi44NzQyLDAuOTAwNDUgLTM0NS40MDAyLC0xMDcuMTY5NjYgLTM0NS40MDAyLC0yMzkuMTk2MTc1IDAsLTEzMi4wMjY1MzcgMTU5LjQzNjgsLTIzOS4xMzQ1OTUgMzQ1LjQwMDIsLTIzOS4xMzQ2MTUgeiIgaWQ9InBhdGg2NzEzIiBzdHlsZT0ib3BhY2l0eTowLjQwMjA2MTg1O2ZpbGw6dXJsKCNyYWRpYWxHcmFkaWVudDY3MTkpO2ZpbGwtb3BhY2l0eToxO2ZpbGwtcnVsZTpub256ZXJvO3N0cm9rZTpub25lO3N0cm9rZS13aWR0aDoxO21hcmtlcjpub25lO3Zpc2liaWxpdHk6dmlzaWJsZTtkaXNwbGF5OmlubGluZTtvdmVyZmxvdzp2aXNpYmxlIi8+JiN4YTsgICAgICA8L2c+JiN4YTsgICAgICA8cmVjdCB3aWR0aD0iNDAuMDYxOTI0IiBoZWlnaHQ9IjQwLjA2MTkyNCIgcng9IjUuNDU0ODI0IiByeT0iNS40NTQ4MjQiIHg9IjQuNDE0NzI4MiIgeT0iMy41MjMzNDUyIiBpZD0icmVjdDExNTE4IiBzdHlsZT0iZmlsbDp1cmwoI3JhZGlhbEdyYWRpZW50MTM2Nik7ZmlsbC1vcGFjaXR5OjE7ZmlsbC1ydWxlOmV2ZW5vZGQ7c3Ryb2tlOiM5YjliOWI7c3Ryb2tlLXdpZHRoOjE7c3Ryb2tlLWxpbmVjYXA6YnV0dDtzdHJva2UtbGluZWpvaW46YmV2ZWw7c3Ryb2tlLW1pdGVybGltaXQ6MTA7c3Ryb2tlLW9wYWNpdHk6MTtzdHJva2UtZGFzaGFycmF5Om5vbmU7c3Ryb2tlLWRhc2hvZmZzZXQ6MDttYXJrZXI6bm9uZTt2aXNpYmlsaXR5OnZpc2libGU7ZGlzcGxheTppbmxpbmU7b3ZlcmZsb3c6dmlzaWJsZSIvPiYjeGE7ICAgICAgPHBhdGggZD0ibSAyMC4yMjQ5MDMsMzguOTU1NjY4IDQuNTk1MDM1LC0xNC41OTU5OTQgNS4zMTU4MjUsMTQuNTk1OTk0IiBpZD0icGF0aDExNDg2IiBzdHlsZT0iZmlsbDpub25lO3N0cm9rZTojMDAwMDAwO3N0cm9rZS13aWR0aDoxLjAwMDAwMDM2O3N0cm9rZS1saW5lY2FwOmJ1dHQ7c3Ryb2tlLWxpbmVqb2luOm1pdGVyO3N0cm9rZS1taXRlcmxpbWl0OjEwO3N0cm9rZS1vcGFjaXR5OjE7c3Ryb2tlLWRhc2hhcnJheTpub25lO3N0cm9rZS1kYXNob2Zmc2V0OjA7bWFya2VyOm5vbmU7dmlzaWJpbGl0eTp2aXNpYmxlO2Rpc3BsYXk6aW5saW5lO292ZXJmbG93OnZpc2libGUiLz4mI3hhOyAgICAgIDxwYXRoIGQ9Im0gMzAuOTEwNjY3LDE4LjYwNDU2MSBhIDMuMzMzNTAzNSwzLjMzMzUwMzUgMCAxIDEgLTYuNjY3MDA3LDAgMy4zMzM1MDM1LDMuMzMzNTAzNSAwIDEgMSA2LjY2NzAwNywwIHoiIHRyYW5zZm9ybT0ibWF0cml4KDAuNjg5MjIsMCwwLDAuNjg5MjIsNS43NjgxNTUsMTEuMDY5KSIgaWQ9InBhdGgxMTQ4MiIgc3R5bGU9ImZpbGw6I2VmMjkyOTtmaWxsLW9wYWNpdHk6MTtmaWxsLXJ1bGU6ZXZlbm9kZDtzdHJva2U6bm9uZTtzdHJva2Utd2lkdGg6MC45OTk5OTk4MjttYXJrZXI6bm9uZTt2aXNpYmlsaXR5OnZpc2libGU7ZGlzcGxheTppbmxpbmU7b3ZlcmZsb3c6dmlzaWJsZSIvPiYjeGE7ICAgICAgPHBhdGggZD0ibSAzMC45MTA2NjcsMTguNjA0NTYxIGEgMy4zMzM1MDM1LDMuMzMzNTAzNSAwIDEgMSAtNi42NjcwMDcsMCAzLjMzMzUwMzUsMy4zMzM1MDM1IDAgMSAxIDYuNjY3MDA3LDAgeiIgdHJhbnNmb3JtPSJtYXRyaXgoMi4zODIzMDMsMCwwLDIuMzgyMzAzLC00MC45MjIyOSwtMjAuNDMwMDcpIiBpZD0icGF0aDExNDg4IiBzdHlsZT0iZmlsbDpub25lO3N0cm9rZTp1cmwoI3JhZGlhbEdyYWRpZW50MTM1Mik7c3Ryb2tlLXdpZHRoOjEuMTgxMjc2NDQ7c3Ryb2tlLWxpbmVjYXA6YnV0dDtzdHJva2UtbGluZWpvaW46bWl0ZXI7c3Ryb2tlLW1pdGVybGltaXQ6MTA7c3Ryb2tlLW9wYWNpdHk6MTtzdHJva2UtZGFzaGFycmF5Om5vbmU7c3Ryb2tlLWRhc2hvZmZzZXQ6MDttYXJrZXI6bm9uZTt2aXNpYmlsaXR5OnZpc2libGU7ZGlzcGxheTppbmxpbmU7b3ZlcmZsb3c6dmlzaWJsZSIvPiYjeGE7ICAgICAgPHBhdGggZD0ibSAzMC45MTA2NjcsMTguNjA0NTYxIGEgMy4zMzM1MDM1LDMuMzMzNTAzNSAwIDEgMSAtNi42NjcwMDcsMCAzLjMzMzUwMzUsMy4zMzM1MDM1IDAgMSAxIDYuNjY3MDA3LDAgeiIgdHJhbnNmb3JtPSJtYXRyaXgoNC42NTc2MDgsMCwwLDQuNjU3NjA4LC0xMDMuNjY5LC02Mi43NjExMykiIGlkPSJwYXRoMTE0OTAiIHN0eWxlPSJmaWxsOm5vbmU7c3Ryb2tlOnVybCgjcmFkaWFsR3JhZGllbnQxMzU0KTtzdHJva2Utd2lkdGg6MC42MDQyMDY3NDtzdHJva2UtbGluZWNhcDpidXR0O3N0cm9rZS1saW5lam9pbjptaXRlcjtzdHJva2UtbWl0ZXJsaW1pdDoxMDtzdHJva2Utb3BhY2l0eToxO3N0cm9rZS1kYXNoYXJyYXk6bm9uZTtzdHJva2UtZGFzaG9mZnNldDowO21hcmtlcjpub25lO3Zpc2liaWxpdHk6dmlzaWJsZTtkaXNwbGF5OmlubGluZTtvdmVyZmxvdzp2aXNpYmxlIi8+JiN4YTsgICAgICA8cGF0aCBkPSJtIDM2Ljc2OTU1Myw0NC41NjU0ODMgYSA2LjU2NTk5MTUsMi4yMjIzMzU2IDAgMSAxIC0xMy4xMzE5ODMsMCA2LjU2NTk5MTUsMi4yMjIzMzU2IDAgMSAxIDEzLjEzMTk4MywwIHoiIHRyYW5zZm9ybT0ibWF0cml4KDEuNTY3NzQxLDAsMCwxLjU2Nzc0MSwtMjIuMjU2NTYsLTMxLjk5NTU5KSIgaWQ9InBhdGgxMTUwNiIgc3R5bGU9Im9wYWNpdHk6MC4xNzY0NzA1OTtmaWxsOnVybCgjcmFkaWFsR3JhZGllbnQxMzU2KTtmaWxsLW9wYWNpdHk6MTtmaWxsLXJ1bGU6ZXZlbm9kZDtzdHJva2U6bm9uZTtzdHJva2Utd2lkdGg6Mi44MTQxNTg0NDttYXJrZXI6bm9uZTt2aXNpYmlsaXR5OnZpc2libGU7ZGlzcGxheTppbmxpbmU7b3ZlcmZsb3c6dmlzaWJsZSIvPiYjeGE7ICAgICAgPHBhdGggZD0ibSAyMy44MTIxMDgsMjguNTcxODU2IDIuOTA3NDY1LDAuODU1MTM2IC00LjI3NTY4MywyLjkwNzQ2NSA1LjgxNDkyOCwxLjUzOTI0NSAtNy4xODMxNDcsMi45MDc0NjUgOC41NTEzNjYsMC44NTUxMzciIGlkPSJwYXRoMTE1MTYiIHN0eWxlPSJmaWxsOm5vbmU7c3Ryb2tlOiMwMDAwMDA7c3Ryb2tlLXdpZHRoOjEuMDAwMDAwMzY7c3Ryb2tlLWxpbmVjYXA6YnV0dDtzdHJva2UtbGluZWpvaW46YmV2ZWw7c3Ryb2tlLW1pdGVybGltaXQ6MTA7c3Ryb2tlLW9wYWNpdHk6MTtzdHJva2UtZGFzaGFycmF5Om5vbmU7c3Ryb2tlLWRhc2hvZmZzZXQ6MDttYXJrZXI6bm9uZTt2aXNpYmlsaXR5OnZpc2libGU7ZGlzcGxheTppbmxpbmU7b3ZlcmZsb3c6dmlzaWJsZSIvPiYjeGE7ICAgICAgPHJlY3Qgd2lkdGg9IjM3LjY5NjU4NyIgaGVpZ2h0PSIzNy42OTY1ODciIHJ4PSI0LjI0MjYzOTEiIHJ5PSI0LjI0MjYzOTEiIHg9IjUuNTk3Mzg4NyIgeT0iNC43MDYwMDciIGlkPSJyZWN0MTE1MjgiIHN0eWxlPSJmaWxsOm5vbmU7c3Ryb2tlOiNmZmZmZmY7c3Ryb2tlLXdpZHRoOjAuOTk5OTk5NzY7c3Ryb2tlLWxpbmVjYXA6YnV0dDtzdHJva2UtbGluZWpvaW46YmV2ZWw7c3Ryb2tlLW1pdGVybGltaXQ6MTA7c3Ryb2tlLW9wYWNpdHk6MTtzdHJva2UtZGFzaGFycmF5Om5vbmU7c3Ryb2tlLWRhc2hvZmZzZXQ6MDttYXJrZXI6bm9uZTt2aXNpYmlsaXR5OnZpc2libGU7ZGlzcGxheTppbmxpbmU7b3ZlcmZsb3c6dmlzaWJsZSIvPiYjeGE7ICAgIDwvZz4mI3hhOyAgPC9nPiYjeGE7PC9zdmc+;movableLabel=1;connectable=1;html=1;snapToPoint=1;" parent="1" vertex="1">
            <mxGeometry x="360" y="-770" width="80" height="80" as="geometry">
              <mxPoint y="-100" as="offset" />
            </mxGeometry>
          </mxCell>
        </object>
        <mxCell id="YRLlY--aoW11vG_20f-W-77" style="edgeStyle=orthogonalEdgeStyle;jumpStyle=none;orthogonalLoop=1;jettySize=auto;html=1;startArrow=classic;startFill=1;endArrow=classic;endFill=1;" parent="1" source="YRLlY--aoW11vG_20f-W-16" edge="1">
          <mxGeometry relative="1" as="geometry">
            <mxPoint x="790" y="-610" as="targetPoint" />
            <Array as="points">
              <mxPoint x="750" y="-660" />
              <mxPoint x="790" y="-660" />
            </Array>
          </mxGeometry>
        </mxCell>
        <object label="GL-IOT" IS5GHZ="No" IS2.4GHZ="Yes" SSID="GL-IOT" Network="192.168.42.0/24" VLANID="42" placeholders="null" id="YRLlY--aoW11vG_20f-W-16">
          <mxCell style="shape=image;verticalLabelPosition=bottom;labelBackgroundColor=default;verticalAlign=top;aspect=fixed;imageAspect=0;image=data:image/svg+xml,PHN2ZyB4bWxuczpzdmc9Imh0dHA6Ly93d3cudzMub3JnLzIwMDAvc3ZnIiB4bWxucz0iaHR0cDovL3d3dy53My5vcmcvMjAwMC9zdmciIHhtbG5zOnhsaW5rPSJodHRwOi8vd3d3LnczLm9yZy8xOTk5L3hsaW5rIiB2ZXJzaW9uPSIxLjAiIHdpZHRoPSIxMjgiIGhlaWdodD0iMTI4IiBpZD0ic3ZnMjEwOCIgdmlld0JveD0iMCAwIDEyOCAxMjgiPiYjeGE7ICA8ZGVmcyBpZD0iZGVmczMiPiYjeGE7ICAgIDxsaW5lYXJHcmFkaWVudCBpZD0ibGluZWFyR3JhZGllbnQ1MDQ4Ij4mI3hhOyAgICAgIDxzdG9wIGlkPSJzdG9wNTA1MCIgc3R5bGU9InN0b3AtY29sb3I6IzAwMDAwMDtzdG9wLW9wYWNpdHk6MCIgb2Zmc2V0PSIwIi8+JiN4YTsgICAgICA8c3RvcCBpZD0ic3RvcDUwNTYiIHN0eWxlPSJzdG9wLWNvbG9yOiMwMDAwMDA7c3RvcC1vcGFjaXR5OjEiIG9mZnNldD0iMC41Ii8+JiN4YTsgICAgICA8c3RvcCBpZD0ic3RvcDUwNTIiIHN0eWxlPSJzdG9wLWNvbG9yOiMwMDAwMDA7c3RvcC1vcGFjaXR5OjAiIG9mZnNldD0iMSIvPiYjeGE7ICAgIDwvbGluZWFyR3JhZGllbnQ+JiN4YTsgICAgPGxpbmVhckdyYWRpZW50IGlkPSJsaW5lYXJHcmFkaWVudDUwNjAiPiYjeGE7ICAgICAgPHN0b3AgaWQ9InN0b3A1MDYyIiBzdHlsZT0ic3RvcC1jb2xvcjojMDAwMDAwO3N0b3Atb3BhY2l0eToxIiBvZmZzZXQ9IjAiLz4mI3hhOyAgICAgIDxzdG9wIGlkPSJzdG9wNTA2NCIgc3R5bGU9InN0b3AtY29sb3I6IzAwMDAwMDtzdG9wLW9wYWNpdHk6MCIgb2Zmc2V0PSIxIi8+JiN4YTsgICAgPC9saW5lYXJHcmFkaWVudD4mI3hhOyAgICA8cmFkaWFsR3JhZGllbnQgY3g9IjI0LjQ0NTY5IiBjeT0iMzUuODc4MTciIHI9IjIwLjUzMDk2MiIgZng9IjI0LjQ0NTY5IiBmeT0iMzUuODc4MTciIGlkPSJyYWRpYWxHcmFkaWVudDEzNjYiIHhsaW5rOmhyZWY9IiNsaW5lYXJHcmFkaWVudDExNTIwIiBncmFkaWVudFVuaXRzPSJ1c2VyU3BhY2VPblVzZSIgZ3JhZGllbnRUcmFuc2Zvcm09Im1hdHJpeCgxLjk5NTA1OCwwLDAsMS45OTUwNTgsLTI0LjMyNDg4LC0zNS43MDA4NykiLz4mI3hhOyAgICA8cmFkaWFsR3JhZGllbnQgY3g9IjMwLjIwMzU2MiIgY3k9IjQ0LjU2NTQ4MyIgcj0iNi41NjU5OTE0IiBmeD0iMzAuMjAzNTYyIiBmeT0iNDQuNTY1NDgzIiBpZD0icmFkaWFsR3JhZGllbnQxMzU2IiB4bGluazpocmVmPSIjbGluZWFyR3JhZGllbnQxMTUwOCIgZ3JhZGllbnRVbml0cz0idXNlclNwYWNlT25Vc2UiIGdyYWRpZW50VHJhbnNmb3JtPSJtYXRyaXgoMSwwLDAsMC4zMzg0NjIsMCwyOS40ODE3OCkiLz4mI3hhOyAgICA8cmFkaWFsR3JhZGllbnQgY3g9IjI3LjU3NzE3MyIgY3k9IjE1LjA0ODI1OCIgcj0iMy44MzM1MDM1IiBmeD0iMjcuNTc3MTczIiBmeT0iMTUuMDQ4MjU4IiBpZD0icmFkaWFsR3JhZGllbnQxMzU0IiB4bGluazpocmVmPSIjbGluZWFyR3JhZGllbnQxMTQ5NCIgZ3JhZGllbnRVbml0cz0idXNlclNwYWNlT25Vc2UiIGdyYWRpZW50VHJhbnNmb3JtPSJtYXRyaXgoMS4yNDM0NTMsMCwwLDEuMjQzNDUzLC02LjcxMzc1NCwtMy43NDI4NDcpIi8+JiN4YTsgICAgPHJhZGlhbEdyYWRpZW50IGN4PSIyNy41NzcxNzMiIGN5PSIxNi4wNDkxMzMiIHI9IjMuODMzNTAzNSIgZng9IjI3LjU3NzE3MyIgZnk9IjE2LjA0OTEzMyIgaWQ9InJhZGlhbEdyYWRpZW50MTM1MiIgeGxpbms6aHJlZj0iI2xpbmVhckdyYWRpZW50MTE0OTQiIGdyYWRpZW50VW5pdHM9InVzZXJTcGFjZU9uVXNlIiBncmFkaWVudFRyYW5zZm9ybT0ibWF0cml4KDEuMjQzNDUzLDAsMCwxLjI0MzQ1MywtNi43MTM3NTQsLTMuNzQyODQ3KSIvPiYjeGE7ICAgIDxsaW5lYXJHcmFkaWVudCBpZD0ibGluZWFyR3JhZGllbnQxMTQ5NCI+JiN4YTsgICAgICA8c3RvcCBpZD0ic3RvcDExNDk2IiBzdHlsZT0ic3RvcC1jb2xvcjojZWYyOTI5O3N0b3Atb3BhY2l0eToxIiBvZmZzZXQ9IjAiLz4mI3hhOyAgICAgIDxzdG9wIGlkPSJzdG9wMTE0OTgiIHN0eWxlPSJzdG9wLWNvbG9yOiNlZjI5Mjk7c3RvcC1vcGFjaXR5OjAiIG9mZnNldD0iMSIvPiYjeGE7ICAgIDwvbGluZWFyR3JhZGllbnQ+JiN4YTsgICAgPGxpbmVhckdyYWRpZW50IGlkPSJsaW5lYXJHcmFkaWVudDExNTA4Ij4mI3hhOyAgICAgIDxzdG9wIGlkPSJzdG9wMTE1MTAiIHN0eWxlPSJzdG9wLWNvbG9yOiMwMDAwMDA7c3RvcC1vcGFjaXR5OjEiIG9mZnNldD0iMCIvPiYjeGE7ICAgICAgPHN0b3AgaWQ9InN0b3AxMTUxMiIgc3R5bGU9InN0b3AtY29sb3I6IzAwMDAwMDtzdG9wLW9wYWNpdHk6MCIgb2Zmc2V0PSIxIi8+JiN4YTsgICAgPC9saW5lYXJHcmFkaWVudD4mI3hhOyAgICA8bGluZWFyR3JhZGllbnQgaWQ9ImxpbmVhckdyYWRpZW50MTE1MjAiPiYjeGE7ICAgICAgPHN0b3AgaWQ9InN0b3AxMTUyMiIgc3R5bGU9InN0b3AtY29sb3I6I2ZmZmZmZjtzdG9wLW9wYWNpdHk6MSIgb2Zmc2V0PSIwIi8+JiN4YTsgICAgICA8c3RvcCBpZD0ic3RvcDExNTI0IiBzdHlsZT0ic3RvcC1jb2xvcjojZGNkY2RjO3N0b3Atb3BhY2l0eToxIiBvZmZzZXQ9IjEiLz4mI3hhOyAgICA8L2xpbmVhckdyYWRpZW50PiYjeGE7ICAgIDxsaW5lYXJHcmFkaWVudCB4MT0iMzAyLjg1NzE1IiB5MT0iMzY2LjY0Nzg5IiB4Mj0iMzAyLjg1NzE1IiB5Mj0iNjA5LjUwNTA3IiBpZD0ibGluZWFyR3JhZGllbnQ2NzE1IiB4bGluazpocmVmPSIjbGluZWFyR3JhZGllbnQ1MDQ4IiBncmFkaWVudFVuaXRzPSJ1c2VyU3BhY2VPblVzZSIgZ3JhZGllbnRUcmFuc2Zvcm09Im1hdHJpeCgyLjc3NDM4OSwwLDAsMS45Njk3MDYsLTE4OTIuMTc5LC04NzIuODg1NCkiLz4mI3hhOyAgICA8cmFkaWFsR3JhZGllbnQgY3g9IjYwNS43MTQyOSIgY3k9IjQ4Ni42NDc4OSIgcj0iMTE3LjE0Mjg2IiBmeD0iNjA1LjcxNDI5IiBmeT0iNDg2LjY0Nzg5IiBpZD0icmFkaWFsR3JhZGllbnQ2NzE3IiB4bGluazpocmVmPSIjbGluZWFyR3JhZGllbnQ1MDYwIiBncmFkaWVudFVuaXRzPSJ1c2VyU3BhY2VPblVzZSIgZ3JhZGllbnRUcmFuc2Zvcm09Im1hdHJpeCgyLjc3NDM4OSwwLDAsMS45Njk3MDYsLTE4OTEuNjMzLC04NzIuODg1NCkiLz4mI3hhOyAgICA8cmFkaWFsR3JhZGllbnQgY3g9IjYwNS43MTQyOSIgY3k9IjQ4Ni42NDc4OSIgcj0iMTE3LjE0Mjg2IiBmeD0iNjA1LjcxNDI5IiBmeT0iNDg2LjY0Nzg5IiBpZD0icmFkaWFsR3JhZGllbnQ2NzE5IiB4bGluazpocmVmPSIjbGluZWFyR3JhZGllbnQ1MDYwIiBncmFkaWVudFVuaXRzPSJ1c2VyU3BhY2VPblVzZSIgZ3JhZGllbnRUcmFuc2Zvcm09Im1hdHJpeCgtMi43NzQzODksMCwwLDEuOTY5NzA2LDExMi43NjIzLC04NzIuODg1NCkiLz4mI3hhOyAgPC9kZWZzPiYjeGE7ICA8ZyBpZD0ibGF5ZXIxIiBzdHlsZT0iZGlzcGxheTppbmxpbmUiLz4mI3hhOyAgPGcgaWQ9ImxheWVyMiIgc3R5bGU9ImRpc3BsYXk6aW5saW5lIj4mI3hhOyAgICA8ZyB0cmFuc2Zvcm09Im1hdHJpeCgyLjQ4NTM3MjMsMCwwLDIuNDg1MzcyMywzLjMyMDYzODYsMi4wNTg4MTU4KSIgaWQ9ImczNDA0MSI+JiN4YTsgICAgICA8ZyB0cmFuc2Zvcm09Im1hdHJpeCgwLjAyMjQzNDI1LDAsMCwwLjAyMDg2NzU4LDQ0LjMxMDk1LDQwLjg2Nzg5KSIgaWQ9Imc2NzA3Ij4mI3hhOyAgICAgICAgPHJlY3Qgd2lkdGg9IjEzMzkuNjMzNSIgaGVpZ2h0PSI0NzguMzU3MTgiIHg9Ii0xNTU5LjI1MjMiIHk9Ii0xNTAuNjk2ODUiIGlkPSJyZWN0NjcwOSIgc3R5bGU9Im9wYWNpdHk6MC40MDIwNjE4NTtmaWxsOnVybCgjbGluZWFyR3JhZGllbnQ2NzE1KTtmaWxsLW9wYWNpdHk6MTtmaWxsLXJ1bGU6bm9uemVybztzdHJva2U6bm9uZTtzdHJva2Utd2lkdGg6MTttYXJrZXI6bm9uZTt2aXNpYmlsaXR5OnZpc2libGU7ZGlzcGxheTppbmxpbmU7b3ZlcmZsb3c6dmlzaWJsZSIvPiYjeGE7ICAgICAgICA8cGF0aCBkPSJtIC0yMTkuNjE4NzYsLTE1MC42ODAzOCBjIDAsMCAwLDQ3OC4zMzA3OSAwLDQ3OC4zMzA3OSAxNDIuODc0MTY2LDAuOTAwNDUgMzQ1LjQwMDIyLC0xMDcuMTY5NjYgMzQ1LjQwMDE0LC0yMzkuMTk2MTc1IDAsLTEzMi4wMjY1MzcgLTE1OS40MzY4MTYsLTIzOS4xMzQ1OTUgLTM0NS40MDAxNCwtMjM5LjEzNDYxNSB6IiBpZD0icGF0aDY3MTEiIHN0eWxlPSJvcGFjaXR5OjAuNDAyMDYxODU7ZmlsbDp1cmwoI3JhZGlhbEdyYWRpZW50NjcxNyk7ZmlsbC1vcGFjaXR5OjE7ZmlsbC1ydWxlOm5vbnplcm87c3Ryb2tlOm5vbmU7c3Ryb2tlLXdpZHRoOjE7bWFya2VyOm5vbmU7dmlzaWJpbGl0eTp2aXNpYmxlO2Rpc3BsYXk6aW5saW5lO292ZXJmbG93OnZpc2libGUiLz4mI3hhOyAgICAgICAgPHBhdGggZD0ibSAtMTU1OS4yNTIzLC0xNTAuNjgwMzggYyAwLDAgMCw0NzguMzMwNzkgMCw0NzguMzMwNzkgLTE0Mi44NzQyLDAuOTAwNDUgLTM0NS40MDAyLC0xMDcuMTY5NjYgLTM0NS40MDAyLC0yMzkuMTk2MTc1IDAsLTEzMi4wMjY1MzcgMTU5LjQzNjgsLTIzOS4xMzQ1OTUgMzQ1LjQwMDIsLTIzOS4xMzQ2MTUgeiIgaWQ9InBhdGg2NzEzIiBzdHlsZT0ib3BhY2l0eTowLjQwMjA2MTg1O2ZpbGw6dXJsKCNyYWRpYWxHcmFkaWVudDY3MTkpO2ZpbGwtb3BhY2l0eToxO2ZpbGwtcnVsZTpub256ZXJvO3N0cm9rZTpub25lO3N0cm9rZS13aWR0aDoxO21hcmtlcjpub25lO3Zpc2liaWxpdHk6dmlzaWJsZTtkaXNwbGF5OmlubGluZTtvdmVyZmxvdzp2aXNpYmxlIi8+JiN4YTsgICAgICA8L2c+JiN4YTsgICAgICA8cmVjdCB3aWR0aD0iNDAuMDYxOTI0IiBoZWlnaHQ9IjQwLjA2MTkyNCIgcng9IjUuNDU0ODI0IiByeT0iNS40NTQ4MjQiIHg9IjQuNDE0NzI4MiIgeT0iMy41MjMzNDUyIiBpZD0icmVjdDExNTE4IiBzdHlsZT0iZmlsbDp1cmwoI3JhZGlhbEdyYWRpZW50MTM2Nik7ZmlsbC1vcGFjaXR5OjE7ZmlsbC1ydWxlOmV2ZW5vZGQ7c3Ryb2tlOiM5YjliOWI7c3Ryb2tlLXdpZHRoOjE7c3Ryb2tlLWxpbmVjYXA6YnV0dDtzdHJva2UtbGluZWpvaW46YmV2ZWw7c3Ryb2tlLW1pdGVybGltaXQ6MTA7c3Ryb2tlLW9wYWNpdHk6MTtzdHJva2UtZGFzaGFycmF5Om5vbmU7c3Ryb2tlLWRhc2hvZmZzZXQ6MDttYXJrZXI6bm9uZTt2aXNpYmlsaXR5OnZpc2libGU7ZGlzcGxheTppbmxpbmU7b3ZlcmZsb3c6dmlzaWJsZSIvPiYjeGE7ICAgICAgPHBhdGggZD0ibSAyMC4yMjQ5MDMsMzguOTU1NjY4IDQuNTk1MDM1LC0xNC41OTU5OTQgNS4zMTU4MjUsMTQuNTk1OTk0IiBpZD0icGF0aDExNDg2IiBzdHlsZT0iZmlsbDpub25lO3N0cm9rZTojMDAwMDAwO3N0cm9rZS13aWR0aDoxLjAwMDAwMDM2O3N0cm9rZS1saW5lY2FwOmJ1dHQ7c3Ryb2tlLWxpbmVqb2luOm1pdGVyO3N0cm9rZS1taXRlcmxpbWl0OjEwO3N0cm9rZS1vcGFjaXR5OjE7c3Ryb2tlLWRhc2hhcnJheTpub25lO3N0cm9rZS1kYXNob2Zmc2V0OjA7bWFya2VyOm5vbmU7dmlzaWJpbGl0eTp2aXNpYmxlO2Rpc3BsYXk6aW5saW5lO292ZXJmbG93OnZpc2libGUiLz4mI3hhOyAgICAgIDxwYXRoIGQ9Im0gMzAuOTEwNjY3LDE4LjYwNDU2MSBhIDMuMzMzNTAzNSwzLjMzMzUwMzUgMCAxIDEgLTYuNjY3MDA3LDAgMy4zMzM1MDM1LDMuMzMzNTAzNSAwIDEgMSA2LjY2NzAwNywwIHoiIHRyYW5zZm9ybT0ibWF0cml4KDAuNjg5MjIsMCwwLDAuNjg5MjIsNS43NjgxNTUsMTEuMDY5KSIgaWQ9InBhdGgxMTQ4MiIgc3R5bGU9ImZpbGw6I2VmMjkyOTtmaWxsLW9wYWNpdHk6MTtmaWxsLXJ1bGU6ZXZlbm9kZDtzdHJva2U6bm9uZTtzdHJva2Utd2lkdGg6MC45OTk5OTk4MjttYXJrZXI6bm9uZTt2aXNpYmlsaXR5OnZpc2libGU7ZGlzcGxheTppbmxpbmU7b3ZlcmZsb3c6dmlzaWJsZSIvPiYjeGE7ICAgICAgPHBhdGggZD0ibSAzMC45MTA2NjcsMTguNjA0NTYxIGEgMy4zMzM1MDM1LDMuMzMzNTAzNSAwIDEgMSAtNi42NjcwMDcsMCAzLjMzMzUwMzUsMy4zMzM1MDM1IDAgMSAxIDYuNjY3MDA3LDAgeiIgdHJhbnNmb3JtPSJtYXRyaXgoMi4zODIzMDMsMCwwLDIuMzgyMzAzLC00MC45MjIyOSwtMjAuNDMwMDcpIiBpZD0icGF0aDExNDg4IiBzdHlsZT0iZmlsbDpub25lO3N0cm9rZTp1cmwoI3JhZGlhbEdyYWRpZW50MTM1Mik7c3Ryb2tlLXdpZHRoOjEuMTgxMjc2NDQ7c3Ryb2tlLWxpbmVjYXA6YnV0dDtzdHJva2UtbGluZWpvaW46bWl0ZXI7c3Ryb2tlLW1pdGVybGltaXQ6MTA7c3Ryb2tlLW9wYWNpdHk6MTtzdHJva2UtZGFzaGFycmF5Om5vbmU7c3Ryb2tlLWRhc2hvZmZzZXQ6MDttYXJrZXI6bm9uZTt2aXNpYmlsaXR5OnZpc2libGU7ZGlzcGxheTppbmxpbmU7b3ZlcmZsb3c6dmlzaWJsZSIvPiYjeGE7ICAgICAgPHBhdGggZD0ibSAzMC45MTA2NjcsMTguNjA0NTYxIGEgMy4zMzM1MDM1LDMuMzMzNTAzNSAwIDEgMSAtNi42NjcwMDcsMCAzLjMzMzUwMzUsMy4zMzM1MDM1IDAgMSAxIDYuNjY3MDA3LDAgeiIgdHJhbnNmb3JtPSJtYXRyaXgoNC42NTc2MDgsMCwwLDQuNjU3NjA4LC0xMDMuNjY5LC02Mi43NjExMykiIGlkPSJwYXRoMTE0OTAiIHN0eWxlPSJmaWxsOm5vbmU7c3Ryb2tlOnVybCgjcmFkaWFsR3JhZGllbnQxMzU0KTtzdHJva2Utd2lkdGg6MC42MDQyMDY3NDtzdHJva2UtbGluZWNhcDpidXR0O3N0cm9rZS1saW5lam9pbjptaXRlcjtzdHJva2UtbWl0ZXJsaW1pdDoxMDtzdHJva2Utb3BhY2l0eToxO3N0cm9rZS1kYXNoYXJyYXk6bm9uZTtzdHJva2UtZGFzaG9mZnNldDowO21hcmtlcjpub25lO3Zpc2liaWxpdHk6dmlzaWJsZTtkaXNwbGF5OmlubGluZTtvdmVyZmxvdzp2aXNpYmxlIi8+JiN4YTsgICAgICA8cGF0aCBkPSJtIDM2Ljc2OTU1Myw0NC41NjU0ODMgYSA2LjU2NTk5MTUsMi4yMjIzMzU2IDAgMSAxIC0xMy4xMzE5ODMsMCA2LjU2NTk5MTUsMi4yMjIzMzU2IDAgMSAxIDEzLjEzMTk4MywwIHoiIHRyYW5zZm9ybT0ibWF0cml4KDEuNTY3NzQxLDAsMCwxLjU2Nzc0MSwtMjIuMjU2NTYsLTMxLjk5NTU5KSIgaWQ9InBhdGgxMTUwNiIgc3R5bGU9Im9wYWNpdHk6MC4xNzY0NzA1OTtmaWxsOnVybCgjcmFkaWFsR3JhZGllbnQxMzU2KTtmaWxsLW9wYWNpdHk6MTtmaWxsLXJ1bGU6ZXZlbm9kZDtzdHJva2U6bm9uZTtzdHJva2Utd2lkdGg6Mi44MTQxNTg0NDttYXJrZXI6bm9uZTt2aXNpYmlsaXR5OnZpc2libGU7ZGlzcGxheTppbmxpbmU7b3ZlcmZsb3c6dmlzaWJsZSIvPiYjeGE7ICAgICAgPHBhdGggZD0ibSAyMy44MTIxMDgsMjguNTcxODU2IDIuOTA3NDY1LDAuODU1MTM2IC00LjI3NTY4MywyLjkwNzQ2NSA1LjgxNDkyOCwxLjUzOTI0NSAtNy4xODMxNDcsMi45MDc0NjUgOC41NTEzNjYsMC44NTUxMzciIGlkPSJwYXRoMTE1MTYiIHN0eWxlPSJmaWxsOm5vbmU7c3Ryb2tlOiMwMDAwMDA7c3Ryb2tlLXdpZHRoOjEuMDAwMDAwMzY7c3Ryb2tlLWxpbmVjYXA6YnV0dDtzdHJva2UtbGluZWpvaW46YmV2ZWw7c3Ryb2tlLW1pdGVybGltaXQ6MTA7c3Ryb2tlLW9wYWNpdHk6MTtzdHJva2UtZGFzaGFycmF5Om5vbmU7c3Ryb2tlLWRhc2hvZmZzZXQ6MDttYXJrZXI6bm9uZTt2aXNpYmlsaXR5OnZpc2libGU7ZGlzcGxheTppbmxpbmU7b3ZlcmZsb3c6dmlzaWJsZSIvPiYjeGE7ICAgICAgPHJlY3Qgd2lkdGg9IjM3LjY5NjU4NyIgaGVpZ2h0PSIzNy42OTY1ODciIHJ4PSI0LjI0MjYzOTEiIHJ5PSI0LjI0MjYzOTEiIHg9IjUuNTk3Mzg4NyIgeT0iNC43MDYwMDciIGlkPSJyZWN0MTE1MjgiIHN0eWxlPSJmaWxsOm5vbmU7c3Ryb2tlOiNmZmZmZmY7c3Ryb2tlLXdpZHRoOjAuOTk5OTk5NzY7c3Ryb2tlLWxpbmVjYXA6YnV0dDtzdHJva2UtbGluZWpvaW46YmV2ZWw7c3Ryb2tlLW1pdGVybGltaXQ6MTA7c3Ryb2tlLW9wYWNpdHk6MTtzdHJva2UtZGFzaGFycmF5Om5vbmU7c3Ryb2tlLWRhc2hvZmZzZXQ6MDttYXJrZXI6bm9uZTt2aXNpYmlsaXR5OnZpc2libGU7ZGlzcGxheTppbmxpbmU7b3ZlcmZsb3c6dmlzaWJsZSIvPiYjeGE7ICAgIDwvZz4mI3hhOyAgPC9nPiYjeGE7PC9zdmc+;movableLabel=1;connectable=1;html=1;snapToPoint=1;" parent="1" vertex="1">
            <mxGeometry x="710" y="-770" width="80" height="80" as="geometry">
              <mxPoint y="-100" as="offset" />
            </mxGeometry>
          </mxCell>
        </object>
        <mxCell id="YRLlY--aoW11vG_20f-W-78" style="edgeStyle=orthogonalEdgeStyle;jumpStyle=none;orthogonalLoop=1;jettySize=auto;html=1;exitX=0.5;exitY=1;exitDx=0;exitDy=0;startArrow=classic;startFill=1;endArrow=classic;endFill=1;" parent="1" source="YRLlY--aoW11vG_20f-W-17" target="YRLlY--aoW11vG_20f-W-5" edge="1">
          <mxGeometry relative="1" as="geometry">
            <Array as="points">
              <mxPoint x="940" y="-660" />
              <mxPoint x="790" y="-660" />
            </Array>
          </mxGeometry>
        </mxCell>
        <object label="GL-HT" IS5GHZ="Yes" IS2.4GHZ="Yes" SSID="GL-HT" Network="192.168.70.0/24" VLANID="70" placeholders="null" id="YRLlY--aoW11vG_20f-W-17">
          <mxCell style="shape=image;verticalLabelPosition=bottom;labelBackgroundColor=default;verticalAlign=top;aspect=fixed;imageAspect=0;image=data:image/svg+xml,PHN2ZyB4bWxuczpzdmc9Imh0dHA6Ly93d3cudzMub3JnLzIwMDAvc3ZnIiB4bWxucz0iaHR0cDovL3d3dy53My5vcmcvMjAwMC9zdmciIHhtbG5zOnhsaW5rPSJodHRwOi8vd3d3LnczLm9yZy8xOTk5L3hsaW5rIiB2ZXJzaW9uPSIxLjAiIHdpZHRoPSIxMjgiIGhlaWdodD0iMTI4IiBpZD0ic3ZnMjEwOCIgdmlld0JveD0iMCAwIDEyOCAxMjgiPiYjeGE7ICA8ZGVmcyBpZD0iZGVmczMiPiYjeGE7ICAgIDxsaW5lYXJHcmFkaWVudCBpZD0ibGluZWFyR3JhZGllbnQ1MDQ4Ij4mI3hhOyAgICAgIDxzdG9wIGlkPSJzdG9wNTA1MCIgc3R5bGU9InN0b3AtY29sb3I6IzAwMDAwMDtzdG9wLW9wYWNpdHk6MCIgb2Zmc2V0PSIwIi8+JiN4YTsgICAgICA8c3RvcCBpZD0ic3RvcDUwNTYiIHN0eWxlPSJzdG9wLWNvbG9yOiMwMDAwMDA7c3RvcC1vcGFjaXR5OjEiIG9mZnNldD0iMC41Ii8+JiN4YTsgICAgICA8c3RvcCBpZD0ic3RvcDUwNTIiIHN0eWxlPSJzdG9wLWNvbG9yOiMwMDAwMDA7c3RvcC1vcGFjaXR5OjAiIG9mZnNldD0iMSIvPiYjeGE7ICAgIDwvbGluZWFyR3JhZGllbnQ+JiN4YTsgICAgPGxpbmVhckdyYWRpZW50IGlkPSJsaW5lYXJHcmFkaWVudDUwNjAiPiYjeGE7ICAgICAgPHN0b3AgaWQ9InN0b3A1MDYyIiBzdHlsZT0ic3RvcC1jb2xvcjojMDAwMDAwO3N0b3Atb3BhY2l0eToxIiBvZmZzZXQ9IjAiLz4mI3hhOyAgICAgIDxzdG9wIGlkPSJzdG9wNTA2NCIgc3R5bGU9InN0b3AtY29sb3I6IzAwMDAwMDtzdG9wLW9wYWNpdHk6MCIgb2Zmc2V0PSIxIi8+JiN4YTsgICAgPC9saW5lYXJHcmFkaWVudD4mI3hhOyAgICA8cmFkaWFsR3JhZGllbnQgY3g9IjI0LjQ0NTY5IiBjeT0iMzUuODc4MTciIHI9IjIwLjUzMDk2MiIgZng9IjI0LjQ0NTY5IiBmeT0iMzUuODc4MTciIGlkPSJyYWRpYWxHcmFkaWVudDEzNjYiIHhsaW5rOmhyZWY9IiNsaW5lYXJHcmFkaWVudDExNTIwIiBncmFkaWVudFVuaXRzPSJ1c2VyU3BhY2VPblVzZSIgZ3JhZGllbnRUcmFuc2Zvcm09Im1hdHJpeCgxLjk5NTA1OCwwLDAsMS45OTUwNTgsLTI0LjMyNDg4LC0zNS43MDA4NykiLz4mI3hhOyAgICA8cmFkaWFsR3JhZGllbnQgY3g9IjMwLjIwMzU2MiIgY3k9IjQ0LjU2NTQ4MyIgcj0iNi41NjU5OTE0IiBmeD0iMzAuMjAzNTYyIiBmeT0iNDQuNTY1NDgzIiBpZD0icmFkaWFsR3JhZGllbnQxMzU2IiB4bGluazpocmVmPSIjbGluZWFyR3JhZGllbnQxMTUwOCIgZ3JhZGllbnRVbml0cz0idXNlclNwYWNlT25Vc2UiIGdyYWRpZW50VHJhbnNmb3JtPSJtYXRyaXgoMSwwLDAsMC4zMzg0NjIsMCwyOS40ODE3OCkiLz4mI3hhOyAgICA8cmFkaWFsR3JhZGllbnQgY3g9IjI3LjU3NzE3MyIgY3k9IjE1LjA0ODI1OCIgcj0iMy44MzM1MDM1IiBmeD0iMjcuNTc3MTczIiBmeT0iMTUuMDQ4MjU4IiBpZD0icmFkaWFsR3JhZGllbnQxMzU0IiB4bGluazpocmVmPSIjbGluZWFyR3JhZGllbnQxMTQ5NCIgZ3JhZGllbnRVbml0cz0idXNlclNwYWNlT25Vc2UiIGdyYWRpZW50VHJhbnNmb3JtPSJtYXRyaXgoMS4yNDM0NTMsMCwwLDEuMjQzNDUzLC02LjcxMzc1NCwtMy43NDI4NDcpIi8+JiN4YTsgICAgPHJhZGlhbEdyYWRpZW50IGN4PSIyNy41NzcxNzMiIGN5PSIxNi4wNDkxMzMiIHI9IjMuODMzNTAzNSIgZng9IjI3LjU3NzE3MyIgZnk9IjE2LjA0OTEzMyIgaWQ9InJhZGlhbEdyYWRpZW50MTM1MiIgeGxpbms6aHJlZj0iI2xpbmVhckdyYWRpZW50MTE0OTQiIGdyYWRpZW50VW5pdHM9InVzZXJTcGFjZU9uVXNlIiBncmFkaWVudFRyYW5zZm9ybT0ibWF0cml4KDEuMjQzNDUzLDAsMCwxLjI0MzQ1MywtNi43MTM3NTQsLTMuNzQyODQ3KSIvPiYjeGE7ICAgIDxsaW5lYXJHcmFkaWVudCBpZD0ibGluZWFyR3JhZGllbnQxMTQ5NCI+JiN4YTsgICAgICA8c3RvcCBpZD0ic3RvcDExNDk2IiBzdHlsZT0ic3RvcC1jb2xvcjojZWYyOTI5O3N0b3Atb3BhY2l0eToxIiBvZmZzZXQ9IjAiLz4mI3hhOyAgICAgIDxzdG9wIGlkPSJzdG9wMTE0OTgiIHN0eWxlPSJzdG9wLWNvbG9yOiNlZjI5Mjk7c3RvcC1vcGFjaXR5OjAiIG9mZnNldD0iMSIvPiYjeGE7ICAgIDwvbGluZWFyR3JhZGllbnQ+JiN4YTsgICAgPGxpbmVhckdyYWRpZW50IGlkPSJsaW5lYXJHcmFkaWVudDExNTA4Ij4mI3hhOyAgICAgIDxzdG9wIGlkPSJzdG9wMTE1MTAiIHN0eWxlPSJzdG9wLWNvbG9yOiMwMDAwMDA7c3RvcC1vcGFjaXR5OjEiIG9mZnNldD0iMCIvPiYjeGE7ICAgICAgPHN0b3AgaWQ9InN0b3AxMTUxMiIgc3R5bGU9InN0b3AtY29sb3I6IzAwMDAwMDtzdG9wLW9wYWNpdHk6MCIgb2Zmc2V0PSIxIi8+JiN4YTsgICAgPC9saW5lYXJHcmFkaWVudD4mI3hhOyAgICA8bGluZWFyR3JhZGllbnQgaWQ9ImxpbmVhckdyYWRpZW50MTE1MjAiPiYjeGE7ICAgICAgPHN0b3AgaWQ9InN0b3AxMTUyMiIgc3R5bGU9InN0b3AtY29sb3I6I2ZmZmZmZjtzdG9wLW9wYWNpdHk6MSIgb2Zmc2V0PSIwIi8+JiN4YTsgICAgICA8c3RvcCBpZD0ic3RvcDExNTI0IiBzdHlsZT0ic3RvcC1jb2xvcjojZGNkY2RjO3N0b3Atb3BhY2l0eToxIiBvZmZzZXQ9IjEiLz4mI3hhOyAgICA8L2xpbmVhckdyYWRpZW50PiYjeGE7ICAgIDxsaW5lYXJHcmFkaWVudCB4MT0iMzAyLjg1NzE1IiB5MT0iMzY2LjY0Nzg5IiB4Mj0iMzAyLjg1NzE1IiB5Mj0iNjA5LjUwNTA3IiBpZD0ibGluZWFyR3JhZGllbnQ2NzE1IiB4bGluazpocmVmPSIjbGluZWFyR3JhZGllbnQ1MDQ4IiBncmFkaWVudFVuaXRzPSJ1c2VyU3BhY2VPblVzZSIgZ3JhZGllbnRUcmFuc2Zvcm09Im1hdHJpeCgyLjc3NDM4OSwwLDAsMS45Njk3MDYsLTE4OTIuMTc5LC04NzIuODg1NCkiLz4mI3hhOyAgICA8cmFkaWFsR3JhZGllbnQgY3g9IjYwNS43MTQyOSIgY3k9IjQ4Ni42NDc4OSIgcj0iMTE3LjE0Mjg2IiBmeD0iNjA1LjcxNDI5IiBmeT0iNDg2LjY0Nzg5IiBpZD0icmFkaWFsR3JhZGllbnQ2NzE3IiB4bGluazpocmVmPSIjbGluZWFyR3JhZGllbnQ1MDYwIiBncmFkaWVudFVuaXRzPSJ1c2VyU3BhY2VPblVzZSIgZ3JhZGllbnRUcmFuc2Zvcm09Im1hdHJpeCgyLjc3NDM4OSwwLDAsMS45Njk3MDYsLTE4OTEuNjMzLC04NzIuODg1NCkiLz4mI3hhOyAgICA8cmFkaWFsR3JhZGllbnQgY3g9IjYwNS43MTQyOSIgY3k9IjQ4Ni42NDc4OSIgcj0iMTE3LjE0Mjg2IiBmeD0iNjA1LjcxNDI5IiBmeT0iNDg2LjY0Nzg5IiBpZD0icmFkaWFsR3JhZGllbnQ2NzE5IiB4bGluazpocmVmPSIjbGluZWFyR3JhZGllbnQ1MDYwIiBncmFkaWVudFVuaXRzPSJ1c2VyU3BhY2VPblVzZSIgZ3JhZGllbnRUcmFuc2Zvcm09Im1hdHJpeCgtMi43NzQzODksMCwwLDEuOTY5NzA2LDExMi43NjIzLC04NzIuODg1NCkiLz4mI3hhOyAgPC9kZWZzPiYjeGE7ICA8ZyBpZD0ibGF5ZXIxIiBzdHlsZT0iZGlzcGxheTppbmxpbmUiLz4mI3hhOyAgPGcgaWQ9ImxheWVyMiIgc3R5bGU9ImRpc3BsYXk6aW5saW5lIj4mI3hhOyAgICA8ZyB0cmFuc2Zvcm09Im1hdHJpeCgyLjQ4NTM3MjMsMCwwLDIuNDg1MzcyMywzLjMyMDYzODYsMi4wNTg4MTU4KSIgaWQ9ImczNDA0MSI+JiN4YTsgICAgICA8ZyB0cmFuc2Zvcm09Im1hdHJpeCgwLjAyMjQzNDI1LDAsMCwwLjAyMDg2NzU4LDQ0LjMxMDk1LDQwLjg2Nzg5KSIgaWQ9Imc2NzA3Ij4mI3hhOyAgICAgICAgPHJlY3Qgd2lkdGg9IjEzMzkuNjMzNSIgaGVpZ2h0PSI0NzguMzU3MTgiIHg9Ii0xNTU5LjI1MjMiIHk9Ii0xNTAuNjk2ODUiIGlkPSJyZWN0NjcwOSIgc3R5bGU9Im9wYWNpdHk6MC40MDIwNjE4NTtmaWxsOnVybCgjbGluZWFyR3JhZGllbnQ2NzE1KTtmaWxsLW9wYWNpdHk6MTtmaWxsLXJ1bGU6bm9uemVybztzdHJva2U6bm9uZTtzdHJva2Utd2lkdGg6MTttYXJrZXI6bm9uZTt2aXNpYmlsaXR5OnZpc2libGU7ZGlzcGxheTppbmxpbmU7b3ZlcmZsb3c6dmlzaWJsZSIvPiYjeGE7ICAgICAgICA8cGF0aCBkPSJtIC0yMTkuNjE4NzYsLTE1MC42ODAzOCBjIDAsMCAwLDQ3OC4zMzA3OSAwLDQ3OC4zMzA3OSAxNDIuODc0MTY2LDAuOTAwNDUgMzQ1LjQwMDIyLC0xMDcuMTY5NjYgMzQ1LjQwMDE0LC0yMzkuMTk2MTc1IDAsLTEzMi4wMjY1MzcgLTE1OS40MzY4MTYsLTIzOS4xMzQ1OTUgLTM0NS40MDAxNCwtMjM5LjEzNDYxNSB6IiBpZD0icGF0aDY3MTEiIHN0eWxlPSJvcGFjaXR5OjAuNDAyMDYxODU7ZmlsbDp1cmwoI3JhZGlhbEdyYWRpZW50NjcxNyk7ZmlsbC1vcGFjaXR5OjE7ZmlsbC1ydWxlOm5vbnplcm87c3Ryb2tlOm5vbmU7c3Ryb2tlLXdpZHRoOjE7bWFya2VyOm5vbmU7dmlzaWJpbGl0eTp2aXNpYmxlO2Rpc3BsYXk6aW5saW5lO292ZXJmbG93OnZpc2libGUiLz4mI3hhOyAgICAgICAgPHBhdGggZD0ibSAtMTU1OS4yNTIzLC0xNTAuNjgwMzggYyAwLDAgMCw0NzguMzMwNzkgMCw0NzguMzMwNzkgLTE0Mi44NzQyLDAuOTAwNDUgLTM0NS40MDAyLC0xMDcuMTY5NjYgLTM0NS40MDAyLC0yMzkuMTk2MTc1IDAsLTEzMi4wMjY1MzcgMTU5LjQzNjgsLTIzOS4xMzQ1OTUgMzQ1LjQwMDIsLTIzOS4xMzQ2MTUgeiIgaWQ9InBhdGg2NzEzIiBzdHlsZT0ib3BhY2l0eTowLjQwMjA2MTg1O2ZpbGw6dXJsKCNyYWRpYWxHcmFkaWVudDY3MTkpO2ZpbGwtb3BhY2l0eToxO2ZpbGwtcnVsZTpub256ZXJvO3N0cm9rZTpub25lO3N0cm9rZS13aWR0aDoxO21hcmtlcjpub25lO3Zpc2liaWxpdHk6dmlzaWJsZTtkaXNwbGF5OmlubGluZTtvdmVyZmxvdzp2aXNpYmxlIi8+JiN4YTsgICAgICA8L2c+JiN4YTsgICAgICA8cmVjdCB3aWR0aD0iNDAuMDYxOTI0IiBoZWlnaHQ9IjQwLjA2MTkyNCIgcng9IjUuNDU0ODI0IiByeT0iNS40NTQ4MjQiIHg9IjQuNDE0NzI4MiIgeT0iMy41MjMzNDUyIiBpZD0icmVjdDExNTE4IiBzdHlsZT0iZmlsbDp1cmwoI3JhZGlhbEdyYWRpZW50MTM2Nik7ZmlsbC1vcGFjaXR5OjE7ZmlsbC1ydWxlOmV2ZW5vZGQ7c3Ryb2tlOiM5YjliOWI7c3Ryb2tlLXdpZHRoOjE7c3Ryb2tlLWxpbmVjYXA6YnV0dDtzdHJva2UtbGluZWpvaW46YmV2ZWw7c3Ryb2tlLW1pdGVybGltaXQ6MTA7c3Ryb2tlLW9wYWNpdHk6MTtzdHJva2UtZGFzaGFycmF5Om5vbmU7c3Ryb2tlLWRhc2hvZmZzZXQ6MDttYXJrZXI6bm9uZTt2aXNpYmlsaXR5OnZpc2libGU7ZGlzcGxheTppbmxpbmU7b3ZlcmZsb3c6dmlzaWJsZSIvPiYjeGE7ICAgICAgPHBhdGggZD0ibSAyMC4yMjQ5MDMsMzguOTU1NjY4IDQuNTk1MDM1LC0xNC41OTU5OTQgNS4zMTU4MjUsMTQuNTk1OTk0IiBpZD0icGF0aDExNDg2IiBzdHlsZT0iZmlsbDpub25lO3N0cm9rZTojMDAwMDAwO3N0cm9rZS13aWR0aDoxLjAwMDAwMDM2O3N0cm9rZS1saW5lY2FwOmJ1dHQ7c3Ryb2tlLWxpbmVqb2luOm1pdGVyO3N0cm9rZS1taXRlcmxpbWl0OjEwO3N0cm9rZS1vcGFjaXR5OjE7c3Ryb2tlLWRhc2hhcnJheTpub25lO3N0cm9rZS1kYXNob2Zmc2V0OjA7bWFya2VyOm5vbmU7dmlzaWJpbGl0eTp2aXNpYmxlO2Rpc3BsYXk6aW5saW5lO292ZXJmbG93OnZpc2libGUiLz4mI3hhOyAgICAgIDxwYXRoIGQ9Im0gMzAuOTEwNjY3LDE4LjYwNDU2MSBhIDMuMzMzNTAzNSwzLjMzMzUwMzUgMCAxIDEgLTYuNjY3MDA3LDAgMy4zMzM1MDM1LDMuMzMzNTAzNSAwIDEgMSA2LjY2NzAwNywwIHoiIHRyYW5zZm9ybT0ibWF0cml4KDAuNjg5MjIsMCwwLDAuNjg5MjIsNS43NjgxNTUsMTEuMDY5KSIgaWQ9InBhdGgxMTQ4MiIgc3R5bGU9ImZpbGw6I2VmMjkyOTtmaWxsLW9wYWNpdHk6MTtmaWxsLXJ1bGU6ZXZlbm9kZDtzdHJva2U6bm9uZTtzdHJva2Utd2lkdGg6MC45OTk5OTk4MjttYXJrZXI6bm9uZTt2aXNpYmlsaXR5OnZpc2libGU7ZGlzcGxheTppbmxpbmU7b3ZlcmZsb3c6dmlzaWJsZSIvPiYjeGE7ICAgICAgPHBhdGggZD0ibSAzMC45MTA2NjcsMTguNjA0NTYxIGEgMy4zMzM1MDM1LDMuMzMzNTAzNSAwIDEgMSAtNi42NjcwMDcsMCAzLjMzMzUwMzUsMy4zMzM1MDM1IDAgMSAxIDYuNjY3MDA3LDAgeiIgdHJhbnNmb3JtPSJtYXRyaXgoMi4zODIzMDMsMCwwLDIuMzgyMzAzLC00MC45MjIyOSwtMjAuNDMwMDcpIiBpZD0icGF0aDExNDg4IiBzdHlsZT0iZmlsbDpub25lO3N0cm9rZTp1cmwoI3JhZGlhbEdyYWRpZW50MTM1Mik7c3Ryb2tlLXdpZHRoOjEuMTgxMjc2NDQ7c3Ryb2tlLWxpbmVjYXA6YnV0dDtzdHJva2UtbGluZWpvaW46bWl0ZXI7c3Ryb2tlLW1pdGVybGltaXQ6MTA7c3Ryb2tlLW9wYWNpdHk6MTtzdHJva2UtZGFzaGFycmF5Om5vbmU7c3Ryb2tlLWRhc2hvZmZzZXQ6MDttYXJrZXI6bm9uZTt2aXNpYmlsaXR5OnZpc2libGU7ZGlzcGxheTppbmxpbmU7b3ZlcmZsb3c6dmlzaWJsZSIvPiYjeGE7ICAgICAgPHBhdGggZD0ibSAzMC45MTA2NjcsMTguNjA0NTYxIGEgMy4zMzM1MDM1LDMuMzMzNTAzNSAwIDEgMSAtNi42NjcwMDcsMCAzLjMzMzUwMzUsMy4zMzM1MDM1IDAgMSAxIDYuNjY3MDA3LDAgeiIgdHJhbnNmb3JtPSJtYXRyaXgoNC42NTc2MDgsMCwwLDQuNjU3NjA4LC0xMDMuNjY5LC02Mi43NjExMykiIGlkPSJwYXRoMTE0OTAiIHN0eWxlPSJmaWxsOm5vbmU7c3Ryb2tlOnVybCgjcmFkaWFsR3JhZGllbnQxMzU0KTtzdHJva2Utd2lkdGg6MC42MDQyMDY3NDtzdHJva2UtbGluZWNhcDpidXR0O3N0cm9rZS1saW5lam9pbjptaXRlcjtzdHJva2UtbWl0ZXJsaW1pdDoxMDtzdHJva2Utb3BhY2l0eToxO3N0cm9rZS1kYXNoYXJyYXk6bm9uZTtzdHJva2UtZGFzaG9mZnNldDowO21hcmtlcjpub25lO3Zpc2liaWxpdHk6dmlzaWJsZTtkaXNwbGF5OmlubGluZTtvdmVyZmxvdzp2aXNpYmxlIi8+JiN4YTsgICAgICA8cGF0aCBkPSJtIDM2Ljc2OTU1Myw0NC41NjU0ODMgYSA2LjU2NTk5MTUsMi4yMjIzMzU2IDAgMSAxIC0xMy4xMzE5ODMsMCA2LjU2NTk5MTUsMi4yMjIzMzU2IDAgMSAxIDEzLjEzMTk4MywwIHoiIHRyYW5zZm9ybT0ibWF0cml4KDEuNTY3NzQxLDAsMCwxLjU2Nzc0MSwtMjIuMjU2NTYsLTMxLjk5NTU5KSIgaWQ9InBhdGgxMTUwNiIgc3R5bGU9Im9wYWNpdHk6MC4xNzY0NzA1OTtmaWxsOnVybCgjcmFkaWFsR3JhZGllbnQxMzU2KTtmaWxsLW9wYWNpdHk6MTtmaWxsLXJ1bGU6ZXZlbm9kZDtzdHJva2U6bm9uZTtzdHJva2Utd2lkdGg6Mi44MTQxNTg0NDttYXJrZXI6bm9uZTt2aXNpYmlsaXR5OnZpc2libGU7ZGlzcGxheTppbmxpbmU7b3ZlcmZsb3c6dmlzaWJsZSIvPiYjeGE7ICAgICAgPHBhdGggZD0ibSAyMy44MTIxMDgsMjguNTcxODU2IDIuOTA3NDY1LDAuODU1MTM2IC00LjI3NTY4MywyLjkwNzQ2NSA1LjgxNDkyOCwxLjUzOTI0NSAtNy4xODMxNDcsMi45MDc0NjUgOC41NTEzNjYsMC44NTUxMzciIGlkPSJwYXRoMTE1MTYiIHN0eWxlPSJmaWxsOm5vbmU7c3Ryb2tlOiMwMDAwMDA7c3Ryb2tlLXdpZHRoOjEuMDAwMDAwMzY7c3Ryb2tlLWxpbmVjYXA6YnV0dDtzdHJva2UtbGluZWpvaW46YmV2ZWw7c3Ryb2tlLW1pdGVybGltaXQ6MTA7c3Ryb2tlLW9wYWNpdHk6MTtzdHJva2UtZGFzaGFycmF5Om5vbmU7c3Ryb2tlLWRhc2hvZmZzZXQ6MDttYXJrZXI6bm9uZTt2aXNpYmlsaXR5OnZpc2libGU7ZGlzcGxheTppbmxpbmU7b3ZlcmZsb3c6dmlzaWJsZSIvPiYjeGE7ICAgICAgPHJlY3Qgd2lkdGg9IjM3LjY5NjU4NyIgaGVpZ2h0PSIzNy42OTY1ODciIHJ4PSI0LjI0MjYzOTEiIHJ5PSI0LjI0MjYzOTEiIHg9IjUuNTk3Mzg4NyIgeT0iNC43MDYwMDciIGlkPSJyZWN0MTE1MjgiIHN0eWxlPSJmaWxsOm5vbmU7c3Ryb2tlOiNmZmZmZmY7c3Ryb2tlLXdpZHRoOjAuOTk5OTk5NzY7c3Ryb2tlLWxpbmVjYXA6YnV0dDtzdHJva2UtbGluZWpvaW46YmV2ZWw7c3Ryb2tlLW1pdGVybGltaXQ6MTA7c3Ryb2tlLW9wYWNpdHk6MTtzdHJva2UtZGFzaGFycmF5Om5vbmU7c3Ryb2tlLWRhc2hvZmZzZXQ6MDttYXJrZXI6bm9uZTt2aXNpYmlsaXR5OnZpc2libGU7ZGlzcGxheTppbmxpbmU7b3ZlcmZsb3c6dmlzaWJsZSIvPiYjeGE7ICAgIDwvZz4mI3hhOyAgPC9nPiYjeGE7PC9zdmc+;movableLabel=1;connectable=1;html=1;snapToPoint=1;" parent="1" vertex="1">
            <mxGeometry x="900" y="-770" width="80" height="80" as="geometry">
              <mxPoint y="-101" as="offset" />
            </mxGeometry>
          </mxCell>
        </object>
        <mxCell id="YRLlY--aoW11vG_20f-W-23" value="" style="endArrow=classic;startArrow=classic;html=1;jumpStyle=none;startFill=1;" parent="1" source="YRLlY--aoW11vG_20f-W-3" target="YRLlY--aoW11vG_20f-W-7" edge="1">
          <mxGeometry width="50" height="50" relative="1" as="geometry">
            <mxPoint x="90" y="-570" as="sourcePoint" />
            <mxPoint x="140" y="-620" as="targetPoint" />
          </mxGeometry>
        </mxCell>
        <mxCell id="YRLlY--aoW11vG_20f-W-21" value="Internet" style="image;html=1;labelBackgroundColor=#ffffff;image=img/lib/clip_art/networking/Cloud_128x128.png;rounded=1;shadow=0;comic=0;strokeWidth=2;fontSize=22;labelPosition=center;verticalLabelPosition=top;align=center;verticalAlign=bottom;" parent="1" vertex="1">
          <mxGeometry x="130" y="-790" width="80" height="80" as="geometry" />
        </mxCell>
        <mxCell id="YRLlY--aoW11vG_20f-W-29" value="" style="endArrow=classic;html=1;jumpStyle=none;startArrow=classic;startFill=1;entryX=0;entryY=0.5;entryDx=0;entryDy=0;entryPerimeter=0;" parent="1" target="YRLlY--aoW11vG_20f-W-95" edge="1">
          <mxGeometry relative="1" as="geometry">
            <mxPoint x="10" y="-675" as="sourcePoint" />
            <mxPoint x="40" y="-619.5" as="targetPoint" />
          </mxGeometry>
        </mxCell>
        <mxCell id="YRLlY--aoW11vG_20f-W-31" value="Jakamo" style="edgeLabel;resizable=0;html=1;align=left;verticalAlign=bottom;labelBackgroundColor=none;sketch=0;strokeColor=default;" parent="YRLlY--aoW11vG_20f-W-29" connectable="0" vertex="1">
          <mxGeometry x="-1" relative="1" as="geometry">
            <mxPoint x="10" as="offset" />
          </mxGeometry>
        </mxCell>
        <mxCell id="YRLlY--aoW11vG_20f-W-32" value="" style="endArrow=classic;html=1;jumpStyle=none;entryX=0;entryY=0;entryDx=0;entryDy=0;" parent="1" source="YRLlY--aoW11vG_20f-W-21" target="YRLlY--aoW11vG_20f-W-3" edge="1">
          <mxGeometry relative="1" as="geometry">
            <mxPoint x="130" y="-600" as="sourcePoint" />
            <mxPoint x="250" y="-580" as="targetPoint" />
            <Array as="points">
              <mxPoint x="250" y="-640" />
            </Array>
          </mxGeometry>
        </mxCell>
        <mxCell id="YRLlY--aoW11vG_20f-W-35" value="Port Wan" style="edgeLabel;resizable=0;html=1;align=right;verticalAlign=bottom;labelBackgroundColor=none;sketch=0;strokeColor=default;" parent="YRLlY--aoW11vG_20f-W-32" connectable="0" vertex="1">
          <mxGeometry x="1" relative="1" as="geometry">
            <mxPoint x="10" y="20" as="offset" />
          </mxGeometry>
        </mxCell>
        <mxCell id="YRLlY--aoW11vG_20f-W-36" value="" style="endArrow=classic;startArrow=classic;html=1;jumpStyle=none;exitX=0.75;exitY=0.125;exitDx=0;exitDy=0;exitPerimeter=0;" parent="1" source="YRLlY--aoW11vG_20f-W-3" target="YRLlY--aoW11vG_20f-W-10" edge="1">
          <mxGeometry width="50" height="50" relative="1" as="geometry">
            <mxPoint x="370" y="-580" as="sourcePoint" />
            <mxPoint x="420" y="-630" as="targetPoint" />
          </mxGeometry>
        </mxCell>
        <object label="" Network1="VLAN40 (192.168.40.0/24)" Network2="VLAN44 (192.168.44.0/24)" Network3="VLAN2000 (172.200.200.0/24)" id="YRLlY--aoW11vG_20f-W-40">
          <mxCell style="endArrow=classic;html=1;jumpStyle=none;startArrow=none;" parent="1" source="YRLlY--aoW11vG_20f-W-3" target="YRLlY--aoW11vG_20f-W-5" edge="1">
            <mxGeometry relative="1" as="geometry">
              <mxPoint x="490" y="-570" as="sourcePoint" />
              <mxPoint x="610" y="-560" as="targetPoint" />
              <Array as="points">
                <mxPoint x="580" y="-570" />
              </Array>
            </mxGeometry>
          </mxCell>
        </object>
        <mxCell id="YRLlY--aoW11vG_20f-W-43" value="Port 4" style="edgeLabel;resizable=0;html=1;align=right;verticalAlign=bottom;labelBackgroundColor=none;sketch=0;strokeColor=default;" parent="YRLlY--aoW11vG_20f-W-40" connectable="0" vertex="1">
          <mxGeometry x="1" relative="1" as="geometry" />
        </mxCell>
        <mxCell id="YRLlY--aoW11vG_20f-W-71" value="Port 4" style="edgeLabel;resizable=0;html=1;align=right;verticalAlign=bottom;labelBackgroundColor=none;sketch=0;strokeColor=default;" parent="YRLlY--aoW11vG_20f-W-40" connectable="0" vertex="1">
          <mxGeometry x="1" relative="1" as="geometry">
            <mxPoint x="-360" as="offset" />
          </mxGeometry>
        </mxCell>
        <mxCell id="YRLlY--aoW11vG_20f-W-56" value="" style="endArrow=classic;html=1;jumpStyle=none;entryX=0;entryY=1;entryDx=0;entryDy=0;exitX=0.43;exitY=1;exitDx=0;exitDy=5;exitPerimeter=0;" parent="1" source="YRLlY--aoW11vG_20f-W-95" target="YRLlY--aoW11vG_20f-W-5" edge="1">
          <mxGeometry relative="1" as="geometry">
            <mxPoint x="440" y="-600" as="sourcePoint" />
            <mxPoint x="770" y="-610" as="targetPoint" />
            <Array as="points">
              <mxPoint x="280" y="-530" />
              <mxPoint x="640" y="-530" />
            </Array>
          </mxGeometry>
        </mxCell>
        <mxCell id="YRLlY--aoW11vG_20f-W-57" value="Trunk" style="edgeLabel;resizable=0;html=1;align=center;verticalAlign=middle;labelBackgroundColor=none;sketch=0;strokeColor=default;" parent="YRLlY--aoW11vG_20f-W-56" connectable="0" vertex="1">
          <mxGeometry relative="1" as="geometry">
            <mxPoint y="-10" as="offset" />
          </mxGeometry>
        </mxCell>
        <mxCell id="YRLlY--aoW11vG_20f-W-59" value="Port3" style="edgeLabel;resizable=0;html=1;align=right;verticalAlign=bottom;labelBackgroundColor=none;sketch=0;strokeColor=default;" parent="YRLlY--aoW11vG_20f-W-56" connectable="0" vertex="1">
          <mxGeometry x="1" relative="1" as="geometry" />
        </mxCell>
        <mxCell id="YRLlY--aoW11vG_20f-W-68" value="&lt;span style=&quot;text-align: left&quot;&gt;rasia 8&lt;/span&gt;" style="edgeLabel;resizable=0;html=1;align=center;verticalAlign=middle;labelBackgroundColor=none;sketch=0;strokeColor=default;" parent="YRLlY--aoW11vG_20f-W-56" connectable="0" vertex="1">
          <mxGeometry relative="1" as="geometry">
            <mxPoint x="-305" y="-103" as="offset" />
          </mxGeometry>
        </mxCell>
        <mxCell id="YRLlY--aoW11vG_20f-W-99" value="&lt;span style=&quot;text-align: left&quot;&gt;rasia 7&lt;/span&gt;" style="edgeLabel;resizable=0;html=1;align=center;verticalAlign=middle;labelBackgroundColor=none;sketch=0;strokeColor=default;" parent="YRLlY--aoW11vG_20f-W-56" connectable="0" vertex="1">
          <mxGeometry relative="1" as="geometry">
            <mxPoint x="-331" y="-180" as="offset" />
          </mxGeometry>
        </mxCell>
        <object label="" VLANID="200" Network="192.168.200.0/24" id="YRLlY--aoW11vG_20f-W-63">
          <mxCell style="endArrow=classic;html=1;jumpStyle=none;entryX=0.25;entryY=0;entryDx=0;entryDy=0;" parent="1" target="YRLlY--aoW11vG_20f-W-5" edge="1">
            <mxGeometry relative="1" as="geometry">
              <mxPoint x="450" y="-640" as="sourcePoint" />
              <mxPoint x="650" y="-640" as="targetPoint" />
              <Array as="points">
                <mxPoint x="610" y="-640" />
                <mxPoint x="770" y="-640" />
              </Array>
            </mxGeometry>
          </mxCell>
        </object>
        <mxCell id="YRLlY--aoW11vG_20f-W-65" value="Backup&lt;br&gt;Wan" style="edgeLabel;resizable=0;html=1;align=left;verticalAlign=bottom;labelBackgroundColor=none;sketch=0;strokeColor=default;" parent="YRLlY--aoW11vG_20f-W-63" connectable="0" vertex="1">
          <mxGeometry x="-1" relative="1" as="geometry" />
        </mxCell>
        <mxCell id="YRLlY--aoW11vG_20f-W-66" value="Port Wan" style="edgeLabel;resizable=0;html=1;align=right;verticalAlign=bottom;labelBackgroundColor=none;sketch=0;strokeColor=default;" parent="YRLlY--aoW11vG_20f-W-63" connectable="0" vertex="1">
          <mxGeometry x="1" relative="1" as="geometry">
            <mxPoint x="-4" y="-10" as="offset" />
          </mxGeometry>
        </mxCell>
        <mxCell id="YRLlY--aoW11vG_20f-W-82" style="edgeStyle=orthogonalEdgeStyle;jumpStyle=none;orthogonalLoop=1;jettySize=auto;html=1;startArrow=classic;startFill=1;endArrow=classic;endFill=1;exitX=0.5;exitY=1;exitDx=0;exitDy=0;" parent="1" source="YRLlY--aoW11vG_20f-W-79" edge="1">
          <mxGeometry relative="1" as="geometry">
            <mxPoint x="790" y="-610" as="targetPoint" />
            <Array as="points">
              <mxPoint x="840" y="-660" />
              <mxPoint x="790" y="-660" />
            </Array>
          </mxGeometry>
        </mxCell>
        <object label="GL-IOT5G" IS5GHZ="Yes" IS2.4GHZ="No" SSID="GL-IOT5G" Network="192.168.42.0/24" VLANID="42" placeholders="null" id="YRLlY--aoW11vG_20f-W-79">
          <mxCell style="shape=image;verticalLabelPosition=bottom;labelBackgroundColor=default;verticalAlign=top;aspect=fixed;imageAspect=0;image=data:image/svg+xml,PHN2ZyB4bWxuczpzdmc9Imh0dHA6Ly93d3cudzMub3JnLzIwMDAvc3ZnIiB4bWxucz0iaHR0cDovL3d3dy53My5vcmcvMjAwMC9zdmciIHhtbG5zOnhsaW5rPSJodHRwOi8vd3d3LnczLm9yZy8xOTk5L3hsaW5rIiB2ZXJzaW9uPSIxLjAiIHdpZHRoPSIxMjgiIGhlaWdodD0iMTI4IiBpZD0ic3ZnMjEwOCIgdmlld0JveD0iMCAwIDEyOCAxMjgiPiYjeGE7ICA8ZGVmcyBpZD0iZGVmczMiPiYjeGE7ICAgIDxsaW5lYXJHcmFkaWVudCBpZD0ibGluZWFyR3JhZGllbnQ1MDQ4Ij4mI3hhOyAgICAgIDxzdG9wIGlkPSJzdG9wNTA1MCIgc3R5bGU9InN0b3AtY29sb3I6IzAwMDAwMDtzdG9wLW9wYWNpdHk6MCIgb2Zmc2V0PSIwIi8+JiN4YTsgICAgICA8c3RvcCBpZD0ic3RvcDUwNTYiIHN0eWxlPSJzdG9wLWNvbG9yOiMwMDAwMDA7c3RvcC1vcGFjaXR5OjEiIG9mZnNldD0iMC41Ii8+JiN4YTsgICAgICA8c3RvcCBpZD0ic3RvcDUwNTIiIHN0eWxlPSJzdG9wLWNvbG9yOiMwMDAwMDA7c3RvcC1vcGFjaXR5OjAiIG9mZnNldD0iMSIvPiYjeGE7ICAgIDwvbGluZWFyR3JhZGllbnQ+JiN4YTsgICAgPGxpbmVhckdyYWRpZW50IGlkPSJsaW5lYXJHcmFkaWVudDUwNjAiPiYjeGE7ICAgICAgPHN0b3AgaWQ9InN0b3A1MDYyIiBzdHlsZT0ic3RvcC1jb2xvcjojMDAwMDAwO3N0b3Atb3BhY2l0eToxIiBvZmZzZXQ9IjAiLz4mI3hhOyAgICAgIDxzdG9wIGlkPSJzdG9wNTA2NCIgc3R5bGU9InN0b3AtY29sb3I6IzAwMDAwMDtzdG9wLW9wYWNpdHk6MCIgb2Zmc2V0PSIxIi8+JiN4YTsgICAgPC9saW5lYXJHcmFkaWVudD4mI3hhOyAgICA8cmFkaWFsR3JhZGllbnQgY3g9IjI0LjQ0NTY5IiBjeT0iMzUuODc4MTciIHI9IjIwLjUzMDk2MiIgZng9IjI0LjQ0NTY5IiBmeT0iMzUuODc4MTciIGlkPSJyYWRpYWxHcmFkaWVudDEzNjYiIHhsaW5rOmhyZWY9IiNsaW5lYXJHcmFkaWVudDExNTIwIiBncmFkaWVudFVuaXRzPSJ1c2VyU3BhY2VPblVzZSIgZ3JhZGllbnRUcmFuc2Zvcm09Im1hdHJpeCgxLjk5NTA1OCwwLDAsMS45OTUwNTgsLTI0LjMyNDg4LC0zNS43MDA4NykiLz4mI3hhOyAgICA8cmFkaWFsR3JhZGllbnQgY3g9IjMwLjIwMzU2MiIgY3k9IjQ0LjU2NTQ4MyIgcj0iNi41NjU5OTE0IiBmeD0iMzAuMjAzNTYyIiBmeT0iNDQuNTY1NDgzIiBpZD0icmFkaWFsR3JhZGllbnQxMzU2IiB4bGluazpocmVmPSIjbGluZWFyR3JhZGllbnQxMTUwOCIgZ3JhZGllbnRVbml0cz0idXNlclNwYWNlT25Vc2UiIGdyYWRpZW50VHJhbnNmb3JtPSJtYXRyaXgoMSwwLDAsMC4zMzg0NjIsMCwyOS40ODE3OCkiLz4mI3hhOyAgICA8cmFkaWFsR3JhZGllbnQgY3g9IjI3LjU3NzE3MyIgY3k9IjE1LjA0ODI1OCIgcj0iMy44MzM1MDM1IiBmeD0iMjcuNTc3MTczIiBmeT0iMTUuMDQ4MjU4IiBpZD0icmFkaWFsR3JhZGllbnQxMzU0IiB4bGluazpocmVmPSIjbGluZWFyR3JhZGllbnQxMTQ5NCIgZ3JhZGllbnRVbml0cz0idXNlclNwYWNlT25Vc2UiIGdyYWRpZW50VHJhbnNmb3JtPSJtYXRyaXgoMS4yNDM0NTMsMCwwLDEuMjQzNDUzLC02LjcxMzc1NCwtMy43NDI4NDcpIi8+JiN4YTsgICAgPHJhZGlhbEdyYWRpZW50IGN4PSIyNy41NzcxNzMiIGN5PSIxNi4wNDkxMzMiIHI9IjMuODMzNTAzNSIgZng9IjI3LjU3NzE3MyIgZnk9IjE2LjA0OTEzMyIgaWQ9InJhZGlhbEdyYWRpZW50MTM1MiIgeGxpbms6aHJlZj0iI2xpbmVhckdyYWRpZW50MTE0OTQiIGdyYWRpZW50VW5pdHM9InVzZXJTcGFjZU9uVXNlIiBncmFkaWVudFRyYW5zZm9ybT0ibWF0cml4KDEuMjQzNDUzLDAsMCwxLjI0MzQ1MywtNi43MTM3NTQsLTMuNzQyODQ3KSIvPiYjeGE7ICAgIDxsaW5lYXJHcmFkaWVudCBpZD0ibGluZWFyR3JhZGllbnQxMTQ5NCI+JiN4YTsgICAgICA8c3RvcCBpZD0ic3RvcDExNDk2IiBzdHlsZT0ic3RvcC1jb2xvcjojZWYyOTI5O3N0b3Atb3BhY2l0eToxIiBvZmZzZXQ9IjAiLz4mI3hhOyAgICAgIDxzdG9wIGlkPSJzdG9wMTE0OTgiIHN0eWxlPSJzdG9wLWNvbG9yOiNlZjI5Mjk7c3RvcC1vcGFjaXR5OjAiIG9mZnNldD0iMSIvPiYjeGE7ICAgIDwvbGluZWFyR3JhZGllbnQ+JiN4YTsgICAgPGxpbmVhckdyYWRpZW50IGlkPSJsaW5lYXJHcmFkaWVudDExNTA4Ij4mI3hhOyAgICAgIDxzdG9wIGlkPSJzdG9wMTE1MTAiIHN0eWxlPSJzdG9wLWNvbG9yOiMwMDAwMDA7c3RvcC1vcGFjaXR5OjEiIG9mZnNldD0iMCIvPiYjeGE7ICAgICAgPHN0b3AgaWQ9InN0b3AxMTUxMiIgc3R5bGU9InN0b3AtY29sb3I6IzAwMDAwMDtzdG9wLW9wYWNpdHk6MCIgb2Zmc2V0PSIxIi8+JiN4YTsgICAgPC9saW5lYXJHcmFkaWVudD4mI3hhOyAgICA8bGluZWFyR3JhZGllbnQgaWQ9ImxpbmVhckdyYWRpZW50MTE1MjAiPiYjeGE7ICAgICAgPHN0b3AgaWQ9InN0b3AxMTUyMiIgc3R5bGU9InN0b3AtY29sb3I6I2ZmZmZmZjtzdG9wLW9wYWNpdHk6MSIgb2Zmc2V0PSIwIi8+JiN4YTsgICAgICA8c3RvcCBpZD0ic3RvcDExNTI0IiBzdHlsZT0ic3RvcC1jb2xvcjojZGNkY2RjO3N0b3Atb3BhY2l0eToxIiBvZmZzZXQ9IjEiLz4mI3hhOyAgICA8L2xpbmVhckdyYWRpZW50PiYjeGE7ICAgIDxsaW5lYXJHcmFkaWVudCB4MT0iMzAyLjg1NzE1IiB5MT0iMzY2LjY0Nzg5IiB4Mj0iMzAyLjg1NzE1IiB5Mj0iNjA5LjUwNTA3IiBpZD0ibGluZWFyR3JhZGllbnQ2NzE1IiB4bGluazpocmVmPSIjbGluZWFyR3JhZGllbnQ1MDQ4IiBncmFkaWVudFVuaXRzPSJ1c2VyU3BhY2VPblVzZSIgZ3JhZGllbnRUcmFuc2Zvcm09Im1hdHJpeCgyLjc3NDM4OSwwLDAsMS45Njk3MDYsLTE4OTIuMTc5LC04NzIuODg1NCkiLz4mI3hhOyAgICA8cmFkaWFsR3JhZGllbnQgY3g9IjYwNS43MTQyOSIgY3k9IjQ4Ni42NDc4OSIgcj0iMTE3LjE0Mjg2IiBmeD0iNjA1LjcxNDI5IiBmeT0iNDg2LjY0Nzg5IiBpZD0icmFkaWFsR3JhZGllbnQ2NzE3IiB4bGluazpocmVmPSIjbGluZWFyR3JhZGllbnQ1MDYwIiBncmFkaWVudFVuaXRzPSJ1c2VyU3BhY2VPblVzZSIgZ3JhZGllbnRUcmFuc2Zvcm09Im1hdHJpeCgyLjc3NDM4OSwwLDAsMS45Njk3MDYsLTE4OTEuNjMzLC04NzIuODg1NCkiLz4mI3hhOyAgICA8cmFkaWFsR3JhZGllbnQgY3g9IjYwNS43MTQyOSIgY3k9IjQ4Ni42NDc4OSIgcj0iMTE3LjE0Mjg2IiBmeD0iNjA1LjcxNDI5IiBmeT0iNDg2LjY0Nzg5IiBpZD0icmFkaWFsR3JhZGllbnQ2NzE5IiB4bGluazpocmVmPSIjbGluZWFyR3JhZGllbnQ1MDYwIiBncmFkaWVudFVuaXRzPSJ1c2VyU3BhY2VPblVzZSIgZ3JhZGllbnRUcmFuc2Zvcm09Im1hdHJpeCgtMi43NzQzODksMCwwLDEuOTY5NzA2LDExMi43NjIzLC04NzIuODg1NCkiLz4mI3hhOyAgPC9kZWZzPiYjeGE7ICA8ZyBpZD0ibGF5ZXIxIiBzdHlsZT0iZGlzcGxheTppbmxpbmUiLz4mI3hhOyAgPGcgaWQ9ImxheWVyMiIgc3R5bGU9ImRpc3BsYXk6aW5saW5lIj4mI3hhOyAgICA8ZyB0cmFuc2Zvcm09Im1hdHJpeCgyLjQ4NTM3MjMsMCwwLDIuNDg1MzcyMywzLjMyMDYzODYsMi4wNTg4MTU4KSIgaWQ9ImczNDA0MSI+JiN4YTsgICAgICA8ZyB0cmFuc2Zvcm09Im1hdHJpeCgwLjAyMjQzNDI1LDAsMCwwLjAyMDg2NzU4LDQ0LjMxMDk1LDQwLjg2Nzg5KSIgaWQ9Imc2NzA3Ij4mI3hhOyAgICAgICAgPHJlY3Qgd2lkdGg9IjEzMzkuNjMzNSIgaGVpZ2h0PSI0NzguMzU3MTgiIHg9Ii0xNTU5LjI1MjMiIHk9Ii0xNTAuNjk2ODUiIGlkPSJyZWN0NjcwOSIgc3R5bGU9Im9wYWNpdHk6MC40MDIwNjE4NTtmaWxsOnVybCgjbGluZWFyR3JhZGllbnQ2NzE1KTtmaWxsLW9wYWNpdHk6MTtmaWxsLXJ1bGU6bm9uemVybztzdHJva2U6bm9uZTtzdHJva2Utd2lkdGg6MTttYXJrZXI6bm9uZTt2aXNpYmlsaXR5OnZpc2libGU7ZGlzcGxheTppbmxpbmU7b3ZlcmZsb3c6dmlzaWJsZSIvPiYjeGE7ICAgICAgICA8cGF0aCBkPSJtIC0yMTkuNjE4NzYsLTE1MC42ODAzOCBjIDAsMCAwLDQ3OC4zMzA3OSAwLDQ3OC4zMzA3OSAxNDIuODc0MTY2LDAuOTAwNDUgMzQ1LjQwMDIyLC0xMDcuMTY5NjYgMzQ1LjQwMDE0LC0yMzkuMTk2MTc1IDAsLTEzMi4wMjY1MzcgLTE1OS40MzY4MTYsLTIzOS4xMzQ1OTUgLTM0NS40MDAxNCwtMjM5LjEzNDYxNSB6IiBpZD0icGF0aDY3MTEiIHN0eWxlPSJvcGFjaXR5OjAuNDAyMDYxODU7ZmlsbDp1cmwoI3JhZGlhbEdyYWRpZW50NjcxNyk7ZmlsbC1vcGFjaXR5OjE7ZmlsbC1ydWxlOm5vbnplcm87c3Ryb2tlOm5vbmU7c3Ryb2tlLXdpZHRoOjE7bWFya2VyOm5vbmU7dmlzaWJpbGl0eTp2aXNpYmxlO2Rpc3BsYXk6aW5saW5lO292ZXJmbG93OnZpc2libGUiLz4mI3hhOyAgICAgICAgPHBhdGggZD0ibSAtMTU1OS4yNTIzLC0xNTAuNjgwMzggYyAwLDAgMCw0NzguMzMwNzkgMCw0NzguMzMwNzkgLTE0Mi44NzQyLDAuOTAwNDUgLTM0NS40MDAyLC0xMDcuMTY5NjYgLTM0NS40MDAyLC0yMzkuMTk2MTc1IDAsLTEzMi4wMjY1MzcgMTU5LjQzNjgsLTIzOS4xMzQ1OTUgMzQ1LjQwMDIsLTIzOS4xMzQ2MTUgeiIgaWQ9InBhdGg2NzEzIiBzdHlsZT0ib3BhY2l0eTowLjQwMjA2MTg1O2ZpbGw6dXJsKCNyYWRpYWxHcmFkaWVudDY3MTkpO2ZpbGwtb3BhY2l0eToxO2ZpbGwtcnVsZTpub256ZXJvO3N0cm9rZTpub25lO3N0cm9rZS13aWR0aDoxO21hcmtlcjpub25lO3Zpc2liaWxpdHk6dmlzaWJsZTtkaXNwbGF5OmlubGluZTtvdmVyZmxvdzp2aXNpYmxlIi8+JiN4YTsgICAgICA8L2c+JiN4YTsgICAgICA8cmVjdCB3aWR0aD0iNDAuMDYxOTI0IiBoZWlnaHQ9IjQwLjA2MTkyNCIgcng9IjUuNDU0ODI0IiByeT0iNS40NTQ4MjQiIHg9IjQuNDE0NzI4MiIgeT0iMy41MjMzNDUyIiBpZD0icmVjdDExNTE4IiBzdHlsZT0iZmlsbDp1cmwoI3JhZGlhbEdyYWRpZW50MTM2Nik7ZmlsbC1vcGFjaXR5OjE7ZmlsbC1ydWxlOmV2ZW5vZGQ7c3Ryb2tlOiM5YjliOWI7c3Ryb2tlLXdpZHRoOjE7c3Ryb2tlLWxpbmVjYXA6YnV0dDtzdHJva2UtbGluZWpvaW46YmV2ZWw7c3Ryb2tlLW1pdGVybGltaXQ6MTA7c3Ryb2tlLW9wYWNpdHk6MTtzdHJva2UtZGFzaGFycmF5Om5vbmU7c3Ryb2tlLWRhc2hvZmZzZXQ6MDttYXJrZXI6bm9uZTt2aXNpYmlsaXR5OnZpc2libGU7ZGlzcGxheTppbmxpbmU7b3ZlcmZsb3c6dmlzaWJsZSIvPiYjeGE7ICAgICAgPHBhdGggZD0ibSAyMC4yMjQ5MDMsMzguOTU1NjY4IDQuNTk1MDM1LC0xNC41OTU5OTQgNS4zMTU4MjUsMTQuNTk1OTk0IiBpZD0icGF0aDExNDg2IiBzdHlsZT0iZmlsbDpub25lO3N0cm9rZTojMDAwMDAwO3N0cm9rZS13aWR0aDoxLjAwMDAwMDM2O3N0cm9rZS1saW5lY2FwOmJ1dHQ7c3Ryb2tlLWxpbmVqb2luOm1pdGVyO3N0cm9rZS1taXRlcmxpbWl0OjEwO3N0cm9rZS1vcGFjaXR5OjE7c3Ryb2tlLWRhc2hhcnJheTpub25lO3N0cm9rZS1kYXNob2Zmc2V0OjA7bWFya2VyOm5vbmU7dmlzaWJpbGl0eTp2aXNpYmxlO2Rpc3BsYXk6aW5saW5lO292ZXJmbG93OnZpc2libGUiLz4mI3hhOyAgICAgIDxwYXRoIGQ9Im0gMzAuOTEwNjY3LDE4LjYwNDU2MSBhIDMuMzMzNTAzNSwzLjMzMzUwMzUgMCAxIDEgLTYuNjY3MDA3LDAgMy4zMzM1MDM1LDMuMzMzNTAzNSAwIDEgMSA2LjY2NzAwNywwIHoiIHRyYW5zZm9ybT0ibWF0cml4KDAuNjg5MjIsMCwwLDAuNjg5MjIsNS43NjgxNTUsMTEuMDY5KSIgaWQ9InBhdGgxMTQ4MiIgc3R5bGU9ImZpbGw6I2VmMjkyOTtmaWxsLW9wYWNpdHk6MTtmaWxsLXJ1bGU6ZXZlbm9kZDtzdHJva2U6bm9uZTtzdHJva2Utd2lkdGg6MC45OTk5OTk4MjttYXJrZXI6bm9uZTt2aXNpYmlsaXR5OnZpc2libGU7ZGlzcGxheTppbmxpbmU7b3ZlcmZsb3c6dmlzaWJsZSIvPiYjeGE7ICAgICAgPHBhdGggZD0ibSAzMC45MTA2NjcsMTguNjA0NTYxIGEgMy4zMzM1MDM1LDMuMzMzNTAzNSAwIDEgMSAtNi42NjcwMDcsMCAzLjMzMzUwMzUsMy4zMzM1MDM1IDAgMSAxIDYuNjY3MDA3LDAgeiIgdHJhbnNmb3JtPSJtYXRyaXgoMi4zODIzMDMsMCwwLDIuMzgyMzAzLC00MC45MjIyOSwtMjAuNDMwMDcpIiBpZD0icGF0aDExNDg4IiBzdHlsZT0iZmlsbDpub25lO3N0cm9rZTp1cmwoI3JhZGlhbEdyYWRpZW50MTM1Mik7c3Ryb2tlLXdpZHRoOjEuMTgxMjc2NDQ7c3Ryb2tlLWxpbmVjYXA6YnV0dDtzdHJva2UtbGluZWpvaW46bWl0ZXI7c3Ryb2tlLW1pdGVybGltaXQ6MTA7c3Ryb2tlLW9wYWNpdHk6MTtzdHJva2UtZGFzaGFycmF5Om5vbmU7c3Ryb2tlLWRhc2hvZmZzZXQ6MDttYXJrZXI6bm9uZTt2aXNpYmlsaXR5OnZpc2libGU7ZGlzcGxheTppbmxpbmU7b3ZlcmZsb3c6dmlzaWJsZSIvPiYjeGE7ICAgICAgPHBhdGggZD0ibSAzMC45MTA2NjcsMTguNjA0NTYxIGEgMy4zMzM1MDM1LDMuMzMzNTAzNSAwIDEgMSAtNi42NjcwMDcsMCAzLjMzMzUwMzUsMy4zMzM1MDM1IDAgMSAxIDYuNjY3MDA3LDAgeiIgdHJhbnNmb3JtPSJtYXRyaXgoNC42NTc2MDgsMCwwLDQuNjU3NjA4LC0xMDMuNjY5LC02Mi43NjExMykiIGlkPSJwYXRoMTE0OTAiIHN0eWxlPSJmaWxsOm5vbmU7c3Ryb2tlOnVybCgjcmFkaWFsR3JhZGllbnQxMzU0KTtzdHJva2Utd2lkdGg6MC42MDQyMDY3NDtzdHJva2UtbGluZWNhcDpidXR0O3N0cm9rZS1saW5lam9pbjptaXRlcjtzdHJva2UtbWl0ZXJsaW1pdDoxMDtzdHJva2Utb3BhY2l0eToxO3N0cm9rZS1kYXNoYXJyYXk6bm9uZTtzdHJva2UtZGFzaG9mZnNldDowO21hcmtlcjpub25lO3Zpc2liaWxpdHk6dmlzaWJsZTtkaXNwbGF5OmlubGluZTtvdmVyZmxvdzp2aXNpYmxlIi8+JiN4YTsgICAgICA8cGF0aCBkPSJtIDM2Ljc2OTU1Myw0NC41NjU0ODMgYSA2LjU2NTk5MTUsMi4yMjIzMzU2IDAgMSAxIC0xMy4xMzE5ODMsMCA2LjU2NTk5MTUsMi4yMjIzMzU2IDAgMSAxIDEzLjEzMTk4MywwIHoiIHRyYW5zZm9ybT0ibWF0cml4KDEuNTY3NzQxLDAsMCwxLjU2Nzc0MSwtMjIuMjU2NTYsLTMxLjk5NTU5KSIgaWQ9InBhdGgxMTUwNiIgc3R5bGU9Im9wYWNpdHk6MC4xNzY0NzA1OTtmaWxsOnVybCgjcmFkaWFsR3JhZGllbnQxMzU2KTtmaWxsLW9wYWNpdHk6MTtmaWxsLXJ1bGU6ZXZlbm9kZDtzdHJva2U6bm9uZTtzdHJva2Utd2lkdGg6Mi44MTQxNTg0NDttYXJrZXI6bm9uZTt2aXNpYmlsaXR5OnZpc2libGU7ZGlzcGxheTppbmxpbmU7b3ZlcmZsb3c6dmlzaWJsZSIvPiYjeGE7ICAgICAgPHBhdGggZD0ibSAyMy44MTIxMDgsMjguNTcxODU2IDIuOTA3NDY1LDAuODU1MTM2IC00LjI3NTY4MywyLjkwNzQ2NSA1LjgxNDkyOCwxLjUzOTI0NSAtNy4xODMxNDcsMi45MDc0NjUgOC41NTEzNjYsMC44NTUxMzciIGlkPSJwYXRoMTE1MTYiIHN0eWxlPSJmaWxsOm5vbmU7c3Ryb2tlOiMwMDAwMDA7c3Ryb2tlLXdpZHRoOjEuMDAwMDAwMzY7c3Ryb2tlLWxpbmVjYXA6YnV0dDtzdHJva2UtbGluZWpvaW46YmV2ZWw7c3Ryb2tlLW1pdGVybGltaXQ6MTA7c3Ryb2tlLW9wYWNpdHk6MTtzdHJva2UtZGFzaGFycmF5Om5vbmU7c3Ryb2tlLWRhc2hvZmZzZXQ6MDttYXJrZXI6bm9uZTt2aXNpYmlsaXR5OnZpc2libGU7ZGlzcGxheTppbmxpbmU7b3ZlcmZsb3c6dmlzaWJsZSIvPiYjeGE7ICAgICAgPHJlY3Qgd2lkdGg9IjM3LjY5NjU4NyIgaGVpZ2h0PSIzNy42OTY1ODciIHJ4PSI0LjI0MjYzOTEiIHJ5PSI0LjI0MjYzOTEiIHg9IjUuNTk3Mzg4NyIgeT0iNC43MDYwMDciIGlkPSJyZWN0MTE1MjgiIHN0eWxlPSJmaWxsOm5vbmU7c3Ryb2tlOiNmZmZmZmY7c3Ryb2tlLXdpZHRoOjAuOTk5OTk5NzY7c3Ryb2tlLWxpbmVjYXA6YnV0dDtzdHJva2UtbGluZWpvaW46YmV2ZWw7c3Ryb2tlLW1pdGVybGltaXQ6MTA7c3Ryb2tlLW9wYWNpdHk6MTtzdHJva2UtZGFzaGFycmF5Om5vbmU7c3Ryb2tlLWRhc2hvZmZzZXQ6MDttYXJrZXI6bm9uZTt2aXNpYmlsaXR5OnZpc2libGU7ZGlzcGxheTppbmxpbmU7b3ZlcmZsb3c6dmlzaWJsZSIvPiYjeGE7ICAgIDwvZz4mI3hhOyAgPC9nPiYjeGE7PC9zdmc+;movableLabel=1;connectable=1;html=1;snapToPoint=1;" parent="1" vertex="1">
            <mxGeometry x="800" y="-770" width="80" height="80" as="geometry">
              <mxPoint y="-100" as="offset" />
            </mxGeometry>
          </mxCell>
        </object>
        <mxCell id="YRLlY--aoW11vG_20f-W-101" style="edgeStyle=orthogonalEdgeStyle;jumpStyle=none;orthogonalLoop=1;jettySize=auto;html=1;startArrow=classic;startFill=1;endArrow=none;endFill=0;entryX=0.27;entryY=0;entryDx=0;entryDy=-6;entryPerimeter=0;exitX=0;exitY=0.5;exitDx=0;exitDy=0;" parent="1" source="YRLlY--aoW11vG_20f-W-21" target="YRLlY--aoW11vG_20f-W-95" edge="1">
          <mxGeometry relative="1" as="geometry">
            <mxPoint x="60" y="-750" as="targetPoint" />
          </mxGeometry>
        </mxCell>
        <mxCell id="YRLlY--aoW11vG_20f-W-95" value="" style="html=1;outlineConnect=0;fillColor=#CCCCCC;strokeColor=#6881B3;gradientColor=none;gradientDirection=north;strokeWidth=2;shape=mxgraph.networks.bus;gradientColor=none;gradientDirection=north;fontColor=#ffffff;perimeter=backbonePerimeter;backboneSize=20;labelBackgroundColor=none;sketch=0;points=[[0,0.5,0,0,0],[0.27,0,0,0,-6],[0.27,1,0,0,5],[0.43,1,0,0,5],[0.59,1,0,0,5],[0.65,0,0,0,-6],[0.75,1,0,0,5],[0.97,1,0,0,1]];" parent="1" vertex="1">
          <mxGeometry x="80" y="-680" width="100" height="10" as="geometry" />
        </mxCell>
        <object label="" Name="" Brand="TP-Link" Model="TGS-1005" Ports="5" OS="" Location="Livingroom" OSVersion="" placeholders="null" id="YRLlY--aoW11vG_20f-W-102">
          <mxCell style="image;html=1;image=img/lib/clip_art/networking/Switch_128x128.png;labelBackgroundColor=none;sketch=0;strokeColor=default;" parent="1" vertex="1">
            <mxGeometry x="1050" y="-610" width="80" height="80" as="geometry" />
          </mxCell>
        </object>
      </root>
    </mxGraphModel>
  </diagram>
</mxfile>
